<svg width="55" height="54" viewBox="0 0 55 54" fill="none" xmlns="http://www.w3.org/2000/svg">
<path opacity="0.4" d="M19.5908 11.6299C19.5908 11.6299 23.3573 5.71012 27.2251 6.60112C31.4371 7.57312 34.6636 12.8651 33.4553 13.4254C28.3861 15.7541 24.3158 12.5074 24.3158 12.5074L19.5908 11.6299Z" fill="#ED957C"/>
<path opacity="0.4" d="M11.8436 46.6936C11.6999 45.9715 12.0487 44.6477 11.994 44.1303C11.8094 42.2228 11.8299 40.2612 11.8983 38.3417C11.9598 36.6389 12.2745 34.8939 13.3551 33.3836C14.1964 32.2042 16.1867 30.375 18.2249 30.375C19.4629 30.375 20.7008 31.2475 21.8977 31.5484C23.3272 31.9154 24.8524 32.0779 26.3708 32.0177C29.3734 31.8973 32.4307 30.6819 35.4264 31.085C37.3278 31.3377 39.0719 32.0899 40.2825 33.185C41.5273 34.3163 41.1238 35.7784 41.0964 37.1383C41.0691 38.5403 41.541 39.9604 41.5068 41.3624C41.4658 43.2578 40.9323 45.1472 40.8776 47.0426C32.0203 47.0426 23.0673 47.3374 14.2237 47.0426C13.3414 47.0125 12.9653 47.524 12.5549 47.0426C12.466 46.9403 11.8846 46.8801 11.8436 46.6936Z" fill="#ED957C"/>
<path d="M10.5326 11.7043C8.93955 11.7043 7.64355 10.5906 7.64355 9.22033C7.64355 7.85008 8.93955 6.73633 10.5326 6.73633C12.1256 6.73633 13.4148 7.85008 13.4148 9.22033C13.4148 10.5906 12.1188 11.7043 10.5326 11.7043ZM10.5326 7.41808C9.3108 7.41808 8.31855 8.22808 8.31855 9.22708C8.31855 10.2261 9.3108 11.0361 10.5326 11.0361C11.7543 11.0361 12.7398 10.2261 12.7398 9.22708C12.7398 8.22808 11.7476 7.41808 10.5326 7.41808Z" fill="#F35431"/>
<path d="M26.2532 23.9018C22.0345 23.9018 18.6055 19.9733 18.6055 15.1403C18.6055 13.1355 19.5032 10.233 21.4945 8.28229C22.885 6.92554 24.5995 6.22354 26.4827 6.27079C31.3225 6.38554 33.8942 11.4953 33.8942 15.1403C33.901 19.9733 30.472 23.9018 26.2532 23.9018ZM26.3207 6.94579C24.694 6.94579 23.1887 7.57354 21.967 8.76829C20.1107 10.584 19.2805 13.2773 19.2805 15.147C19.2805 19.602 22.4057 23.2335 26.2532 23.2335C30.1007 23.2335 33.226 19.6088 33.226 15.147C33.226 11.7788 30.877 7.05379 26.4692 6.95254C26.422 6.94579 26.3747 6.94579 26.3207 6.94579Z" fill="#F35431"/>
<path d="M7.42726 35.0323C7.42051 35.0323 7.41376 35.0323 7.40701 35.0323C7.21801 35.0188 7.07626 34.8636 7.08976 34.6746C7.63651 25.2583 14.5485 24.1041 14.616 24.0973C14.7983 24.0703 14.9738 24.1986 15.0008 24.3808C15.0278 24.5631 14.8995 24.7386 14.7173 24.7656C14.454 24.8061 8.27776 25.8658 7.75801 34.7151C7.75126 34.8906 7.60276 35.0323 7.42726 35.0323Z" fill="#F35431"/>
<path d="M43.8025 30.2945C43.6473 30.2945 43.5055 30.1865 43.4718 30.0312C42.493 25.502 37.2955 22.5117 35.7228 21.7017C35.554 21.614 35.4933 21.4115 35.581 21.2495C35.6688 21.0807 35.8713 21.02 36.0333 21.101C38.1325 22.181 43.114 25.205 44.1265 29.8895C44.167 30.0717 44.0523 30.254 43.87 30.2877C43.8498 30.2877 43.8228 30.2945 43.8025 30.2945Z" fill="#F35431"/>
<path d="M7.42734 38.9813C7.23834 38.9813 7.08984 38.8328 7.08984 38.6438V36.1598C7.08984 35.9708 7.23834 35.8223 7.42734 35.8223C7.61634 35.8223 7.76484 35.9708 7.76484 36.1598V38.6438C7.76484 38.826 7.60959 38.9813 7.42734 38.9813Z" fill="#F35431"/>
<path d="M43.8033 34.5805C43.6143 34.5805 43.4658 34.432 43.4658 34.243V31.8063C43.4658 31.6172 43.6143 31.4688 43.8033 31.4688C43.9923 31.4688 44.1408 31.6172 44.1408 31.8063V34.243C44.1408 34.432 43.9923 34.5805 43.8033 34.5805Z" fill="#F35431"/>
<path d="M26.1588 29.2414C22.7298 29.2414 19.8543 27.0882 19.6788 26.9532C19.3818 26.7237 19.4898 26.5144 20.4348 24.9214C20.4956 24.8134 20.5428 24.7392 20.5563 24.7122L21.3258 23.2812C21.3933 23.1597 21.4406 23.0314 21.4946 22.9032C21.5621 22.7344 21.6296 22.5657 21.7241 22.4104C22.1291 21.6949 22.6151 21.9514 22.9728 22.1337L23.1551 22.2282C24.3633 22.8087 25.3826 23.1192 26.3816 23.1867C27.0903 23.2407 27.7991 23.1529 28.4268 22.9437C28.8318 22.8087 29.1221 22.5859 29.4258 22.3564C29.6081 22.2147 29.7971 22.0729 30.0131 21.9379C30.1683 21.8434 30.3776 21.8907 30.4788 22.0527C30.6273 22.2889 30.6813 22.5792 30.7353 22.8289C30.7556 22.9167 30.7691 23.0044 30.7961 23.0854L31.7478 26.5954C31.7816 26.7102 31.7478 26.8384 31.6601 26.9262C29.8713 28.6609 27.9408 29.2414 26.1588 29.2414ZM20.2796 26.5549C21.3663 27.3177 26.6718 30.6454 31.0391 26.5752L30.1413 23.2542C30.1143 23.1597 30.0941 23.0584 30.0738 22.9572C30.0603 22.8829 30.0401 22.8087 30.0266 22.7344C29.9591 22.7817 29.8983 22.8289 29.8376 22.8829C29.5068 23.1394 29.1626 23.4027 28.6428 23.5782C27.9273 23.8144 27.1308 23.9157 26.3343 23.8549C25.2476 23.7739 24.1473 23.4499 22.8581 22.8289L22.6556 22.7277C22.5611 22.6804 22.4396 22.6129 22.3856 22.6062C22.3856 22.6129 22.3518 22.6467 22.3046 22.7344C22.2303 22.8694 22.1763 23.0044 22.1156 23.1462C22.0548 23.2947 21.9941 23.4499 21.9131 23.5917L21.1436 25.0227C21.1301 25.0497 21.0761 25.1374 21.0086 25.2589C20.6441 25.8934 20.3943 26.3254 20.2796 26.5549Z" fill="#F35431"/>
<path d="M40.8061 47.3314H10.8968C10.7078 47.3314 10.5593 47.1829 10.5593 46.9939V34.9789C10.5593 34.7966 10.5526 34.6144 10.5458 34.4389C10.5188 33.7504 10.4851 33.0349 10.8901 32.3194C11.1533 31.8536 11.4098 31.4419 11.6731 31.0639C12.5506 29.8219 13.5563 28.7959 14.6768 28.0196C15.4193 27.5066 16.2024 27.1016 17.0056 26.8249C17.4579 26.6696 17.9304 26.5481 18.4096 26.4671L18.5581 26.4401C19.3546 26.2916 19.8068 26.2376 20.0566 26.3996C23.7353 28.6811 25.3891 28.6271 26.0169 28.6069C26.1316 28.6069 26.2194 28.6001 26.2869 28.6069C28.3186 28.4314 29.9386 27.7294 31.1738 26.4536C31.2481 26.3794 31.3561 26.3389 31.4641 26.3524C31.8286 26.3996 40.3066 27.6214 41.1369 32.9741C41.9401 38.1244 41.1504 46.9331 41.1369 47.0209C41.1234 47.1964 40.9816 47.3314 40.8061 47.3314ZM11.2343 46.6564H40.4956C40.6238 45.0566 41.1773 37.6046 40.4686 33.0821C39.7733 28.6069 32.7061 27.2434 31.5316 27.0476C30.2086 28.3504 28.4401 29.0996 26.2801 29.2819C26.1721 29.2751 26.1181 29.2819 26.0439 29.2819C25.3554 29.3021 23.5599 29.3629 19.7056 26.9734C19.6246 26.9531 19.2736 26.9936 18.6863 27.1016L18.5108 27.1354C18.0721 27.2096 17.6401 27.3176 17.2148 27.4661C16.4656 27.7226 15.7434 28.0939 15.0549 28.5731C14.0019 29.3021 13.0501 30.2741 12.2198 31.4486C11.9701 31.8064 11.7203 32.1979 11.4706 32.6434C11.1601 33.1901 11.1871 33.7504 11.2141 34.3984C11.2208 34.5874 11.2276 34.7764 11.2276 34.9721V46.6564H11.2343Z" fill="#F35431"/>
<path d="M46.3076 48.0063H6.0709C5.8819 48.0063 5.7334 47.8578 5.7334 47.6688V46.9938C5.7334 46.8047 5.8819 46.6562 6.0709 46.6562H46.3076C46.4967 46.6562 46.6451 46.8047 46.6451 46.9938V47.6688C46.6451 47.851 46.4899 48.0063 46.3076 48.0063ZM6.4084 47.3313H45.9701H6.4084Z" fill="#F35431"/>
<path d="M17.6132 46.9939H17.0597C16.7695 46.9939 16.5332 46.7577 16.5332 46.4674V34.7697C16.5332 34.4794 16.7695 34.2432 17.0597 34.2432H17.6132C17.9035 34.2432 18.1397 34.4794 18.1397 34.7697V46.4607C18.1397 46.7577 17.9035 46.9939 17.6132 46.9939Z" fill="#F35431"/>
<path d="M36.1153 46.993H34.5088V34.7755C34.5088 34.4853 34.745 34.249 35.0353 34.249H35.5888C35.879 34.249 36.1153 34.4853 36.1153 34.7755V46.993Z" fill="#F35431"/>
<path d="M41.1645 49.6396C41.1645 50.4834 40.3545 51.1651 39.3555 51.1651H12.7065C11.7075 51.1651 10.8975 50.4834 10.8975 49.6396" fill="#F35431"/>
<path d="M29.6483 14.9039C28.7303 14.9039 27.5828 14.6069 26.0843 13.7226C22.0478 11.3331 19.7191 12.6764 19.6921 12.6899C19.5368 12.7844 19.3276 12.7371 19.2263 12.5751C19.1318 12.4199 19.1791 12.2106 19.3343 12.1161C19.4423 12.0486 22.0073 10.5299 26.4218 13.1421C29.3108 14.8499 30.6541 14.1614 31.7341 13.6011C32.2133 13.3514 32.6723 13.1151 33.1921 13.1151C33.3811 13.1151 33.5296 13.2636 33.5296 13.4526C33.5296 13.6416 33.3811 13.7901 33.1921 13.7901C32.8343 13.7901 32.4698 13.9791 32.0446 14.2019C31.4303 14.5191 30.6878 14.9039 29.6483 14.9039Z" fill="#F35431"/>
<path d="M45.8893 9.56476H37.1886V9.91576H45.8893V9.56476Z" fill="#F35431"/>
<path d="M45.8893 8.22825H37.1886V8.57925H45.8893V8.22825Z" fill="#F35431"/>
<path d="M45.8893 6.89174H37.1886V7.24274H45.8893V6.89174Z" fill="#F35431"/>
<path d="M41.7786 5.56199H37.1886V5.91299H41.7786V5.56199Z" fill="#F35431"/>
<path d="M36.8651 15.552C36.8246 15.552 36.7774 15.5453 36.7369 15.5318C36.5884 15.4778 36.4939 15.3427 36.4871 15.1875L36.4668 12.8655C36.4668 12.7575 36.3791 12.6698 36.2779 12.663L35.3328 12.6225C35.0696 12.609 34.8604 12.393 34.8604 12.1298V4.023C34.8604 3.66525 35.1506 3.375 35.5084 3.375H48.1308C48.4346 3.375 48.6776 3.618 48.6776 3.92175V11.6707C48.6776 12.1095 48.3199 12.4672 47.8811 12.4672H39.8891C39.7338 12.4672 39.5854 12.5347 39.4841 12.6562L37.1553 15.4238C37.0811 15.5048 36.9731 15.552 36.8651 15.552ZM35.5151 3.726C35.3531 3.726 35.2181 3.861 35.2181 4.023V12.1298C35.2181 12.204 35.2789 12.2715 35.3531 12.2715L36.2981 12.312C36.5883 12.3255 36.8179 12.5618 36.8246 12.8588L36.8449 15.1807L36.8854 15.1943L39.2141 12.4268C39.3828 12.231 39.6258 12.1163 39.8891 12.1163H47.8946C48.1376 12.1163 48.3401 11.9137 48.3401 11.6707V3.92175C48.3401 3.81375 48.2524 3.726 48.1444 3.726H35.5151Z" fill="#F35431"/>
</svg>
