<svg width="57" height="57" viewBox="0 0 57 57" fill="none" xmlns="http://www.w3.org/2000/svg">
<path d="M10.125 38.0496V15.2996H32.875L22.375 25.7996L21.0625 29.7371L21.5 31.9246L25.875 30.6121L41.625 15.2996H48.625V31.9246L32.4375 47.2371L7.9375 46.7996L5.75 45.9246L4.875 42.8621L5.75 39.3621L10.125 38.0496Z" fill="#FFF8F7"/>
<path d="M52.7406 28.5108C52.742 28.1259 52.693 27.7782 52.2854 27.6119C51.8745 27.4442 51.5973 27.6738 51.3312 27.9432C50.7989 28.482 50.2634 29.0175 49.7245 29.5497C49.644 29.6296 49.547 29.6928 49.4005 29.809V29.1662C49.4005 24.7168 49.4004 20.2674 49.4002 15.8179C49.4001 14.8802 49.2049 14.6873 48.257 14.6866C46.7897 14.6854 45.3223 14.6853 43.855 14.6862H43.2533C43.4397 14.4832 43.5386 14.3675 43.6458 14.26C44.76 13.1428 45.8809 12.0323 46.989 10.9091C47.2283 10.7057 47.4206 10.4527 47.5525 10.1676C47.6844 9.88249 47.7527 9.57215 47.7528 9.25804C47.7529 8.94393 47.6848 8.63354 47.5531 8.34837C47.4214 8.0632 47.2293 7.81006 46.99 7.60647C46.382 6.98739 45.7643 6.37776 45.1502 5.76466C44.9426 5.48634 44.6729 5.26042 44.3625 5.10492C44.0521 4.94942 43.7096 4.86866 43.3625 4.86908C43.0153 4.86951 42.673 4.95111 42.363 5.10737C42.053 5.26362 41.7838 5.49021 41.577 5.76903C38.7317 8.61366 35.8886 11.4605 33.0478 14.3097C32.9343 14.436 32.7945 14.5358 32.6382 14.6023C32.4819 14.6687 32.313 14.7001 32.1432 14.6942C25.1536 14.6833 18.1639 14.6806 11.1742 14.6862H10.5802V14.1082C10.5801 12.0413 10.5838 9.97437 10.578 7.90745C10.5759 7.17748 10.3175 6.9362 9.60635 6.95928C8.16306 7.01792 6.79913 7.63551 5.8029 8.68149C4.80667 9.72746 4.25621 11.1198 4.2679 12.5643C4.25425 22.5675 4.25445 32.5707 4.2685 42.5739C4.26547 43.4145 4.47798 44.2418 4.88574 44.9768C5.34998 45.8904 6.06782 46.6507 6.95324 47.1667C7.83866 47.6826 8.85408 47.9323 9.87779 47.8857C16.8359 47.8803 23.794 47.8796 30.7521 47.8837H31.3956C30.0656 49.2128 28.8386 50.4385 27.6121 51.6648C27.5006 51.7763 27.3417 51.8732 27.2941 52.0084C27.2113 52.2436 27.0931 52.5554 27.1839 52.7391C27.2854 52.9447 27.5955 53.0576 27.8302 53.1817C27.9168 53.2276 28.0472 53.1915 28.1577 53.1915C35.9836 53.1917 43.8095 53.1917 51.6354 53.1915C52.5552 53.1914 52.738 53.0072 52.738 52.0833C52.7382 45.8194 52.7382 39.5555 52.7381 33.2916C52.7381 31.698 52.7347 30.1044 52.7406 28.5108ZM42.9944 6.43511C43.0558 6.3827 43.1269 6.34298 43.2037 6.31826C43.2805 6.29354 43.3615 6.2843 43.4419 6.29109C43.5223 6.29787 43.6005 6.32054 43.6721 6.35779C43.7437 6.39504 43.8071 6.44611 43.8588 6.50807C44.6181 7.2426 45.3704 7.98522 46.1006 8.74842C46.1735 8.81721 46.231 8.90062 46.2694 8.99319C46.3078 9.08576 46.3261 9.18539 46.3233 9.28556C46.3204 9.38572 46.2965 9.48416 46.2529 9.57441C46.2094 9.66465 46.1472 9.74468 46.0706 9.80922C45.6422 10.271 45.1928 10.7134 44.7524 11.164L41.5597 7.98164C42.0166 7.48228 42.4772 6.92901 42.9944 6.43511ZM40.3779 9.01198C41.4489 10.0907 42.5199 11.1695 43.591 12.2483L42.3697 13.4454L39.1739 10.2242L40.3779 9.01198ZM37.7046 11.6489C37.8121 11.53 37.9119 11.4044 38.0035 11.2729L41.264 14.5426C36.4177 19.3866 31.5209 24.2813 26.6301 29.1698L23.4238 25.93L24.6973 24.6585C24.7556 24.6031 24.8125 24.546 24.869 24.4895C25.1374 24.2213 25.4354 23.9235 25.7569 23.6021C25.8045 23.5551 25.8515 23.5075 25.8988 23.4602C29.2376 20.1225 34.9794 14.3785 37.7046 11.6489ZM25.2475 29.9825C24.6852 30.1831 24.0974 30.4012 23.5021 30.5966C23.4078 30.6275 23.278 30.5623 23.1686 30.5284C23.1286 30.516 23.1009 30.4647 23.0667 30.4321C21.8214 29.2395 21.8214 29.2395 22.6553 27.3886L25.2475 29.9825ZM5.68767 12.7529C5.64551 11.7989 5.93023 10.8591 6.49474 10.0889C7.05926 9.31871 7.86974 8.76425 8.79217 8.51722C8.88154 8.49515 8.97487 8.48906 9.15243 8.4628V9.08185C9.15243 15.8174 9.15219 26.5924 9.15358 33.3679C9.14632 34.5016 9.14508 35.6354 9.15933 36.7689C9.16346 37.0978 9.07595 37.2345 8.73238 37.295C7.56191 37.5336 6.49616 38.1344 5.68609 39.0123V38.5509C5.68613 29.9516 5.68665 21.3523 5.68767 12.7529ZM9.84325 46.4577C8.85015 46.5145 7.87267 46.1911 7.10942 45.5532C6.34617 44.9153 5.85441 44.0107 5.73405 43.0233C5.61368 42.0359 5.87374 41.0397 6.46139 40.2371C7.04904 39.4345 7.9202 38.8857 8.89787 38.7023C9.17578 38.6475 9.45701 38.6112 9.73972 38.5936C10.2966 38.5437 10.5665 38.3142 10.5718 37.7663C10.5853 36.374 10.587 34.9816 10.5767 33.589C10.577 33.5589 10.5776 33.5286 10.5777 33.4988C10.581 29.2701 10.5802 20.9611 10.5802 16.7324V16.1533H31.0817L31.1483 16.2536C30.9315 16.4516 30.7072 16.6421 30.4992 16.849C29.7467 17.5972 26.8652 20.4802 25.0741 22.2737L25.0712 22.2764C25.0241 22.3222 24.9777 22.369 24.9318 22.4162C24.6449 22.7035 24.3906 22.9582 24.1832 23.1661C24.154 23.1911 24.125 23.2164 24.095 23.2404C22.3525 24.6379 21.129 26.5793 20.62 28.7542C20.3276 29.8939 19.8412 30.9831 19.4659 32.103C19.4558 32.1595 19.4347 32.2135 19.4037 32.2618C19.3727 32.3101 19.3325 32.3518 19.2853 32.3846C19.2381 32.4173 19.185 32.4404 19.1289 32.4526C19.0728 32.4647 19.0148 32.4657 18.9583 32.4554C18.3752 32.4353 17.7909 32.4461 17.2071 32.4503C16.6085 32.4546 16.2833 32.7069 16.28 33.1593C16.2767 33.6118 16.6029 33.8722 17.1966 33.8724C22.1195 33.8742 27.0425 33.8746 31.9654 33.8735C33.4643 33.8735 34.9633 33.8732 36.4623 33.8724C37.0536 33.8712 37.3919 33.6056 37.3889 33.1603C37.3859 32.7135 37.0482 32.4508 36.4505 32.4505C32.0798 32.4484 27.7091 32.448 23.3385 32.4493H22.8457L22.8309 32.3594C23.9811 31.9506 25.1252 31.5234 26.2841 31.1413C26.7766 30.9802 27.2223 30.7014 27.5827 30.3291C32.1943 25.7027 36.8106 21.0809 41.4316 16.4638C41.5341 16.3476 41.661 16.2556 41.8032 16.1941C41.9454 16.1327 42.0994 16.1035 42.2543 16.1084C43.9739 16.126 45.6939 16.1164 47.4138 16.1164H47.9735V16.6906C47.9735 21.4084 47.9757 26.1262 47.98 30.844C47.9864 30.9906 47.9607 31.1369 47.9047 31.2726C47.8487 31.4083 47.7638 31.5301 47.6558 31.6295C44.6128 34.6599 36.7881 42.4772 33.2887 45.9762C33.2277 46.0347 33.1676 46.0942 33.1062 46.1523C32.9192 46.3267 32.6776 46.4308 32.4224 46.447C24.896 46.4622 17.3697 46.4657 9.84325 46.4577ZM51.2877 36.2478C50.9031 36.2169 50.5164 36.223 50.133 36.2662C49.8358 36.3151 49.5668 36.4714 49.3771 36.7055C49.1159 37.1242 49.4669 37.619 49.9949 37.6635C50.2144 37.682 50.4364 37.6714 50.6572 37.6726C50.8584 37.6737 51.0596 37.6728 51.2873 37.6728V39.8263C50.8967 39.8263 50.5224 39.8207 50.1483 39.8277C49.6175 39.8375 49.317 40.09 49.309 40.5204C49.3006 40.969 49.612 41.2381 50.165 41.2486C50.526 41.2555 50.8873 41.2499 51.2814 41.2499V43.3956C50.8897 43.3956 50.4996 43.3852 50.1103 43.3981C49.5976 43.4152 49.3233 43.6575 49.3106 44.0784C49.2974 44.5166 49.5807 44.7904 50.1101 44.8162C50.4872 44.8346 50.8658 44.8198 51.279 44.8198V46.9488C50.8948 46.9488 50.5202 46.9385 50.1464 46.9512C49.6118 46.9695 49.3159 47.2266 49.3089 47.6551C49.3017 48.106 49.6027 48.3615 50.168 48.3723C50.528 48.3793 50.8882 48.3737 51.2812 48.3737V51.7325H29.5881C29.7429 51.5678 29.8543 51.4426 29.9725 51.3243C32.1029 49.1926 34.2337 47.0614 36.365 44.9307C36.4654 44.8302 36.571 44.7342 36.6639 44.6272C36.6743 44.6153 36.6833 44.6034 36.693 44.5914C41.189 40.0977 47.7273 33.5661 50.8732 30.4203C50.9917 30.3017 51.1165 30.1893 51.2877 30.0275L51.2877 36.2478Z" fill="#F35431"/>
<path d="M47.1474 39.0167C46.9823 38.9596 46.8031 38.9574 46.6366 39.0102C46.4701 39.0631 46.325 39.1683 46.2231 39.3102C43.7409 41.7975 41.2559 44.2821 38.7681 46.764C38.6188 46.8693 38.5086 47.0212 38.4547 47.1959C38.4008 47.3705 38.4063 47.5581 38.4704 47.7293C38.6308 48.1004 38.9699 48.1626 39.34 48.1605C40.5533 48.1537 41.7667 48.158 42.9801 48.158C44.1934 48.158 45.4068 48.1605 46.6202 48.1571C47.3387 48.1551 47.6014 47.9063 47.603 47.1991C47.6084 44.7567 47.6044 42.3142 47.6055 39.8717C47.6333 39.6987 47.6036 39.5213 47.5208 39.3668C47.4381 39.2123 47.3069 39.0893 47.1474 39.0167ZM46.1405 46.7028H40.9747C42.7045 44.9724 44.418 43.2584 46.1405 41.5353V46.7028Z" fill="#F35431"/>
</svg>
