<svg width="57" height="57" viewBox="0 0 57 57" fill="none" xmlns="http://www.w3.org/2000/svg">
<path d="M16.25 19.2371L14.5 18.7996L14.0625 19.6746L13.1875 20.9871V21.8621L18.875 24.9246L12.3125 37.6121L7.5 34.9871L5.3125 37.6121L7.0625 38.9246L6.1875 41.1121V42.4246L9.25 44.6121L8.375 46.3621L11.4375 47.2371L12.75 46.3621L15.8125 47.6746L16.6875 47.2371L18 44.6121L19.3125 45.4871L21.0625 42.4246L15.8125 38.9246L21.9375 26.6746L27.1875 29.2996L28.5 26.2371L27.1875 24.9246L28.5 21.8621L25 19.6746L25.4375 17.9246L22.8125 16.1746L21.9375 17.9246L18 16.6121L16.25 19.2371Z" fill="#FFF8F7"/>
<path d="M46.7796 32.7919C48.689 30.7605 50.3353 28.4969 51.6796 26.0544C52.8465 24.0339 53.4507 21.7376 53.4296 19.4044C53.4296 14.5044 51.1546 10.6544 47.2171 8.64195C45.6179 7.79505 43.8412 7.33778 42.0318 7.30737C40.2224 7.27696 38.4314 7.67427 36.8046 8.46695C35.9975 8.84923 35.2346 9.31869 34.5296 9.86695L33.7421 10.3919C33.6063 10.5071 33.5086 10.6607 33.4617 10.8325C33.4149 11.0043 33.4211 11.1863 33.4796 11.3544C33.5058 11.499 33.581 11.6302 33.6926 11.7258C33.8042 11.8214 33.9453 11.8757 34.0921 11.8794C34.3821 11.8384 34.6549 11.7172 34.8796 11.5294C36.0509 10.5033 37.4361 9.75098 38.9345 9.32719C40.4329 8.90339 42.0069 8.81876 43.5421 9.07945C44.9432 9.2929 46.2804 9.81093 47.4596 10.5971C48.6387 11.3832 49.6312 12.4183 50.3671 13.6294C51.1482 14.9811 51.6373 16.4815 51.8031 18.0337C51.9689 19.586 51.8076 21.1558 51.3296 22.6419C50.4491 25.0951 49.1461 27.3753 47.4796 29.3794C44.186 33.4127 40.5563 37.1594 36.6296 40.5794C35.6045 41.4652 34.5231 42.2836 33.3921 43.0294C33.2171 43.2044 32.9546 43.292 32.7796 43.4669C32.3746 43.7584 31.8918 43.9224 31.393 43.9379C30.8942 43.9535 30.4021 43.82 29.9796 43.5545C29.0034 43.0428 28.0674 42.4578 27.1796 41.8045C25.0561 40.1243 23.0668 38.2812 21.2296 36.2919C21.0333 36.0502 20.7512 35.8934 20.4421 35.8544C20.3415 35.861 20.2433 35.8876 20.1531 35.9327C20.063 35.9778 19.9827 36.0404 19.9171 36.117C19.8274 36.2079 19.7597 36.3182 19.7191 36.4394C19.6785 36.5606 19.6662 36.6894 19.6831 36.8161C19.7 36.9427 19.7457 37.0638 19.8165 37.1702C19.8874 37.2765 19.9817 37.3652 20.0921 37.4295L20.8796 38.2169C22.1046 39.4419 23.3296 40.667 24.6421 41.8919C25.8656 43.0489 27.251 44.0216 28.7546 44.7794C29.5433 45.2888 30.4687 45.545 31.407 45.5137C32.3453 45.4824 33.2517 45.1652 34.0046 44.6045C35.0546 43.9044 36.0171 43.2044 37.0671 42.417C40.4967 39.4084 43.7402 36.1942 46.7796 32.7919Z" fill="#F35431"/>
<path d="M44.1545 28.5919C44.2014 28.4834 44.2249 28.3662 44.2234 28.248C44.222 28.1298 44.1956 28.0133 44.1461 27.9059C44.0966 27.7986 44.0249 27.7029 43.9359 27.6251C43.8469 27.5473 43.7425 27.4892 43.6295 27.4544C42.1459 26.8281 40.8059 25.905 39.692 24.7419C38.2029 23.1726 36.856 21.4743 35.667 19.667L35.492 19.4044C35.0545 18.7919 34.617 18.0919 34.1795 17.4795C32.9545 15.7295 31.7295 13.8919 30.3295 12.1419C29.2182 10.6654 27.7769 9.4691 26.1209 8.64869C24.465 7.82829 22.6401 7.40648 20.792 7.41695C17.8635 7.30866 15.0079 8.34423 12.8295 10.3044C9.50451 13.3669 8.27951 17.3919 9.32951 22.3794C9.666 23.8152 10.1958 25.1987 10.9045 26.4919C11.0323 26.7085 11.2129 26.8892 11.4295 27.0169C11.6045 27.1044 11.7795 27.0169 12.042 26.9294C12.1443 26.8704 12.233 26.7906 12.3025 26.6951C12.372 26.5997 12.4207 26.4907 12.4454 26.3753C12.4701 26.2598 12.4704 26.1405 12.4461 26.0249C12.4218 25.9094 12.3736 25.8002 12.3045 25.7044C12.3045 25.6169 12.217 25.5294 12.217 25.4419C12.217 25.3544 12.1295 25.2669 12.1295 25.1794C11.2046 23.517 10.6944 21.6561 10.642 19.7544C10.5545 15.6419 12.1295 12.5794 15.367 10.5669C16.9675 9.57139 18.8198 9.05519 20.7045 9.07945C22.3446 9.09306 23.9603 9.47802 25.4302 10.2054C26.9002 10.9329 28.1863 11.9838 29.192 13.2794C30.592 15.0294 31.9045 16.9544 33.1295 18.792C33.6545 19.5794 34.1795 20.2794 34.7045 21.0669C36.0444 23.1715 37.6633 25.0847 39.517 26.7544C40.5724 27.7144 41.7862 28.4841 43.1045 29.0294C43.2016 29.0743 43.3069 29.0986 43.4138 29.1006C43.5207 29.1026 43.6269 29.0825 43.7256 29.0413C43.8243 29.0002 43.9134 28.939 43.9872 28.8617C44.0611 28.7843 44.118 28.6925 44.1545 28.5919Z" fill="#F35431"/>
<path d="M28.317 24.6544L28.093 24.5066L28.142 24.3919L28.842 22.9044C28.9831 22.6997 29.0753 22.4654 29.1115 22.2194C29.1477 21.9734 29.127 21.7224 29.0509 21.4857C28.9748 21.249 28.8454 21.033 28.6727 20.8542C28.4999 20.6754 28.2885 20.5386 28.0545 20.4544C27.442 20.1919 26.917 19.8419 26.3045 19.5794L25.7795 19.3169L26.042 18.7919C26.1947 18.547 26.3125 18.2819 26.392 18.0044C26.4544 17.9094 26.4951 17.8018 26.5111 17.6892C26.5271 17.5767 26.5181 17.462 26.4847 17.3533C26.4512 17.2447 26.3942 17.1448 26.3177 17.0607C26.2412 16.9766 26.147 16.9104 26.042 16.8669C25.0795 16.3419 24.117 15.9044 23.242 15.4669C22.9795 15.3794 22.8045 15.2919 22.6295 15.3794C22.4201 15.4898 22.2628 15.6785 22.192 15.9044C22.0393 16.1494 21.9216 16.4145 21.842 16.6919L21.667 17.1294H21.4045L20.7045 16.7794C20.1795 16.5169 19.742 16.2544 19.217 15.9919C19.0351 15.8819 18.8328 15.8097 18.6224 15.7796C18.4119 15.7495 18.1975 15.7622 17.992 15.8169C17.5743 15.9799 17.2315 16.2916 17.0295 16.6919C16.8545 17.0419 16.6795 17.4794 16.5045 17.9169L16.242 18.4419L16.067 18.3544C15.9795 18.3544 15.9795 18.2669 15.892 18.2669C15.7019 18.1378 15.4843 18.0547 15.2564 18.0243C15.0286 17.9939 14.7968 18.0171 14.5795 18.0919C14.1354 18.3049 13.7906 18.681 13.617 19.1419L13.3545 19.6669L12.8295 20.7169C12.718 20.9034 12.6475 21.1115 12.6226 21.3274C12.5978 21.5432 12.6192 21.7619 12.6854 21.9688C12.7516 22.1757 12.8612 22.3662 13.0067 22.5275C13.1522 22.6889 13.3305 22.8173 13.5295 22.9044C14.0545 23.1669 14.492 23.4294 15.017 23.6919C15.2588 23.7908 15.4928 23.9078 15.717 24.0419C16.1655 24.31 16.6335 24.544 17.117 24.7419L17.817 25.0919L17.7295 25.1794L12.3045 36.4669L12.042 36.3794C11.867 36.2919 11.7795 36.2044 11.6045 36.2044C11.2078 36.0346 10.8271 35.8296 10.467 35.5919C9.67952 35.1544 8.80452 34.7169 7.92952 34.2794C7.70505 34.1901 7.46962 34.1313 7.22952 34.1044C6.97059 34.1011 6.71639 34.1739 6.49857 34.3139C6.28075 34.454 6.10894 34.655 6.00452 34.8919C5.64772 35.5749 5.32646 36.2758 5.04202 36.9919C4.95428 37.1698 4.9028 37.3633 4.89055 37.5612C4.8783 37.7591 4.90554 37.9575 4.97069 38.1447C5.03583 38.332 5.13757 38.5045 5.26999 38.6521C5.40241 38.7997 5.56287 38.9194 5.74202 39.0044C5.82952 39.0919 5.91702 39.0919 6.09202 39.1794L6.35452 39.3544L6.09202 39.8794C5.91702 40.2294 5.74202 40.5794 5.56702 41.0169C5.44577 41.213 5.3697 41.4336 5.34433 41.6627C5.31895 41.8918 5.34491 42.1237 5.42031 42.3415C5.49571 42.5594 5.61867 42.7577 5.78026 42.9221C5.94185 43.0865 6.13802 43.2128 6.35452 43.2919C6.96702 43.6419 7.57952 43.9044 8.19202 44.2544L8.71702 44.5169L8.19202 45.7419C7.84202 46.4419 8.01702 46.7919 8.62952 47.0544C9.50452 47.4919 10.3795 47.9294 11.342 48.4544C11.867 48.7169 12.217 48.6294 12.4795 48.1044C12.6322 47.8595 12.75 47.5944 12.8295 47.3169C12.917 47.2294 12.917 47.0544 13.0045 46.9669V46.8794H13.1795C13.442 47.0544 13.792 47.1419 14.0545 47.3169C14.492 47.5794 14.9295 47.7544 15.367 48.0169C15.7485 48.1971 16.1754 48.2581 16.592 48.1919C16.7938 48.1205 16.9771 48.0048 17.1285 47.8534C17.2799 47.702 17.3955 47.5187 17.467 47.3169L17.992 46.2669L18.342 45.5669L18.6045 45.7419C18.692 45.8294 18.867 45.8294 18.9545 45.9169C19.2957 46.0616 19.6773 46.0793 20.0304 45.967C20.3835 45.8546 20.6847 45.6196 20.8795 45.3044C21.2295 44.6044 21.5795 43.9044 21.9295 43.2044C22.0861 42.8423 22.1011 42.4345 21.9715 42.0619C21.8419 41.6892 21.5771 41.3787 21.2295 41.1919C20.8795 41.0169 20.442 40.7544 20.092 40.5794L19.567 40.3169L16.8545 38.9169L16.942 38.8294L22.367 27.5419L22.4545 27.6294C22.892 27.8919 23.3295 28.0669 23.767 28.3294C24.7295 28.8544 25.692 29.2919 26.6545 29.8169C26.8349 29.925 27.0364 29.9929 27.2454 30.0158C27.4545 30.0387 27.6659 30.0161 27.8654 29.9496C28.0649 29.8831 28.2476 29.7743 28.4011 29.6306C28.7545 29.1169 28.4011 29.6306 28.7545 29.1169C28.7938 29.0599 28.9372 28.8613 29.2795 28.1544L29.5264 27.6294C30.2341 25.7988 29.542 25.3544 28.317 24.6544ZM23.1545 17.2169L24.817 18.0919L24.467 18.7044L22.8045 17.8294L23.1545 17.2169ZM11.0795 46.7044L9.41702 45.8294L9.76702 45.1294L11.4295 46.0044L11.0795 46.7044ZM20.267 42.4169L19.3045 44.4294L18.4295 43.9919C17.7295 43.6419 17.117 43.2919 16.417 42.9419C16.2699 42.847 16.0951 42.804 15.9207 42.8198C15.7462 42.8357 15.5821 42.9095 15.4545 43.0294C15.3643 43.0999 15.2988 43.1972 15.2673 43.3072C15.2359 43.4173 15.2402 43.5345 15.2795 43.6419C15.2795 43.9044 15.4545 44.0794 15.717 44.2544C15.9412 44.3885 16.1752 44.5055 16.417 44.6044C16.5045 44.6919 16.6795 44.6919 16.767 44.7794L16.8545 44.8669L15.9795 46.7044L6.61702 41.8919L7.49202 40.0544L7.75452 40.1419C7.84202 40.2294 8.01702 40.2294 8.10452 40.3169L9.67952 41.1044C10.817 41.7169 11.9545 42.2419 13.092 42.8544C13.1704 42.9172 13.2612 42.9628 13.3584 42.9882C13.4556 43.0135 13.557 43.0181 13.6561 43.0016C13.7552 42.985 13.8497 42.9478 13.9334 42.8923C14.0171 42.8368 14.0882 42.7643 14.142 42.6794C14.1983 42.589 14.2351 42.4878 14.2501 42.3824C14.2652 42.2769 14.2582 42.1695 14.2295 42.0669C14.1588 41.841 14.0015 41.6523 13.792 41.5419C12.917 41.1044 12.1295 40.6669 11.2545 40.2294L6.35452 37.6919L7.31702 35.6794L20.267 42.4169ZM20.1795 27.6294L15.192 38.0419L13.5295 37.1669L18.9545 25.7044L20.617 26.5794L20.1795 27.6294ZM27.0045 28.2419L13.8795 21.5044L14.842 19.4919L15.1045 19.6669C15.192 19.7544 15.367 19.7544 15.4545 19.8419L17.117 20.7169C18.7795 21.5919 20.5295 22.4669 22.192 23.3419C22.3779 23.4516 22.5888 23.5118 22.8045 23.5169C23.1545 23.5169 23.3295 23.3419 23.417 22.9044C23.4574 22.7305 23.4358 22.5479 23.3559 22.3881C23.276 22.2284 23.1429 22.1015 22.9795 22.0294C22.017 21.5044 21.0545 21.0669 20.092 20.5419L18.867 19.9294C18.4295 19.7544 18.0795 19.4919 17.642 19.3169L17.292 19.1419L18.167 17.3044L27.5295 22.1169L26.6545 23.9544L26.217 23.7794L25.692 23.5169C25.6053 23.4443 25.5029 23.3927 25.3928 23.3663C25.2828 23.3399 25.1681 23.3394 25.0579 23.3649C24.9476 23.3903 24.8448 23.441 24.7574 23.5129C24.6701 23.5849 24.6006 23.6761 24.5545 23.7794C24.5096 23.8765 24.4854 23.9818 24.4833 24.0887C24.4813 24.1957 24.5015 24.3018 24.5426 24.4006C24.5837 24.4993 24.6449 24.5884 24.7223 24.6622C24.7996 24.736 24.8915 24.793 24.992 24.8294C25.517 25.0919 25.9545 25.3544 26.4795 25.6169L27.267 26.0544C27.3545 26.1419 27.442 26.1419 27.5295 26.2294L27.792 26.4044L27.0045 28.2419Z" fill="#F35431"/>
</svg>
