<svg width="57" height="57" viewBox="0 0 57 57" fill="none" xmlns="http://www.w3.org/2000/svg">
<path d="M31.1245 9.61206C13.9745 10.6621 10.562 23.4662 10.9995 29.7371H49.4995C50.5204 22.5912 43.812 10.9246 31.1245 9.61206Z" fill="#FFF8F7"/>
<path d="M29.3412 12.2371C25.6035 12.4083 22.0305 13.8252 19.1912 16.2621C19.0314 16.4029 18.9328 16.6006 18.9165 16.813C18.9001 17.0255 18.9673 17.2359 19.1037 17.3996C19.2381 17.5395 19.4189 17.6256 19.6122 17.6417C19.8055 17.6578 19.998 17.6028 20.1537 17.4871C22.7445 15.2545 26.0119 13.9599 29.4287 13.8121C29.5278 13.8105 29.6254 13.7884 29.7155 13.7472C29.8056 13.7059 29.8861 13.6463 29.9519 13.5723C30.0177 13.4982 30.0674 13.4113 30.0979 13.317C30.1283 13.2227 30.1388 13.1231 30.1287 13.0246C30.1287 12.4996 29.7787 12.1496 29.3412 12.2371Z" fill="#F35431"/>
<path d="M18.1406 18.3621C17.977 18.2257 17.7665 18.1585 17.5541 18.1748C17.3417 18.1912 17.144 18.2897 17.0031 18.4496L16.4781 19.0621C16.4153 19.1405 16.3698 19.2312 16.3444 19.3284C16.3191 19.4256 16.3145 19.5271 16.331 19.6262C16.3475 19.7253 16.3847 19.8197 16.4403 19.9035C16.4958 19.9872 16.5683 20.0583 16.6531 20.1121C16.7322 20.1731 16.8231 20.2171 16.92 20.2414C17.0169 20.2657 17.1177 20.2698 17.2163 20.2534C17.3148 20.237 17.4089 20.2004 17.4927 20.146C17.5764 20.0915 17.6481 20.0204 17.7031 19.9371C17.8773 19.7547 18.0246 19.5484 18.1406 19.3246C18.4906 19.1496 18.4031 18.6246 18.1406 18.3621Z" fill="#F35431"/>
<path d="M52.4406 29.1246H50.2531C50.2739 23.9598 48.2624 18.994 44.6531 15.2996C42.9065 13.4367 40.8094 11.9368 38.4821 10.8858C36.1548 9.83476 33.643 9.25324 31.0906 9.17457V6.81207H31.7906C31.9995 6.81207 32.1998 6.7291 32.3475 6.58141C32.4952 6.43373 32.5781 6.23343 32.5781 6.02457C32.5781 5.81571 32.4952 5.61541 32.3475 5.46772C32.1998 5.32004 31.9995 5.23707 31.7906 5.23707H28.7281C28.6246 5.23663 28.522 5.25671 28.4262 5.29613C28.3305 5.33555 28.2435 5.39354 28.1703 5.46675C28.0971 5.53997 28.0391 5.62695 27.9997 5.72269C27.9603 5.81843 27.9402 5.92103 27.9406 6.02457C27.9402 6.12811 27.9603 6.2307 27.9997 6.32644C28.0391 6.42218 28.0971 6.50917 28.1703 6.58238C28.2435 6.65559 28.3305 6.71358 28.4262 6.75301C28.522 6.79243 28.6246 6.8125 28.7281 6.81207H29.5156V9.08707C24.3484 9.30232 19.4616 11.4951 15.8656 15.2121C12.2704 18.9157 10.2614 23.8754 10.2656 29.0371H8.07812C7.46562 29.0371 7.20312 29.3871 7.20312 29.9996V30.5246C7.35942 31.861 8.01357 33.0896 9.03522 33.9653C10.0569 34.8409 11.371 35.2995 12.7156 35.2496H18.0531C17.5281 35.6871 17.1781 35.9496 16.7406 36.2996C16.5814 36.4584 16.389 36.58 16.1772 36.6556C15.9654 36.7312 15.7394 36.7591 15.5156 36.7371C13.1531 36.6496 10.8781 36.6496 8.51562 36.7371H7.72812V51.3496H15.2531C15.3925 51.3551 15.5315 51.3317 15.6614 51.2808C15.7912 51.23 15.9092 51.1529 16.0078 51.0543C16.1064 50.9556 16.1836 50.8377 16.2344 50.7078C16.2852 50.5779 16.3086 50.4389 16.3031 50.2996V48.2871H34.3281C35.7224 48.294 37.0784 47.8317 38.1781 46.9746C41.3281 44.3496 44.4781 41.8121 47.6281 39.1871C48.1242 38.7702 48.4699 38.2021 48.6122 37.5699C48.7544 36.9377 48.6854 36.2763 48.4156 35.6871C48.3281 35.5996 48.3281 35.4246 48.2406 35.2496C48.4156 35.2496 48.5906 35.1621 48.7656 35.1621C49.9975 34.9461 51.1192 34.3172 51.9462 33.379C52.7732 32.4407 53.2561 31.2488 53.3156 29.9996C53.2281 29.3871 52.9656 29.1246 52.4406 29.1246ZM14.7281 49.8621H9.12813V38.3121H14.7281V49.8621ZM19.9781 13.8121C26.7156 9.43707 33.7156 9.43707 40.3656 13.8121C45.7906 17.3121 48.4156 22.5621 48.6781 29.0371H11.6656C11.9281 22.5621 14.5531 17.3121 19.9781 13.8121ZM46.5781 38.0496C45.2656 39.1871 43.8656 40.3246 42.5531 41.3746C40.8906 42.7746 39.1406 44.0871 37.5656 45.5746C36.6595 46.3328 35.5093 46.7369 34.3281 46.7121H16.5656V39.0121C16.5587 38.8751 16.5873 38.7387 16.6486 38.6161C16.71 38.4934 16.8019 38.3887 16.9156 38.3121C17.8781 37.5246 18.9281 36.6496 19.8906 35.8621C20.3995 35.4161 21.0515 35.1677 21.7281 35.1621H31.3531C31.725 35.1984 32.0839 35.318 32.4031 35.5121C32.5706 35.6429 32.6881 35.8272 32.7359 36.0343C32.7837 36.2414 32.7589 36.4586 32.6656 36.6496C32.5982 36.852 32.4691 37.0283 32.2966 37.1538C32.124 37.2793 31.9165 37.3478 31.7031 37.3496H28.8156C27.998 37.335 27.1801 37.3642 26.3656 37.4371C25.8035 37.4885 25.2822 37.7526 24.9082 38.1754C24.5341 38.5982 24.3356 39.1478 24.3531 39.7121C24.3638 40.2685 24.5722 40.8029 24.9409 41.2197C25.3097 41.6366 25.8147 41.9086 26.3656 41.9871H35.4656C35.8739 42.0061 36.2762 41.8824 36.6031 41.6371C39.3156 39.6246 42.1156 37.6996 44.9156 35.7746C45.2671 35.5022 45.6962 35.3489 46.1406 35.3371C46.4252 35.3289 46.7035 35.4207 46.9274 35.5966C47.1512 35.7724 47.3063 36.0212 47.3656 36.2996C47.3429 36.9636 47.0601 37.5921 46.5781 38.0496ZM33.8906 35.5121C33.8965 35.4646 33.8917 35.4163 33.8766 35.3709C33.8614 35.3255 33.8363 35.284 33.8031 35.2496H42.8156C42.6925 35.3921 42.5442 35.5107 42.3781 35.5996C40.1031 37.1746 37.9156 38.8371 35.6406 40.4121C35.4504 40.5874 35.1992 40.6815 34.9406 40.6746H26.6281C26.4486 40.6884 26.2684 40.6584 26.1031 40.5871C25.9439 40.5428 25.8011 40.4529 25.6923 40.3286C25.5835 40.2042 25.5134 40.0507 25.4906 39.8871C25.4793 39.7998 25.4866 39.7112 25.5122 39.627C25.5377 39.5428 25.5809 39.465 25.6389 39.3988C25.6968 39.3326 25.7682 39.2795 25.8482 39.243C25.9282 39.2065 26.0151 39.1874 26.1031 39.1871H31.4406C31.8613 39.1459 32.2675 39.0118 32.63 38.7944C32.9924 38.577 33.3021 38.2818 33.5365 37.9302C33.771 37.5785 33.9244 37.1791 33.9856 36.761C34.0468 36.3428 34.0144 35.9162 33.8906 35.5121H33.8906ZM48.5031 33.6746C48.1531 33.6746 47.7156 33.7621 47.3656 33.7621H12.8031C12.1308 33.7954 11.4615 33.6512 10.8625 33.3441C10.2635 33.0369 9.7559 32.5775 9.39062 32.0121C9.13448 31.6008 8.92883 31.1601 8.77812 30.6996H51.6531C51.4765 31.4491 51.0839 32.1304 50.524 32.6592C49.9642 33.188 49.2616 33.541 48.5031 33.6746Z" fill="#F35431"/>
</svg>
