<svg width="57" height="57" viewBox="0 0 57 57" fill="none" xmlns="http://www.w3.org/2000/svg">
<path d="M10.125 20.9871H18V24.9246L18.875 27.5496L23.25 30.1746L29.375 31.0496L35.9375 29.7371L38.5625 26.2371L39.4375 20.9871H46.875V43.7371H10.125V20.9871Z" fill="#FFF8F7"/>
<path d="M53.1453 46.2732C53.0442 46.1869 52.9267 46.1219 52.7998 46.0821C52.673 46.0423 52.5394 46.0285 52.4071 46.0416C52.2584 46.0391 52.1106 46.0382 51.9602 46.0382C51.7508 46.0382 51.5372 46.0373 51.3167 46.04L51.3176 39.0553C51.3176 32.7774 51.317 26.4989 51.3159 20.2198C51.3404 19.713 51.2635 19.2065 51.0896 18.7299C50.9157 18.2533 50.6484 17.8162 50.3033 17.4444C49.93 17.0998 49.492 16.8327 49.0147 16.6588C48.5374 16.485 48.0302 16.4076 47.5228 16.4314C47.228 16.4309 46.9357 16.4309 46.6375 16.4314H46.2018C46.7239 14.3994 46.2334 13.2809 44.3962 12.3101C43.1623 11.6581 41.9105 10.9929 40.6997 10.3491C39.8794 9.91326 39.0593 9.47776 38.2396 9.04254C37.5475 8.67596 36.8425 8.30596 36.1606 7.94791L36.1709 7.93937L36.1486 7.92741C35.6812 7.6749 31.4079 5.42246 30.8739 5.14561C30.1316 4.73821 29.297 4.52858 28.4503 4.53689C27.6036 4.54519 26.7733 4.77115 26.0391 5.19304C24.6506 5.93345 23.2364 6.68242 21.8684 7.40616C21.2207 7.74925 20.5727 8.09247 19.9244 8.43583C19.1554 8.84342 18.386 9.2513 17.6164 9.65946C15.8638 10.5887 14.0523 11.5496 12.2682 12.4925C11.7929 12.7125 11.3863 13.0573 11.0917 13.4901C10.797 13.923 10.6254 14.4277 10.5951 14.9505C10.5852 15.295 10.6141 15.6395 10.6813 15.9776L10.6847 15.9964C10.6951 16.1739 10.741 16.3475 10.8197 16.507C9.90288 16.5155 8.50408 16.545 8.26225 16.5736C7.488 16.775 6.80804 17.2397 6.33916 17.8879C5.87027 18.5361 5.64174 19.3274 5.6928 20.1257C5.69023 26.1281 5.69105 32.2314 5.69105 38.1333L5.69192 45.9596C5.66202 45.9741 5.6398 45.9869 5.62185 45.9972C5.60461 46.0086 5.58553 46.017 5.56546 46.022C5.41336 46.0254 5.26126 46.028 5.10831 46.0297C4.92543 46.0331 4.73575 46.0357 4.54861 46.0416C3.93338 46.0587 3.6796 46.3125 3.67274 46.9184C3.6642 47.5473 3.66505 48.0557 3.67616 48.518C3.68537 49.3175 3.91065 50.0997 4.32814 50.7816C4.78121 51.544 5.4358 52.1666 6.21989 52.5811C7.00398 52.9955 7.88719 53.1856 8.77235 53.1306H8.77919C18.3435 53.1203 28.0685 53.122 37.4704 53.1229C41.0567 53.122 44.6433 53.122 48.2302 53.1229C48.4182 53.1229 48.625 53.1177 48.8608 53.1058C49.8487 53.0681 50.7981 52.7123 51.5673 52.0913C52.3366 51.4703 52.8847 50.6174 53.1299 49.6596C53.2641 48.977 53.3263 48.2822 53.3153 47.5866C53.3187 47.3824 53.323 47.1713 53.3307 46.9654C53.3486 46.8434 53.3414 46.7192 53.3095 46.6001C53.2776 46.4811 53.2218 46.3699 53.1453 46.2732ZM16.9713 42.6459C16.8593 42.6459 16.7465 42.645 16.6329 42.651C14.7812 42.6493 11.4718 42.6459 11.1377 42.6459H10.6045V21.3464H17.0439C17.0439 21.4053 17.0439 21.4639 17.043 21.522C17.0413 21.6668 17.0405 21.8035 17.0464 21.9424C17.0601 22.3047 17.061 22.676 17.0618 23.0353C17.0373 23.849 17.0911 24.6633 17.2225 25.4667C17.4492 26.7149 18.0406 27.868 18.9221 28.7805C19.8326 29.6665 20.9396 30.3248 22.1529 30.7018C23.9899 31.3311 25.9087 31.6904 27.849 31.7682C28.0694 31.7759 28.289 31.7793 28.5095 31.7793C30.2292 31.7757 31.9409 31.5439 33.5997 31.0897C33.6817 31.0666 33.7629 31.0487 33.8979 31.0188C33.956 31.0051 34.0244 30.9906 34.1064 30.9718C34.0662 31.1179 34.0338 31.2589 34.003 31.3948C33.9508 31.674 33.8662 31.9461 33.7509 32.2057C33.5288 32.6509 33.2698 33.0875 33.0195 33.5096C32.8811 33.7429 32.7384 33.9848 32.6025 34.2249C32.3725 34.5702 32.2436 34.9729 32.2306 35.3876C32.2175 35.8023 32.3208 36.2124 32.5286 36.5715C32.7365 36.9306 33.0407 37.2243 33.4068 37.4196C33.7729 37.6148 34.1863 37.7036 34.6003 37.6761C34.6157 37.677 34.6302 37.677 34.6456 37.677C35.9692 37.677 36.7579 37.2258 37.1236 36.2594C37.2484 35.948 37.2995 35.612 37.273 35.2776C37.2465 34.9432 37.143 34.6195 36.9707 34.3317C36.8656 34.1471 36.7611 33.9623 36.6571 33.7771C36.3555 33.2388 36.0427 32.6825 35.7069 32.1527C35.5163 31.7938 35.4473 31.3827 35.5104 30.9812C35.5181 30.8428 35.5257 30.7009 35.5215 30.5608C35.5197 30.5053 35.6514 30.407 35.7752 30.3497C37.0698 29.791 38.171 28.8631 38.9411 27.682C39.6569 26.4693 40.0118 25.0775 39.964 23.6701C39.9614 23.1378 39.9622 22.6166 39.9631 22.0645V21.3463H46.394V42.6459H45.8053C36.2264 42.6459 26.6473 42.6462 17.0679 42.6467L16.9713 42.6459ZM33.0468 24.0662C33.3562 23.903 33.6706 23.7381 33.9893 23.5689C33.9928 23.6244 33.9962 23.674 33.9987 23.7193C34.0056 23.818 34.0107 23.8957 34.0107 23.9739C34.0107 24.4404 34.0104 24.9071 34.0098 25.374C34.009 26.5673 34.0073 27.8007 34.0184 29.0141C34.0293 29.0734 34.028 29.1343 34.0144 29.193C34.0009 29.2517 33.9754 29.307 33.9396 29.3555C33.9038 29.404 33.8584 29.4446 33.8062 29.4748C33.7541 29.505 33.6963 29.5241 33.6364 29.5311C29.7307 30.7396 25.5233 30.5263 21.7598 28.9291C20.8072 28.5527 19.9906 27.8973 19.4169 27.0487C18.8433 26.2002 18.5394 25.1981 18.5452 24.1738C18.5145 23.5078 18.5222 22.8472 18.5307 22.1474C18.5341 21.8381 18.5375 21.5185 18.5375 21.1946C18.9272 21.4002 19.3103 21.602 19.6868 21.8001C20.4525 22.2029 21.1754 22.5841 21.9077 22.9724C22.2204 23.1382 22.5334 23.3037 22.8467 23.4689C23.8704 24.0102 24.9291 24.5703 25.9648 25.133C26.7352 25.5711 27.6029 25.8098 28.489 25.8273H28.5078C29.3877 25.8146 30.2502 25.5804 31.0157 25.1462C31.6822 24.784 32.3453 24.4354 33.0468 24.0662ZM27.7976 30.3034C27.6848 30.299 27.572 30.2929 27.4593 30.2863C27.572 30.2929 27.6847 30.299 27.7976 30.3034ZM26.241 30.1736C26.1549 30.1622 26.0689 30.1468 25.9828 30.1341C26.0689 30.1468 26.1547 30.1622 26.241 30.1736H26.241ZM38.4993 22.5273C38.4852 23.512 38.4004 24.4945 38.2456 25.4672C38.0868 26.1997 37.7582 26.8848 37.2862 27.4671C36.8143 28.0494 36.2121 28.5128 35.5283 28.8198C35.5249 28.7711 35.5215 28.727 35.5172 28.6856C35.5095 28.5946 35.5027 28.5156 35.5027 28.4387C35.5027 27.8973 35.5029 27.3561 35.5035 26.8151C35.5044 25.6175 35.5053 24.379 35.495 23.1613C35.4789 23.0406 35.5038 22.918 35.5656 22.813C35.6274 22.7081 35.7226 22.6269 35.8359 22.5824C36.4614 22.2688 37.0895 21.9338 37.7543 21.5788C38.0149 21.4399 38.2841 21.2964 38.5652 21.1477C38.5352 21.6177 38.5164 22.0799 38.4993 22.5273ZM35.6932 35.8142C35.6261 35.924 35.5325 36.0152 35.421 36.0794C35.3094 36.1436 35.1836 36.1788 35.0549 36.1816C34.8622 36.1931 34.6691 36.1933 34.4764 36.1825C34.3453 36.1815 34.2166 36.1472 34.1022 36.083C33.9879 36.0187 33.8918 35.9266 33.8227 35.8151C33.7636 35.7 33.7345 35.5717 33.7382 35.4423C33.742 35.313 33.7784 35.1866 33.8441 35.0751C34.0329 34.7145 34.2406 34.3599 34.461 33.9848C34.5576 33.8198 34.6567 33.6498 34.7592 33.4721C34.8626 33.6532 34.9652 33.8284 35.0643 33.9976C35.2865 34.3761 35.4958 34.735 35.6838 35.1033C35.7447 35.2115 35.7775 35.3333 35.7791 35.4575C35.7808 35.5817 35.7512 35.7044 35.6932 35.8142ZM35.7813 35.6048C35.7752 35.6416 35.766 35.6778 35.7539 35.7131C35.7659 35.6778 35.7751 35.6416 35.7813 35.6048V35.6048ZM35.6334 35.9214C35.6068 35.9533 35.5772 35.9827 35.5453 36.0093C35.5771 35.9826 35.6066 35.9532 35.6334 35.9214ZM35.3128 36.1414C35.2788 36.1536 35.244 36.1637 35.2087 36.1717C35.244 36.1636 35.2788 36.1535 35.3128 36.1414ZM33.9761 36.0131C33.941 35.9847 33.9088 35.9529 33.8799 35.9181C33.9088 35.9528 33.9411 35.9846 33.9761 36.0131ZM34.319 36.1733C34.2816 36.1654 34.2449 36.1551 34.2088 36.1426C34.2449 36.1551 34.2817 36.1654 34.319 36.1733ZM35.7552 35.2449C35.765 35.2754 35.773 35.3065 35.7793 35.3379C35.773 35.3065 35.7649 35.2754 35.7552 35.2449ZM28.7779 24.3453C28.841 24.3398 28.9038 24.3309 28.9666 24.3217C28.9037 24.3309 28.8409 24.3398 28.7779 24.3453ZM29.5741 24.1731C29.6335 24.1526 29.6927 24.1297 29.7519 24.1057C29.6927 24.1297 29.6334 24.1526 29.5741 24.1731V24.1731ZM43.9647 16.5971C42.771 17.217 41.5636 17.8587 40.3955 18.4795C39.9734 18.7039 39.5509 18.9281 39.1283 19.1524C38.0567 19.7202 36.9835 20.2896 35.9085 20.8605L34.9455 21.3715C34.9028 21.3254 34.8618 21.2823 34.8225 21.2404C34.7464 21.1601 34.6755 21.084 34.6071 21.0071C32.8281 18.9785 31.0496 16.9497 29.2717 14.9206C29.2529 14.8988 29.2341 14.877 29.2162 14.8552C29.1726 14.8039 29.1273 14.7505 29.0777 14.7027C28.9452 14.5522 28.7587 14.4602 28.5587 14.4465C28.3587 14.4328 28.1614 14.4986 28.0096 14.6296C27.9351 14.696 27.8748 14.7769 27.8326 14.8673C27.7903 14.9578 27.7669 15.0559 27.7638 15.1557C27.7607 15.2554 27.7779 15.3548 27.8144 15.4477C27.851 15.5406 27.906 15.6251 27.9763 15.696C28.5932 16.4159 29.229 17.1397 29.8442 17.8399C30.0604 18.0869 30.2771 18.334 30.4945 18.5812C31.5096 19.7408 32.5256 20.9003 33.5766 22.0992C33.2109 22.2918 32.8497 22.4837 32.4931 22.6747C31.6549 23.1207 30.8636 23.5424 30.0484 23.956C29.5561 24.2186 29.0053 24.352 28.4474 24.3437C27.8895 24.3354 27.3429 24.1857 26.8586 23.9085C24.5404 22.6828 22.1845 21.4348 19.9073 20.2278C17.6292 19.0208 15.2734 17.7729 12.956 16.5471C12.6908 16.43 12.4655 16.2383 12.3074 15.9953C12.1493 15.7524 12.0653 15.4687 12.0656 15.1788C12.066 14.8889 12.1507 14.6054 12.3094 14.3628C12.4681 14.1203 12.694 13.9291 12.9594 13.8127C15.4546 12.4921 17.9916 11.1476 20.4448 9.84701C22.5682 8.7208 24.6925 7.59515 26.8176 6.47006C27.3331 6.18632 27.9108 6.03455 28.4992 6.02829C29.0894 6.03533 29.6689 6.18608 30.1877 6.4675C30.5158 6.6384 33.2724 8.09018 34.5952 8.78702C34.6778 8.84047 34.7634 8.88912 34.8516 8.93271L34.902 8.9592C37.3723 10.273 40.6356 12.0063 43.9689 13.7636C44.2532 13.8776 44.4972 14.0731 44.6705 14.3257C44.8437 14.5782 44.9382 14.8763 44.9422 15.1825C44.9393 15.489 44.8446 15.7875 44.6703 16.0397C44.4961 16.2918 44.2503 16.486 43.9647 16.5971V16.5971ZM14.0976 18.7726C14.1771 18.8175 14.2104 18.8376 14.2608 18.8683C14.33 18.9111 14.4343 18.9747 14.7402 19.152C14.7701 19.1725 14.8009 19.1913 14.8316 19.2106C14.8547 19.2251 14.8778 19.2396 14.9008 19.2546C15.0324 19.34 15.1187 19.3939 15.1991 19.4443C15.3349 19.5297 15.4537 19.6041 15.7519 19.804C15.7194 19.8057 15.6878 19.8079 15.6554 19.81C15.5503 19.8168 15.4409 19.8241 15.3332 19.8241C13.6037 19.8262 11.8751 19.8268 10.1473 19.8258C9.30306 19.8267 9.08517 20.0395 9.08517 20.8606C9.08431 28.2776 9.08431 35.6946 9.08517 43.1116C9.08517 43.914 9.30479 44.1344 10.1088 44.137C10.8702 44.1421 16.6739 44.1379 17.7625 44.1379C27.4593 44.1379 37.1549 44.1376 46.8494 44.137C47.7133 44.137 47.9235 43.9268 47.9235 43.0638C47.9244 35.6784 47.9244 28.2934 47.9235 20.9089C47.9235 20.0395 47.715 19.8267 46.8597 19.8258C45.6626 19.8246 44.464 19.8244 43.264 19.8254H41.2303C41.2235 19.7968 41.2158 19.7682 41.2098 19.74L41.9028 19.3747C42.7864 18.9098 43.6998 18.4288 44.6004 17.9605C44.6795 17.9311 44.7641 17.9194 44.8482 17.9263H44.8764C45.1277 17.9255 45.3789 17.9242 45.6301 17.9225C46.335 17.9182 47.0656 17.9135 47.7843 17.9293C48.0578 17.9204 48.3302 17.9684 48.5842 18.0703C48.8382 18.1721 49.0684 18.3256 49.26 18.521C49.4517 18.7163 49.6007 18.9494 49.6976 19.2053C49.7945 19.4613 49.8372 19.7345 49.8231 20.0079C49.8265 27.4877 49.8256 35.0922 49.8248 42.4468V45.652C49.8248 45.7246 49.8189 45.7981 49.812 45.8844C49.8086 45.9255 49.8052 45.969 49.8018 46.0177H7.20614L7.19845 45.8674C7.19075 45.7417 7.18306 45.6221 7.18306 45.5033C7.18221 37.0687 7.18221 28.6335 7.18306 20.198C7.15125 19.9075 7.18199 19.6135 7.27321 19.3359C7.36443 19.0583 7.51402 18.8034 7.71193 18.5883C7.90984 18.3733 8.15149 18.2031 8.42062 18.0892C8.68976 17.9753 8.98016 17.9204 9.2723 17.928C9.34237 17.9195 9.8568 17.9238 10.5104 17.9289C11.1453 17.934 11.9323 17.9413 12.5527 17.9362C12.6535 17.9904 12.7603 18.0473 12.8723 18.1067C13.2371 18.3005 13.6516 18.5206 14.0976 18.7726ZM31.2567 48.8085C30.785 48.8273 30.3065 48.8315 29.833 48.8315C29.428 48.8315 29.0332 48.8273 28.6359 48.8281C28.3659 48.829 28.0942 48.829 27.8241 48.8315C27.1901 48.8333 26.533 48.8375 25.8904 48.8221C25.493 48.8332 25.1028 48.715 24.7785 48.4853C24.4541 48.2555 24.2131 47.9266 24.0917 47.5481H32.8871C32.7922 47.9085 32.5809 48.2275 32.2861 48.4554C31.9912 48.6833 31.6293 48.8074 31.2567 48.8085ZM22.6485 48.007C22.8339 48.6558 23.223 49.2278 23.7585 49.6383C24.2941 50.0489 24.9475 50.2762 25.6221 50.2868C27.5704 50.3662 29.5084 50.3654 31.3866 50.2859C32.0768 50.2677 32.7428 50.0275 33.2858 49.601C33.8289 49.1745 34.22 48.5844 34.4012 47.9181C34.5088 47.6147 34.6242 47.5259 34.9113 47.5259H34.9156C39.1265 47.5327 43.4076 47.5327 47.5484 47.5327H51.4355C51.5235 47.5327 51.6132 47.5413 51.6987 47.5481C51.7303 47.5507 51.7611 47.5541 51.7918 47.5558C51.8974 48.0598 51.8904 48.5809 51.7713 49.082C51.6523 49.583 51.4241 50.0515 51.1031 50.4542C50.7695 50.8364 50.3553 51.1398 49.8903 51.3427C49.4253 51.5456 48.9211 51.6428 48.414 51.6274C45.1857 51.636 41.9071 51.6343 38.7343 51.6326C35.395 51.63 32.0562 51.6294 28.718 51.6308C22.1828 51.6299 15.4298 51.6291 8.78608 51.6368H8.77242C7.8864 51.6992 7.00953 51.4245 6.31746 50.8677C5.85358 50.4595 5.50559 49.9361 5.30861 49.3504C5.11162 48.7647 5.07261 48.1374 5.19552 47.5318L8.81087 47.5327C13.1141 47.5327 17.5703 47.5336 21.9487 47.5241H21.9547C22.1105 47.498 22.2703 47.5338 22.4 47.6241C22.5297 47.7143 22.6189 47.8518 22.6485 48.007V48.007Z" fill="#F35431"/>
<path d="M28.1509 39.2809C28.0174 39.2579 27.8821 39.2482 27.7467 39.2518L27.7014 39.2527H27.6177C25.3097 39.2518 23.0023 39.2515 20.6955 39.2518H18.5165C18.0286 39.2509 17.5458 39.2501 17.0621 39.2509C15.9034 39.2509 14.708 39.2501 13.5305 39.2569C13.4276 39.2458 13.3234 39.2561 13.2246 39.2871C13.1258 39.3181 13.0345 39.3691 12.9564 39.4371C12.8782 39.505 12.815 39.5884 12.7706 39.6819C12.7261 39.7755 12.7015 39.8772 12.6982 39.9807C12.6998 40.084 12.7221 40.186 12.7638 40.2806C12.8055 40.3751 12.8657 40.4604 12.9409 40.5313C13.0161 40.6022 13.1048 40.6573 13.2016 40.6934C13.2985 40.7294 13.4016 40.7457 13.5049 40.7412C13.5476 40.7446 13.5912 40.7454 13.6348 40.7454C13.6903 40.7454 13.7424 40.7437 13.7963 40.7437L16.5648 40.7446C20.1947 40.7437 23.9493 40.7437 27.6407 40.742C27.8355 40.751 28.0306 40.7323 28.2201 40.6865C28.373 40.6376 28.5055 40.5396 28.597 40.4077C28.6884 40.2758 28.7337 40.1174 28.7258 39.957C28.7179 39.7967 28.6573 39.6435 28.5533 39.5212C28.4493 39.3989 28.3078 39.3144 28.1509 39.2808V39.2809Z" fill="#F35431"/>
<path d="M13.6377 37.6753C14.7442 37.6787 15.8687 37.677 16.9565 37.677L18.2836 37.6761L19.6251 37.677H20.9598C21.6315 37.677 22.3082 37.677 22.9782 37.6753C23.5635 37.6744 23.8942 37.4189 23.9078 36.9567C23.9147 36.8624 23.9021 36.7678 23.8706 36.6786C23.8391 36.5895 23.7895 36.5079 23.725 36.4389C23.6228 36.3491 23.5037 36.2806 23.3748 36.2373C23.2458 36.1941 23.1095 36.1769 22.9739 36.1868C19.8755 36.1834 16.7327 36.1834 13.6343 36.1868C13.0635 36.1868 12.7131 36.4568 12.6969 36.9105C12.6906 37.0025 12.7033 37.0947 12.7343 37.1815C12.7654 37.2682 12.814 37.3476 12.8772 37.4147C12.98 37.5069 13.1003 37.5775 13.231 37.6222C13.3616 37.667 13.4999 37.685 13.6377 37.6753Z" fill="#F35431"/>
</svg>
