<svg width="57" height="57" viewBox="0 0 57 57" fill="none" xmlns="http://www.w3.org/2000/svg">
<rect x="19.75" y="19.2371" width="20.125" height="19.25" fill="#FFF8F7"/>
<path d="M32.5475 24.7496H26.7725C26.427 24.758 26.0981 24.899 25.8537 25.1433C25.6094 25.3877 25.4684 25.7166 25.46 26.0621V31.8371C25.4684 32.1825 25.6094 32.5115 25.8537 32.7558C26.0981 33.0001 26.427 33.1411 26.7725 33.1496H32.5475C32.8929 33.1411 33.2219 33.0001 33.4662 32.7558C33.7105 32.5115 33.8515 32.1825 33.86 31.8371V26.0621C33.878 25.8852 33.8565 25.7066 33.797 25.5392C33.7374 25.3717 33.6413 25.2196 33.5156 25.0939C33.3899 24.9682 33.2378 24.8721 33.0704 24.8126C32.9029 24.753 32.7243 24.7315 32.5475 24.7496Z" fill="#F35431"/>
<path d="M49.0856 29.4746C49.2227 29.7735 49.4457 30.0247 49.7263 30.1961C50.0068 30.3676 50.3322 30.4515 50.6606 30.4371C51.1248 30.4371 51.5699 30.2527 51.8981 29.9245C52.2263 29.5963 52.4106 29.1512 52.4106 28.6871C52.4106 28.2229 52.2263 27.7778 51.8981 27.4496C51.5699 27.1214 51.1248 26.9371 50.6606 26.9371C50.3358 26.9408 50.0179 27.0322 49.7407 27.2016C49.4635 27.371 49.2372 27.6122 49.0856 27.8996H41.1231V23.2621H50.3981C50.4972 23.2605 50.5949 23.2384 50.685 23.1972C50.775 23.1559 50.8555 23.0963 50.9214 23.0223C50.9872 22.9482 51.0369 22.8613 51.0673 22.767C51.0978 22.6727 51.1082 22.5731 51.0981 22.4746V15.6496C51.397 15.5125 51.6483 15.2895 51.8197 15.0089C51.9912 14.7284 52.0751 14.403 52.0606 14.0746C52.0606 13.6104 51.8763 13.1653 51.5481 12.8371C51.2199 12.5089 50.7748 12.3246 50.3106 12.3246C49.8465 12.3246 49.4014 12.5089 49.0732 12.8371C48.745 13.1653 48.5606 13.6104 48.5606 14.0746C48.5644 14.3994 48.6558 14.7172 48.8252 14.9945C48.9946 15.2717 49.2358 15.498 49.5231 15.6496V21.8621H41.0356V21.2496C41.0457 20.5162 40.7825 19.8054 40.2973 19.2554C39.8121 18.7055 39.1395 18.3558 38.4106 18.2746V13.5496H41.7356C41.8727 13.8485 42.0957 14.0997 42.3763 14.2711C42.6568 14.4426 42.9822 14.5265 43.3106 14.5121C43.7748 14.5121 44.2199 14.3277 44.5481 13.9995C44.8763 13.6713 45.0606 13.2262 45.0606 12.7621C45.0606 12.2979 44.8763 11.8528 44.5481 11.5246C44.2199 11.1964 43.7748 11.0121 43.3106 11.0121C42.9858 11.0158 42.6679 11.1072 42.3907 11.2766C42.1135 11.4461 41.8872 11.6872 41.7356 11.9746H37.6231C37.5241 11.9761 37.4264 11.9982 37.3363 12.0395C37.2463 12.0807 37.1657 12.1403 37.0999 12.2143C37.0341 12.2884 36.9844 12.3753 36.954 12.4696C36.9235 12.5639 36.913 12.6635 36.9231 12.7621V18.2746H30.7106V8.91206C31.0095 8.77505 31.2608 8.552 31.4322 8.27144C31.6037 7.99087 31.6876 7.66555 31.6731 7.33706C31.6731 6.87293 31.4888 6.42781 31.1606 6.09962C30.8324 5.77144 30.3873 5.58706 29.9231 5.58706C29.459 5.58706 29.0139 5.77144 28.6857 6.09962C28.3575 6.42781 28.1731 6.87293 28.1731 7.33706C28.1769 7.66193 28.2683 7.97975 28.4377 8.25697C28.6071 8.53419 28.8483 8.76052 29.1356 8.91206V18.2746H24.7606V7.07456C24.7611 6.97102 24.741 6.86843 24.7016 6.77269C24.6621 6.67695 24.6042 6.58997 24.5309 6.51675C24.4577 6.44354 24.3707 6.38555 24.275 6.34613C24.1793 6.30671 24.0767 6.28663 23.9731 6.28706H17.4106C17.2787 5.97783 17.0594 5.7138 16.7796 5.5273C16.4999 5.3408 16.1718 5.23994 15.8356 5.23706C15.3715 5.23706 14.9264 5.42143 14.5982 5.74962C14.27 6.07781 14.0856 6.52293 14.0856 6.98706C14.0856 7.45119 14.27 7.89631 14.5982 8.2245C14.9264 8.55269 15.3715 8.73706 15.8356 8.73706C16.1527 8.75042 16.4661 8.665 16.7326 8.49258C16.999 8.32017 17.2054 8.06928 17.3231 7.77456H23.1856V18.2746H21.1731C20.6877 18.2715 20.2091 18.39 19.7812 18.6192C19.3533 18.8485 18.9895 19.1812 18.7231 19.5871H14.1731V16.6121C14.472 16.475 14.7233 16.252 14.8947 15.9714C15.0662 15.6909 15.1501 15.3655 15.1356 15.0371C15.1356 14.5729 14.9513 14.1278 14.6231 13.7996C14.2949 13.4714 13.8498 13.2871 13.3856 13.2871C12.9215 13.2871 12.4764 13.4714 12.1482 13.7996C11.82 14.1278 11.6356 14.5729 11.6356 15.0371C11.6394 15.3619 11.7308 15.6797 11.9002 15.957C12.0696 16.2342 12.3108 16.4605 12.5981 16.6121V20.3746C12.5977 20.4781 12.6178 20.5807 12.6572 20.6764C12.6966 20.7722 12.7546 20.8592 12.8278 20.9324C12.901 21.0056 12.988 21.0636 13.0838 21.103C13.1795 21.1424 13.2821 21.1625 13.3856 21.1621H18.1981V26.8496H9.01055C8.87353 26.5507 8.65048 26.2994 8.36992 26.128C8.08936 25.9565 7.76403 25.8726 7.43555 25.8871C6.97142 25.8871 6.5263 26.0714 6.19811 26.3996C5.86992 26.7278 5.68555 27.1729 5.68555 27.6371C5.68555 28.1012 5.86992 28.5463 6.19811 28.8745C6.5263 29.2027 6.97142 29.3871 7.43555 29.3871C7.76041 29.3833 8.07824 29.2919 8.35546 29.1225C8.63268 28.9531 8.85901 28.7119 9.01055 28.4246H18.198V32.7996H8.13555C7.93999 32.7947 7.74988 32.8642 7.60368 32.9942C7.45747 33.1241 7.3661 33.3048 7.34805 33.4996V39.6246C7.04915 39.7616 6.79791 39.9846 6.62645 40.2652C6.455 40.5457 6.37112 40.8711 6.38555 41.1996C6.38555 41.6637 6.56992 42.1088 6.89811 42.437C7.2263 42.7652 7.67142 42.9496 8.13555 42.9496C8.59968 42.9496 9.0448 42.7652 9.37298 42.437C9.70117 42.1088 9.88555 41.6637 9.88555 41.1996C9.88179 40.8747 9.79038 40.5569 9.62097 40.2797C9.45155 40.0024 9.21043 39.7761 8.92305 39.6246V34.1996H18.4605V36.4746C18.4504 37.2079 18.7136 37.9187 19.1989 38.4687C19.6841 39.0186 20.3567 39.3683 21.0855 39.4496V43.0371H17.2355C17.0985 42.7382 16.8755 42.4869 16.5949 42.3155C16.3144 42.144 15.989 42.0601 15.6605 42.0746C15.1964 42.0746 14.7513 42.2589 14.4231 42.5871C14.0949 42.9153 13.9105 43.3604 13.9105 43.8246C13.9105 44.2887 14.0949 44.7338 14.4231 45.062C14.7513 45.3902 15.1964 45.5746 15.6605 45.5746C15.9854 45.5708 16.3032 45.4794 16.5805 45.31C16.8577 45.1406 17.084 44.8994 17.2355 44.6121H21.873C22.0686 44.617 22.2587 44.5474 22.4049 44.4174C22.5511 44.2875 22.6425 44.1068 22.6605 43.9121V39.6246H28.6105V47.8496C28.3116 47.9866 28.0604 48.2096 27.889 48.4902C27.7175 48.7707 27.6336 49.0961 27.648 49.4246C27.648 49.8887 27.8324 50.3338 28.1606 50.662C28.4888 50.9902 28.9339 51.1746 29.398 51.1746C29.8622 51.1746 30.3073 50.9902 30.6355 50.662C30.9637 50.3338 31.148 49.8887 31.148 49.4246C31.1443 49.0997 31.0529 48.7819 30.8835 48.5047C30.7141 48.2274 30.4729 48.0011 30.1855 47.8496V39.6246H34.7355V49.1621C34.7342 49.2544 34.7514 49.346 34.7861 49.4315C34.8208 49.517 34.8724 49.5947 34.9376 49.66C35.0029 49.7253 35.0806 49.7768 35.1661 49.8115C35.2516 49.8462 35.3433 49.8634 35.4355 49.8621H41.9105C42.0476 50.161 42.2706 50.4122 42.5512 50.5837C42.8317 50.7551 43.1571 50.839 43.4855 50.8246C43.9497 50.8246 44.3948 50.6402 44.723 50.312C45.0512 49.9838 45.2355 49.5387 45.2355 49.0746C45.2355 48.6104 45.0512 48.1653 44.723 47.8371C44.3948 47.5089 43.9497 47.3246 43.4855 47.3246C43.1607 47.3283 42.8429 47.4197 42.5656 47.5891C42.2884 47.7585 42.0621 47.9997 41.9105 48.2871H36.1356V39.5371H38.1481C38.8814 39.5472 39.5922 39.284 40.1422 38.7987C40.6921 38.3135 41.0418 37.6409 41.1231 36.9121H44.7106V41.0246C44.4117 41.1616 44.1604 41.3846 43.989 41.6652C43.8175 41.9457 43.7336 42.2711 43.7481 42.5996C43.7481 43.0637 43.9324 43.5088 44.2606 43.837C44.5888 44.1652 45.0339 44.3496 45.4981 44.3496C45.9622 44.3496 46.4073 44.1652 46.7355 43.837C47.0637 43.5088 47.2481 43.0637 47.2481 42.5996C47.2443 42.2747 47.1529 41.9569 46.9835 41.6797C46.8141 41.4024 46.5729 41.1761 46.2855 41.0246V36.2121C46.2869 36.1198 46.2697 36.0281 46.235 35.9426C46.2003 35.8571 46.1487 35.7794 46.0835 35.7141C46.0182 35.6489 45.9405 35.5974 45.855 35.5626C45.7695 35.5279 45.6778 35.5107 45.5856 35.5121H41.298V29.5621H49.0856V29.4746H49.0856ZM39.5481 36.5621C39.5498 36.7579 39.5125 36.9521 39.4384 37.1333C39.3642 37.3145 39.2547 37.4792 39.1162 37.6177C38.9778 37.7561 38.8131 37.8656 38.6319 37.9398C38.4506 38.0139 38.2565 38.0513 38.0606 38.0496H21.3481C21.1523 38.0513 20.9581 38.0139 20.7769 37.9398C20.5957 37.8656 20.431 37.7561 20.2925 37.6177C20.1541 37.4792 20.0446 37.3145 19.9704 37.1333C19.8963 36.9521 19.8589 36.7579 19.8606 36.5621V21.2496C19.8589 21.0537 19.8963 20.8596 19.9704 20.6783C20.0446 20.4971 20.1541 20.3324 20.2925 20.194C20.431 20.0555 20.5957 19.946 20.7769 19.8718C20.9581 19.7977 21.1523 19.7604 21.3481 19.7621H38.0606C38.2565 19.7604 38.4506 19.7977 38.6319 19.8718C38.8131 19.946 38.9778 20.0555 39.1162 20.194C39.2547 20.3324 39.3642 20.4971 39.4384 20.6783C39.5125 20.8596 39.5498 21.0537 39.5481 21.2496V36.5621Z" fill="#F35431"/>
</svg>
