<svg width="57" height="57" viewBox="0 0 57 57" fill="none" xmlns="http://www.w3.org/2000/svg">
<path d="M33.75 20.1121L43.8125 16.6121L54.3125 20.1121V26.6746C54.0208 32.7996 53.4375 38.9246 43.375 41.5496C35.325 38.7496 33.3125 31.9246 33.3125 28.8621L33.75 20.1121Z" fill="#FFF8F7"/>
<path d="M54.259 18.8871L45.0715 15.9996C44.7172 15.8343 44.3335 15.7415 43.9428 15.7264C43.5522 15.7114 43.1625 15.7745 42.7965 15.9121H42.6215V10.2246C42.6561 9.82116 42.6036 9.41505 42.4675 9.03372C42.3315 8.65239 42.1151 8.30475 41.8329 8.01435C41.5508 7.72394 41.2096 7.49755 40.8324 7.3505C40.4552 7.20346 40.0507 7.13919 39.6465 7.16205H32.9965V6.11205C32.9965 5.23705 32.734 4.88705 31.7715 4.88705H18.1215C17.334 4.88705 16.984 5.23705 16.984 6.02455V7.16205H10.2465C9.85104 7.14401 9.45614 7.20861 9.08702 7.35173C8.71791 7.49485 8.38269 7.71335 8.10275 7.99329C7.82281 8.27323 7.60431 8.60845 7.46119 8.97756C7.31807 9.34668 7.25347 9.74158 7.27152 10.1371V50.0371C7.25347 50.4325 7.31807 50.8274 7.46119 51.1965C7.60431 51.5657 7.82281 51.9009 8.10275 52.1808C8.38269 52.4608 8.71791 52.6793 9.08702 52.8224C9.45614 52.9655 9.85104 53.0301 10.2465 53.0121H35.4465C35.8674 53.0154 36.2739 52.859 36.584 52.5746L42.0965 47.0621C42.2639 46.9284 42.3926 46.7525 42.4695 46.5526C42.5464 46.3527 42.5687 46.1359 42.534 45.9246V42.1621C43.0804 42.2762 43.6411 42.3057 44.1965 42.2496C47.3272 41.6141 50.1426 39.9176 52.1672 37.4466C54.1918 34.9756 55.3016 31.8816 55.309 28.6871V20.1996C55.3306 19.8889 55.2347 19.5815 55.0401 19.3384C54.8456 19.0953 54.5668 18.9341 54.259 18.8871ZM18.734 6.89955H30.984V10.0496C30.984 10.1371 30.809 10.2246 30.7215 10.2246H19.259C18.8215 10.2246 18.734 10.1371 18.734 9.69955V6.89955ZM36.584 49.6871V47.9371C36.6031 47.7194 36.7041 47.5172 36.8665 47.371C37.0288 47.2249 37.2406 47.1457 37.459 47.1496H39.1215C38.2465 48.0246 37.3715 48.8121 36.584 49.6871ZM40.5215 45.2246H37.5465C37.1642 45.2131 36.7836 45.28 36.4282 45.4211C36.0727 45.5622 35.7498 45.7744 35.4793 46.0449C35.2089 46.3153 34.9966 46.6382 34.8555 46.9937C34.7145 47.3492 34.6476 47.7298 34.659 48.1121V51.1746H10.2465C9.45902 51.1746 9.10902 50.8246 9.10902 50.0371V10.3121C9.10902 9.43705 9.45902 9.17455 10.334 9.17455H16.8965V10.1371C16.8921 10.4025 16.9412 10.6662 17.0408 10.9124C17.1404 11.1585 17.2885 11.3821 17.4762 11.5699C17.664 11.7576 17.8876 11.9057 18.1337 12.0053C18.3799 12.1049 18.6435 12.1539 18.909 12.1496H30.8965C31.162 12.1539 31.4257 12.1049 31.6718 12.0053C31.918 11.9057 32.1416 11.7576 32.3293 11.5699C32.5171 11.3821 32.6652 11.1585 32.7647 10.9124C32.8643 10.6662 32.9134 10.4025 32.909 10.1371V9.17455C32.9965 9.17455 32.9965 9.08705 33.084 9.08705H39.8215C40.434 9.08705 40.6965 9.52455 40.784 10.1371V16.2621C40.784 16.5246 40.6965 16.6121 40.434 16.6996C39.1215 17.0496 37.8965 17.4871 36.584 17.9246C36.2141 18.0321 35.8317 18.0909 35.4465 18.0996H24.859C24.6185 18.1195 24.3944 18.2299 24.232 18.4085C24.0696 18.5871 23.981 18.8207 23.984 19.0621C23.984 19.5871 24.4215 19.9371 25.1215 19.9371H32.4715V28.2496H24.9465C24.8252 28.241 24.7035 28.2571 24.5886 28.2969C24.4737 28.3367 24.3681 28.3994 24.2781 28.4812C24.1882 28.563 24.1157 28.6622 24.0652 28.7727C24.0146 28.8833 23.987 29.003 23.984 29.1246C23.981 29.3659 24.0696 29.5995 24.232 29.7781C24.3944 29.9567 24.6185 30.0671 24.859 30.0871H32.559C32.559 30.1746 32.6465 30.1746 32.6465 30.2621C32.9444 32.5857 33.8217 34.7972 35.1978 36.6932C36.5739 38.5891 38.4046 40.1086 40.5215 41.1121C40.6019 41.153 40.6691 41.2158 40.7155 41.2932C40.7619 41.3705 40.7857 41.4594 40.784 41.5496V44.6996C40.609 45.0496 40.5215 45.1371 40.5215 45.2246ZM53.384 28.6871C53.3906 31.3531 52.5079 33.9451 50.8755 36.0529C49.2431 38.1608 46.9544 39.6639 44.3715 40.3246C44.027 40.4124 43.666 40.4124 43.3215 40.3246C40.7387 39.6639 38.4499 38.1608 36.8175 36.0529C35.1851 33.9451 34.3024 31.3531 34.309 28.6871V20.6371L40.084 18.7996L43.4965 17.7496C43.5928 17.7063 43.6972 17.6839 43.8028 17.6839C43.9083 17.6839 44.0127 17.7063 44.109 17.7496L53.2965 20.6371C53.3637 20.6434 53.4261 20.6746 53.4715 20.7246V21.0746C53.384 23.5246 53.384 26.1496 53.384 28.6871Z" fill="#F35431"/>
<path d="M33.0843 38.5746H24.9468C24.8127 38.5593 24.6768 38.573 24.5484 38.6147C24.42 38.6565 24.302 38.7253 24.2025 38.8165C24.1029 38.9078 24.0241 39.0193 23.9714 39.1436C23.9187 39.2679 23.8932 39.4021 23.8968 39.5371C23.9007 39.6698 23.9311 39.8004 23.9864 39.9212C24.0416 40.042 24.1205 40.1504 24.2184 40.2402C24.3163 40.3299 24.4312 40.3991 24.5563 40.4437C24.6815 40.4882 24.8142 40.5072 24.9468 40.4996H33.0843C33.2185 40.5148 33.3544 40.5011 33.4828 40.4594C33.6112 40.4177 33.7291 40.3488 33.8287 40.2576C33.9282 40.1664 34.007 40.0548 34.0597 39.9305C34.1125 39.8062 34.1379 39.672 34.1343 39.5371C34.1343 38.9246 33.7843 38.5746 33.0843 38.5746Z" fill="#F35431"/>
<path d="M19.4342 39.0121C19.3467 39.0996 19.1717 39.1871 19.0842 39.3621L16.1092 42.3371C15.8107 41.9947 15.4891 41.6731 15.1467 41.3746C15.0653 41.2698 14.9626 41.1835 14.8453 41.1215C14.728 41.0595 14.5989 41.0231 14.4665 41.0148C14.334 41.0065 14.2014 41.0265 14.0773 41.0734C13.9531 41.1203 13.8404 41.1931 13.7466 41.2869C13.6528 41.3808 13.58 41.4935 13.5331 41.6176C13.4862 41.7417 13.4662 41.8744 13.4745 42.0068C13.4828 42.1392 13.5191 42.2683 13.5812 42.3856C13.6432 42.5029 13.7295 42.6057 13.8342 42.6871C14.2717 43.2121 14.7967 43.6496 15.3217 44.1746C15.9342 44.7871 16.3717 44.7871 16.9842 44.1746C18.2092 43.0371 19.3467 41.8121 20.5717 40.5871L20.8342 40.3246C20.9917 40.1367 21.0704 39.8953 21.0541 39.6507C21.0378 39.4062 20.9277 39.1774 20.7467 39.0121C20.5605 38.863 20.329 38.7819 20.0905 38.7819C19.8519 38.7819 19.6205 38.863 19.4342 39.0121Z" fill="#F35431"/>
<path d="M15.2346 23.6121C15.8471 24.2246 16.2846 24.2246 16.9846 23.6121C18.2096 22.4746 19.3471 21.2496 20.5721 20.0246C20.6596 19.9371 20.8346 19.7621 20.8346 19.6746C20.949 19.5024 21.0026 19.2969 20.9867 19.0907C20.9709 18.8846 20.8865 18.6897 20.7471 18.5371C20.6153 18.3688 20.4243 18.257 20.213 18.2245C20.0017 18.192 19.786 18.2412 19.6096 18.3621C19.4346 18.4496 19.3471 18.6246 19.1721 18.7121L16.1096 21.7746C15.7596 21.4246 15.4971 21.0746 15.2346 20.8121C15.1532 20.7073 15.0505 20.621 14.9332 20.559C14.8159 20.497 14.6868 20.4606 14.5543 20.4523C14.4219 20.444 14.2893 20.464 14.1651 20.5109C14.041 20.5578 13.9283 20.6306 13.8345 20.7244C13.7407 20.8183 13.6679 20.931 13.621 21.0551C13.5741 21.1792 13.5541 21.3119 13.5624 21.4443C13.5707 21.5767 13.607 21.7058 13.6691 21.8231C13.7311 21.9404 13.8173 22.0432 13.9221 22.1246C14.2895 22.6781 14.7311 23.1786 15.2346 23.6121Z" fill="#F35431"/>
<path d="M15.2338 33.8496C15.8463 34.4621 16.2838 34.4621 16.9838 33.8496L20.4838 30.3496C20.5919 30.2499 20.6809 30.1312 20.7463 29.9996C20.8816 29.819 20.9471 29.5957 20.9311 29.3707C20.915 29.1457 20.8183 28.9341 20.6588 28.7746C20.4993 28.6151 20.2877 28.5184 20.0627 28.5023C19.8377 28.4863 19.6144 28.5519 19.4338 28.6871C19.3463 28.7746 19.1713 28.8621 19.0838 29.0371L16.0213 32.0996C15.7228 31.7572 15.4012 31.4356 15.0588 31.1371C14.9775 31.0323 14.8747 30.946 14.7574 30.884C14.6401 30.822 14.511 30.7856 14.3786 30.7773C14.2461 30.769 14.1135 30.789 13.9894 30.8359C13.8653 30.8828 13.7526 30.9556 13.6587 31.0494C13.5649 31.1433 13.4921 31.256 13.4452 31.3801C13.3983 31.5042 13.3783 31.6369 13.3866 31.7693C13.3949 31.9017 13.4312 32.0308 13.4933 32.1481C13.5553 32.2654 13.6416 32.3682 13.7463 32.4496C14.2713 32.8871 14.7963 33.4121 15.2338 33.8496Z" fill="#F35431"/>
<path d="M31.1595 42.6871H24.8595C24.7368 42.6711 24.612 42.6821 24.494 42.7192C24.3759 42.7563 24.2673 42.8186 24.1757 42.9018C24.0842 42.9851 24.0118 43.0872 23.9637 43.2013C23.9155 43.3153 23.8928 43.4384 23.897 43.5621C23.897 44.1746 24.247 44.5246 24.947 44.5246H31.1595C31.2876 44.5309 31.4155 44.5104 31.5352 44.4643C31.6549 44.4182 31.7635 44.3475 31.8542 44.2568C31.9449 44.1661 32.0156 44.0575 32.0617 43.9378C32.1078 43.8181 32.1283 43.6901 32.122 43.5621C32.1189 43.4406 32.0912 43.3209 32.0406 43.2104C31.99 43.0999 31.9176 43.0007 31.8276 42.919C31.7377 42.8372 31.6321 42.7745 31.5173 42.7346C31.4025 42.6948 31.2807 42.6786 31.1595 42.6871Z" fill="#F35431"/>
<path d="M24.8592 34.3746H29.0592C29.1933 34.3898 29.3292 34.3761 29.4576 34.3344C29.586 34.2927 29.704 34.2239 29.8035 34.1326C29.9031 34.0414 29.9819 33.9298 30.0346 33.8055C30.0873 33.6812 30.1128 33.547 30.1092 33.4121C30.102 33.2726 30.0663 33.1361 30.0043 33.011C29.9423 32.8859 29.8553 32.7748 29.7487 32.6846C29.6421 32.5944 29.5182 32.5271 29.3846 32.4866C29.2509 32.4462 29.1104 32.4336 28.9717 32.4496H24.7717C24.0717 32.4496 23.7217 32.7996 23.7217 33.4121C23.7639 33.6824 23.9022 33.9285 24.1111 34.1053C24.32 34.2821 24.5855 34.3777 24.8592 34.3746Z" fill="#F35431"/>
<path d="M24.8596 24.1371H28.8846C29.0172 24.1447 29.1499 24.1257 29.275 24.0812C29.4002 24.0366 29.5151 23.9674 29.613 23.8777C29.7109 23.7879 29.7898 23.6795 29.845 23.5587C29.9002 23.4379 29.9307 23.3073 29.9346 23.1746C29.9346 22.6496 29.4971 22.2996 28.8846 22.2996H24.8596C24.1596 22.2996 23.8096 22.6496 23.8096 23.2621C23.8512 23.5093 23.9799 23.7335 24.1725 23.894C24.3652 24.0545 24.6089 24.1407 24.8596 24.1371Z" fill="#F35431"/>
<path d="M48.1342 25.4496C47.9462 25.5455 47.77 25.6629 47.6092 25.7996L42.9717 30.4371L39.9967 27.4621C39.9202 27.3642 39.824 27.2837 39.7143 27.2256C39.6046 27.1675 39.4839 27.1332 39.36 27.1249C39.2361 27.1167 39.1119 27.1346 38.9955 27.1776C38.879 27.2207 38.7729 27.2878 38.6842 27.3746C38.5813 27.4599 38.4986 27.5669 38.4417 27.6879C38.3849 27.8089 38.3555 27.9409 38.3555 28.0746C38.3555 28.2082 38.3849 28.3402 38.4417 28.4612C38.4986 28.5822 38.5813 28.6892 38.6842 28.7746L42.2717 32.3621C42.3572 32.4647 42.4642 32.5474 42.5851 32.6041C42.7061 32.6608 42.8381 32.6902 42.9717 32.6902C43.1053 32.6902 43.2373 32.6608 43.3582 32.6041C43.4792 32.5474 43.5862 32.4647 43.6717 32.3621L44.1967 31.8371L49.0092 27.0246C49.1815 26.876 49.2942 26.6701 49.3264 26.4449C49.3586 26.2196 49.308 25.9904 49.1842 25.7996C49.0765 25.6289 48.9131 25.5008 48.7217 25.437C48.5303 25.3732 48.3227 25.3776 48.1342 25.4496Z" fill="#F35431"/>
</svg>
