<svg width="57" height="57" viewBox="0 0 57 57" fill="none" xmlns="http://www.w3.org/2000/svg">
<path fill-rule="evenodd" clip-rule="evenodd" d="M30.25 23.6121H6.625V46.3621H30.25V23.6121ZM23.25 30.6121C23.6 30.9621 23.6875 31.6329 23.6875 31.9246L24.125 33.2371L23.6875 34.5496L22.8125 36.2996L21.0625 38.0496L18.4375 40.2371L17.125 38.9246C16.1042 38.0496 14.0625 36.2121 14.0625 35.8621C14.0625 35.5121 13.4792 34.8412 13.1875 34.5496V31.9246C13.4792 31.3412 14.2375 30.1746 14.9375 30.1746C15.375 30.1746 15.5938 30.0652 15.8125 29.9558C16.0312 29.8464 16.25 29.7371 16.6875 29.7371C17.3875 29.7371 17.2708 30.0287 17.125 30.1746L18.4375 31.4871L18.875 30.6121L20.625 29.7371L21.9375 30.1746C22.2292 30.1746 22.9 30.2621 23.25 30.6121Z" fill="#FFF8F7"/>
<path d="M28.6602 18.8871H24.9852V8.82456C24.9853 8.38786 24.8995 7.9554 24.7324 7.55191C24.5654 7.14841 24.3205 6.78179 24.0117 6.473C23.7029 6.1642 23.3363 5.91929 22.9328 5.75226C22.5293 5.58524 22.0969 5.49936 21.6602 5.49956H15.7977C15.361 5.49936 14.9285 5.58524 14.525 5.75226C14.1215 5.91929 13.7549 6.1642 13.4461 6.473C13.1373 6.78179 12.8924 7.14841 12.7254 7.55191C12.5583 7.9554 12.4725 8.38786 12.4727 8.82456V18.8871H8.62266C7.90436 18.8906 7.21651 19.1776 6.70859 19.6855C6.20067 20.1934 5.91374 20.8813 5.91016 21.5996V48.6371C5.91368 48.9882 5.9869 49.3351 6.12555 49.6577C6.2642 49.9803 6.46554 50.2722 6.71787 50.5164C6.9702 50.7606 7.26851 50.9522 7.59548 51.0802C7.92246 51.2082 8.27161 51.27 8.62266 51.2621H28.6602C29.3557 51.2601 30.0223 50.9829 30.5141 50.491C31.006 49.9992 31.2832 49.3326 31.2852 48.6371V21.5996C31.2931 21.2485 31.2313 20.8994 31.1033 20.5724C30.9753 20.2454 30.7837 19.9471 30.5395 19.6948C30.2953 19.4424 30.0034 19.2411 29.6808 19.1025C29.3582 18.9638 29.0113 18.8906 28.6602 18.8871ZM13.9601 8.82456C13.9629 8.33809 14.1574 7.87235 14.5014 7.52837C14.8454 7.18438 15.3111 6.98988 15.7976 6.98706H21.6601C22.1466 6.98987 22.6123 7.18437 22.9563 7.52836C23.3003 7.87235 23.4948 8.33809 23.4976 8.82456V18.8871H13.9601V8.82456ZM8.62261 20.4621H28.6601C28.8154 20.4674 28.968 20.5034 29.1093 20.5679C29.2506 20.6325 29.3778 20.7243 29.4835 20.8381C29.5892 20.9519 29.6714 21.0855 29.7253 21.2312C29.7792 21.3769 29.8038 21.5318 29.7976 21.6871V23.0871H7.39761V21.6871C7.40433 21.3643 7.53556 21.0566 7.76385 20.8283C7.99215 20.6 8.29985 20.4688 8.62264 20.4621H8.62261ZM29.7976 24.5746V45.9246H7.39761V24.5746H29.7976ZM28.6601 49.8621H8.62261C8.29984 49.8553 7.99216 49.7241 7.76387 49.4958C7.53558 49.2675 7.40436 48.9598 7.39761 48.6371V47.3246H29.7976V48.6371C29.7953 48.9464 29.6773 49.2438 29.4668 49.4705C29.2563 49.6972 28.9685 49.8369 28.6602 49.8621H28.6601Z" fill="#F35431"/>
<path d="M54.9094 11.0996C54.6269 10.4627 54.1723 9.91728 53.5969 9.52456C52.1991 8.6206 50.5006 8.30606 48.8719 8.64956C47.2969 8.91206 45.7219 9.34956 44.2344 9.69956C43.7094 9.78706 43.1844 9.96206 42.6594 10.0496C42.3969 10.1371 42.3094 10.0496 42.0469 9.96206L41.7844 9.87456C40.1219 8.91206 38.3719 7.94956 36.6219 7.07456C36.1765 6.84735 35.7068 6.67123 35.2219 6.54956L34.9594 6.46206C34.4062 6.35749 33.836 6.3875 33.2969 6.54956C33.2094 6.54956 33.1219 6.63706 33.0344 6.63706C32.8645 6.67086 32.7049 6.74382 32.5682 6.85015C32.4315 6.95648 32.3214 7.09325 32.2469 7.24956C32.1478 7.56936 32.1792 7.91538 32.3344 8.21206C32.4219 8.29956 32.5094 8.47456 32.6844 8.56206C33.0344 8.91206 33.3844 9.17456 33.7344 9.52456L35.9219 11.5371L34.8719 11.7996C33.8219 12.0621 32.7719 12.2371 31.7219 12.4996C31.6144 12.5389 31.4972 12.5432 31.3871 12.5118C31.2771 12.4803 31.1798 12.4148 31.1094 12.3246C30.7594 11.9746 30.4094 11.5371 30.0594 11.1871C29.7969 10.9246 29.5344 10.5746 29.2719 10.3121C28.9192 9.94604 28.4598 9.70101 27.9594 9.61206C27.7082 9.55487 27.4463 9.56522 27.2004 9.64206C26.9545 9.71891 26.7333 9.85951 26.5594 10.0496C26.4167 10.2329 26.3188 10.447 26.2732 10.6748C26.2276 10.9026 26.2357 11.1379 26.2969 11.3621C26.5594 12.2371 26.7344 13.1996 26.9094 14.0746C26.9969 14.5996 27.1719 15.2121 27.2594 15.7371L27.5219 16.5246C27.7077 16.8084 27.9522 17.049 28.2391 17.2302C28.5259 17.4113 28.8482 17.5288 29.1844 17.5746C30.4781 17.8508 31.8088 17.91 33.1219 17.7496C34.9594 17.5746 36.7969 17.2246 38.6344 16.8746H38.7219L38.0219 18.6246C37.4969 19.8496 36.9719 21.1621 36.4469 22.4746V22.5621C36.2619 22.9855 36.1155 23.4248 36.0094 23.8746C35.964 24.0302 35.9646 24.1956 36.0112 24.3509C36.0578 24.5062 36.1483 24.6446 36.2719 24.7496C36.3489 24.8351 36.4435 24.9028 36.5493 24.9481C36.655 24.9935 36.7694 25.0153 36.8844 25.0121H37.2344C37.9295 24.9662 38.5972 24.7234 39.1594 24.3121C39.5812 23.9456 39.9626 23.5349 40.2969 23.0871C42.0469 20.8121 43.7094 18.4496 45.3719 16.1746L45.8969 15.4746C45.9379 15.3942 46.0006 15.327 46.078 15.2805C46.1553 15.2341 46.2442 15.2104 46.3344 15.2121L47.1219 15.0371C49.1086 14.6049 51.0666 14.0497 52.9844 13.3746C53.5421 13.1833 54.0718 12.9185 54.5594 12.5871C54.7595 12.4024 54.8998 12.162 54.9622 11.8969C55.0245 11.6318 55.0062 11.3541 54.9094 11.0996ZM35.2219 8.73706L34.3469 7.94956C34.8019 7.86531 35.2718 7.9593 35.6594 8.21206C36.5344 8.64956 37.4094 9.08706 38.2844 9.61206L39.2469 10.1371C39.52 10.3174 39.8137 10.4643 40.1219 10.5746L40.2094 10.6621C40.1619 10.6562 40.1136 10.661 40.0682 10.6761C40.0228 10.6913 39.9814 10.7164 39.9469 10.7496C39.354 10.854 38.7692 11.0002 38.1969 11.1871C38.0894 11.2264 37.9722 11.2307 37.8621 11.1992C37.7521 11.1678 37.6548 11.1023 37.5844 11.0121C36.7093 10.1371 36.0093 9.43706 35.2219 8.73706ZM53.1594 11.5371C52.874 11.6688 52.5819 11.7856 52.2844 11.8871C50.2719 12.5871 48.1719 13.1121 46.2469 13.6371C45.8835 13.7012 45.5385 13.8441 45.2362 14.0558C44.9339 14.2674 44.6816 14.5426 44.4969 14.8621C43.1844 16.6996 41.8719 18.5371 40.5594 20.2871C40.1219 20.8996 39.5969 21.5121 39.1594 22.1246C38.8973 22.5833 38.5001 22.95 38.0219 23.1746C37.9344 23.2621 37.8469 23.2621 37.6719 23.3496L41.0844 14.8621L40.3844 15.0371C40.0344 15.1246 39.7719 15.1246 39.5094 15.2121H39.3344C37.4658 15.6964 35.5652 16.0472 33.6469 16.2621C32.5719 16.3798 31.4891 16.4091 30.4094 16.3496C29.9878 16.2854 29.5762 16.1678 29.1844 15.9996C29.0835 15.9638 28.9918 15.906 28.9161 15.8303C28.8404 15.7546 28.7826 15.663 28.7469 15.5621L27.7844 11.0996C27.8662 11.0888 27.9494 11.0993 28.026 11.1299C28.1026 11.1606 28.17 11.2104 28.2219 11.2746L28.4844 11.5371C29.0094 12.1496 29.5344 12.7621 30.1469 13.3746C30.3692 13.6581 30.6717 13.8682 31.015 13.9774C31.3583 14.0867 31.7266 14.09 32.0719 13.9871C35.7469 13.1121 39.4219 12.3246 43.1844 11.5371L48.5219 10.3121C49.4658 10.0681 50.4524 10.0382 51.4094 10.2246C52.0477 10.3901 52.644 10.6882 53.1594 11.0996L53.4219 11.3621C53.3343 11.4496 53.2469 11.4496 53.1594 11.5371Z" fill="#F35431"/>
<path d="M34.8719 41.8121C34.8935 41.6272 34.8412 41.4412 34.7264 41.2947C34.6115 41.1482 34.4434 41.053 34.2587 41.03C34.074 41.0069 33.8876 41.0577 33.7402 41.1714C33.5929 41.2852 33.4964 41.4525 33.4719 41.637C33.4719 41.8995 33.2094 44.6121 34.4344 46.0996C34.5114 46.1851 34.606 46.2528 34.7118 46.2981C34.8175 46.3435 34.9319 46.3653 35.0469 46.3621C35.2091 46.3588 35.3646 46.2966 35.4844 46.187C35.5627 46.1264 35.6276 46.0501 35.6749 45.9631C35.7222 45.876 35.7509 45.78 35.7591 45.6813C35.7673 45.5826 35.7549 45.4832 35.7227 45.3895C35.6905 45.2958 35.6391 45.2098 35.5719 45.137C34.7844 44.3495 34.7844 42.4246 34.8719 41.8121Z" fill="#F35431"/>
<path d="M44.2351 50.3871C43.5185 50.6637 42.745 50.7605 41.9823 50.669C41.2196 50.5775 40.4909 50.3004 39.8601 49.8621C39.7208 49.7233 39.5321 49.6455 39.3354 49.6457C39.1388 49.6459 38.9503 49.7241 38.8112 49.8632C38.6722 50.0022 38.594 50.1907 38.5938 50.3874C38.5935 50.584 38.6714 50.7727 38.8101 50.9121C39.8131 51.7504 41.0914 52.1869 42.3976 52.1371C43.1406 52.136 43.8789 52.0179 44.5851 51.7871C44.6843 51.7608 44.7771 51.7147 44.8579 51.6513C44.9387 51.588 45.0057 51.5089 45.0548 51.4188C45.1039 51.3287 45.1342 51.2296 45.1437 51.1274C45.1532 51.0252 45.1418 50.9222 45.1101 50.8246C45.0458 50.6551 44.9201 50.5161 44.758 50.435C44.5959 50.354 44.4093 50.3369 44.2351 50.3871Z" fill="#F35431"/>
<path d="M51.4975 41.9871C51.3984 41.9886 51.3008 42.0107 51.2107 42.0519C51.1206 42.0932 51.0401 42.1528 50.9743 42.2268C50.9085 42.3009 50.8587 42.3878 50.8283 42.4821C50.7979 42.5764 50.7874 42.676 50.7975 42.7746C50.9725 44.8746 49.2225 47.3246 49.2225 47.3246C49.1615 47.4037 49.1175 47.4945 49.0931 47.5914C49.0688 47.6883 49.0648 47.7891 49.0812 47.8877C49.0976 47.9862 49.1342 48.0803 49.1886 48.1641C49.243 48.2479 49.3141 48.3195 49.3975 48.3746C49.5725 48.4621 49.66 48.5496 49.835 48.5496C49.95 48.5528 50.0643 48.531 50.1701 48.4856C50.2759 48.4403 50.3705 48.3726 50.4475 48.2871C50.535 48.1996 52.5475 45.3996 52.3725 42.7746C52.3552 42.5562 52.2549 42.3528 52.0921 42.2063C51.9293 42.0598 51.7164 41.9813 51.4975 41.9871Z" fill="#F35431"/>
<path d="M49.6597 37.7871C49.783 37.8 49.907 37.7691 50.0097 37.6996C50.1014 37.6533 50.1821 37.5879 50.2462 37.5076C50.3104 37.4274 50.3565 37.3343 50.3814 37.2347C50.4063 37.135 50.4094 37.0312 50.3906 36.9302C50.3718 36.8292 50.3314 36.7335 50.2722 36.6496C49.2222 34.6371 45.8972 33.3246 45.5472 33.2371C45.3616 33.1674 45.1559 33.1744 44.9753 33.2565C44.7948 33.3385 44.6543 33.4889 44.5847 33.6746C44.5151 33.8602 44.5221 34.0659 44.6041 34.2464C44.6862 34.4269 44.8366 34.5674 45.0222 34.6371C45.8972 34.9871 48.2597 36.0371 48.9597 37.3496C49.0175 37.4854 49.1157 37.6002 49.2409 37.6785C49.3661 37.7567 49.5123 37.7946 49.6597 37.7871Z" fill="#F35431"/>
<path d="M39.335 32.2746C39.4613 32.2907 39.5894 32.2652 39.6999 32.2021C39.8104 32.1389 39.8973 32.0415 39.9475 31.9246C40.0356 31.7469 40.0575 31.5437 40.0094 31.3513C39.9613 31.1589 39.8463 30.9899 39.685 30.8746C38.0225 29.9121 38.11 27.0246 38.11 26.9371C38.1149 26.7415 38.0454 26.5514 37.9154 26.4052C37.7855 26.259 37.6048 26.1676 37.41 26.1496C37.3177 26.1482 37.2261 26.1654 37.1406 26.2001C37.0551 26.2348 36.9774 26.2864 36.9121 26.3516C36.8468 26.4169 36.7953 26.4946 36.7606 26.5801C36.7259 26.6656 36.7087 26.7573 36.71 26.8496C36.71 27.0246 36.71 30.6121 39.0725 32.0121C39.0726 32.2746 39.2476 32.2746 39.335 32.2746Z" fill="#F35431"/>
<path d="M36.5346 47.3246C36.4358 47.3129 36.3355 47.3223 36.2406 47.3521C36.1456 47.382 36.0581 47.4316 35.9837 47.4977C35.9093 47.5639 35.8497 47.645 35.8089 47.7358C35.7682 47.8266 35.7471 47.925 35.7471 48.0246C35.7471 48.1241 35.7682 48.2225 35.8089 48.3133C35.8497 48.4041 35.9093 48.4853 35.9837 48.5514C36.0581 48.6175 36.1456 48.6672 36.2406 48.697C36.3355 48.7268 36.4358 48.7362 36.5346 48.7246C36.7203 48.7246 36.8983 48.6508 37.0296 48.5195C37.1609 48.3883 37.2346 48.2102 37.2346 48.0246C37.2346 47.8389 37.1609 47.6609 37.0296 47.5296C36.8983 47.3983 36.7203 47.3246 36.5346 47.3246Z" fill="#F35431"/>
<path d="M47.4721 49.0746C47.3685 49.0741 47.2659 49.0942 47.1702 49.1336C47.0745 49.1731 46.9875 49.231 46.9143 49.3043C46.8411 49.3775 46.7831 49.4645 46.7436 49.5602C46.7042 49.6559 46.6841 49.7585 46.6846 49.8621C46.6861 49.9611 46.7082 50.0588 46.7495 50.1489C46.7908 50.2389 46.8503 50.3194 46.9244 50.3853C46.9984 50.4511 47.0853 50.5008 47.1796 50.5312C47.2739 50.5617 47.3735 50.5722 47.4721 50.5621C47.5644 50.5634 47.656 50.5462 47.7415 50.5115C47.827 50.4768 47.9047 50.4253 47.97 50.36C48.0353 50.2947 48.0868 50.217 48.1215 50.1315C48.1562 50.046 48.1734 49.9544 48.1721 49.8621C48.1822 49.7635 48.1717 49.6639 48.1413 49.5696C48.1108 49.4753 48.0611 49.3884 47.9953 49.3143C47.9295 49.2403 47.849 49.1807 47.7589 49.1395C47.6688 49.0982 47.5711 49.0761 47.4721 49.0746Z" fill="#F35431"/>
<path d="M50.9727 40.4996C51.0762 40.5 51.1788 40.4799 51.2746 40.4405C51.3703 40.4011 51.4573 40.3431 51.5305 40.2699C51.6037 40.1967 51.6617 40.1097 51.7011 40.0139C51.7406 39.9182 51.7606 39.8156 51.7602 39.7121C51.7587 39.613 51.7366 39.5153 51.6953 39.4253C51.654 39.3352 51.5945 39.2547 51.5204 39.1889C51.4464 39.123 51.3594 39.0733 51.2651 39.0429C51.1709 39.0125 51.0713 39.002 50.9727 39.0121C50.8804 39.0107 50.7888 39.0279 50.7033 39.0626C50.6177 39.0973 50.54 39.1489 50.4748 39.2141C50.4095 39.2794 50.358 39.3571 50.3233 39.4426C50.2886 39.5281 50.2714 39.6198 50.2727 39.7121C50.2678 39.9076 50.3373 40.0977 50.4673 40.244C50.5973 40.3902 50.7779 40.4815 50.9727 40.4996Z" fill="#F35431"/>
<path d="M43.01 32.7996C43.0085 32.7005 42.9864 32.6028 42.9451 32.5127C42.9039 32.4227 42.8443 32.3422 42.7702 32.2763C42.6962 32.2105 42.6093 32.1608 42.515 32.1304C42.4207 32.0999 42.3211 32.0894 42.2225 32.0996C42.1302 32.0982 42.0386 32.1154 41.9531 32.1501C41.8676 32.1848 41.7899 32.2363 41.7246 32.3016C41.6593 32.3669 41.6078 32.4446 41.5731 32.5301C41.5384 32.6156 41.5212 32.7073 41.5225 32.7996C41.5349 32.9811 41.6126 33.1521 41.7413 33.2808C41.87 33.4095 42.0409 33.4872 42.2225 33.4996C42.3211 33.5097 42.4207 33.4992 42.515 33.4687C42.6093 33.4383 42.6962 33.3886 42.7703 33.3228C42.8443 33.2569 42.9039 33.1764 42.9451 33.0864C42.9864 32.9963 43.0085 32.8986 43.01 32.7996Z" fill="#F35431"/>
<path d="M13.0121 35.5996C13.4496 36.3871 13.9746 37.0871 14.4996 37.6121C15.4621 38.6621 16.6871 39.7121 18.0871 40.7621C18.2621 40.8496 18.3496 40.9371 18.5246 40.9371C18.6996 40.9371 18.7871 40.8496 18.9621 40.7621C19.8371 40.1496 20.6246 39.4496 21.4121 38.8371C22.2871 38.0496 22.9871 37.2621 23.5121 36.5621C24.2996 35.4246 24.6496 34.1996 24.5621 32.9746C24.4746 32.0996 24.2121 31.3996 23.7746 30.7871C23.0746 29.8246 22.1996 29.2996 20.9746 29.2996C20.0121 29.2996 19.2246 29.6496 18.6121 30.4371L18.5246 30.5246C17.6496 29.4746 16.4246 29.1246 15.1121 29.4746C14.1496 29.7371 13.3621 30.3496 12.9246 31.3121C12.3121 32.7121 12.3121 34.1121 13.0121 35.5996ZM14.1496 31.7496C14.4996 31.1371 14.9371 30.7871 15.6371 30.6121C15.8996 30.5246 15.9871 30.5246 16.0746 30.5246C16.6871 30.5246 17.2121 30.7871 17.6496 31.3121C17.8246 31.5746 17.8246 31.5746 17.9996 31.8371C18.0871 31.9246 18.1746 32.1871 18.6121 32.1871C18.7871 32.1871 18.9621 32.2746 19.2246 31.7496C19.4871 31.2246 19.8371 30.8746 20.2746 30.6121C21.0621 30.1746 22.1121 30.4371 22.7246 31.1371C23.0746 31.5746 23.3371 32.0996 23.4246 32.7121C23.4246 32.7996 23.4246 32.9746 23.4246 33.0621V33.2371C23.4246 34.0246 23.1621 34.7246 22.7246 35.4246C22.2871 36.1246 21.6746 36.7371 20.8871 37.5246C20.1871 38.1371 19.4871 38.7496 18.6121 39.3621C17.2121 38.3121 16.2496 37.4371 15.2871 36.4746C14.8496 35.9496 14.4121 35.4246 14.1496 34.8121C13.6246 33.8496 13.6246 32.7121 14.1496 31.7496Z" fill="#F35431"/>
</svg>
