<svg width="57" height="57" viewBox="0 0 57 57" fill="none" xmlns="http://www.w3.org/2000/svg">
<path fill-rule="evenodd" clip-rule="evenodd" d="M30.25 28.8621H7.5V47.2371H30.25V28.8621ZM16.6875 35.8621V31.9246H21.0625V36.2996H24.5625V40.6746H20.625V44.6121V45.0496H16.6875V40.2371H12.3125V35.8621H16.6875Z" fill="#FFF8F7"/>
<rect x="11" y="13.1121" width="15.75" height="5.25" fill="#FFF8F7"/>
<path d="M51.6027 10.5471C51.1434 10.282 50.6391 10.104 50.1152 10.0221L49.9402 9.93459C48.0152 9.32209 46.0027 8.79709 44.1652 8.18459L42.4152 7.65959C41.6277 7.39709 40.8402 7.22209 40.0527 6.95959C38.3902 6.43459 36.5527 5.90959 34.8902 5.38459C34.0431 5.12567 33.1282 5.20986 32.3426 5.61903C31.557 6.02819 30.9636 6.72958 30.6902 7.57209C30.6133 7.93411 30.4958 8.28632 30.3402 8.62209L30.2527 8.97209C29.5527 11.4221 28.8527 13.7846 28.0652 16.2346C27.9777 16.5846 27.8027 16.9346 27.7152 17.2846L27.6277 17.6346H27.4527V14.0471C27.4726 13.7815 27.4272 13.515 27.3204 13.271C27.2137 13.0269 27.0488 12.8127 26.8402 12.6471C26.4861 12.3892 26.0521 12.2652 25.6152 12.2971H11.7027C11.3032 12.3273 10.9293 12.5055 10.6542 12.7968C10.3791 13.0881 10.2225 13.4715 10.2152 13.8721V17.7221C10.2248 18.0342 10.3195 18.3378 10.4892 18.5999C10.6588 18.8621 10.8969 19.0729 11.1777 19.2096C11.2652 19.2096 11.2652 19.2971 11.3527 19.2971C11.4843 19.3189 11.6063 19.3799 11.7027 19.4721C11.7821 19.6032 11.813 19.758 11.7902 19.9096V20.2596C11.7918 20.3498 11.7681 20.4386 11.7217 20.516C11.6753 20.5933 11.608 20.6561 11.5277 20.6971C10.885 20.8788 10.3272 21.2816 9.95267 21.8346L9.69017 22.1846C9.07767 22.9721 8.46517 23.8471 7.76517 24.7221C6.99255 25.6542 6.58792 26.837 6.62767 28.0471V49.3971C6.6299 49.8405 6.72033 50.2791 6.8937 50.6872C7.06708 51.0953 7.31992 51.4649 7.63752 51.7743C7.95512 52.0838 8.33111 52.3269 8.7436 52.4897C9.1561 52.6524 9.59684 52.7314 10.0402 52.7221H27.7152C28.4033 52.7338 29.0777 52.5289 29.643 52.1364C30.2083 51.7438 30.6358 51.1835 30.8652 50.5346C30.9527 50.3596 31.0402 50.2721 31.2152 50.3596C32.0902 50.6221 32.8777 50.8846 33.7527 51.0596C35.2402 51.4971 36.8152 51.9346 38.3027 52.4596C38.7276 52.6124 39.1787 52.6793 39.6297 52.6562C40.0807 52.6331 40.5226 52.5206 40.9297 52.3252C41.3368 52.1298 41.701 51.8554 42.001 51.5179C42.3011 51.1805 42.5311 50.7867 42.6777 50.3596C42.8232 49.9601 42.9402 49.5507 43.0277 49.1346C43.1152 48.9596 43.1152 48.6971 43.2027 48.5221L44.0777 45.4596C44.6027 43.7096 45.1277 42.0471 45.6527 40.2971C46.0902 38.8096 46.5277 37.3221 46.9652 35.9221C47.4027 34.3471 47.9277 32.6846 48.3652 31.1096C48.8027 29.5346 49.3277 28.0471 49.7652 26.4721C50.1152 25.2471 50.4652 24.1096 50.8152 22.8846C51.0777 21.8346 51.4277 20.8721 51.6902 19.8221C52.2152 18.0721 52.7402 16.3221 53.2652 14.5721C53.4427 13.8116 53.3779 13.0146 53.0798 12.2928C52.7816 11.571 52.2651 10.9606 51.6027 10.5471ZM27.1027 18.5971L27.2777 18.3346L27.1902 18.7721C27.0152 19.3846 26.8402 19.9971 26.6652 20.6971C26.6654 20.7086 26.6633 20.7201 26.659 20.7309C26.6547 20.7416 26.6483 20.7513 26.6401 20.7595C26.6319 20.7677 26.6222 20.7741 26.6114 20.7784C26.6007 20.7827 26.5892 20.7848 26.5777 20.7846H26.4902C26.3688 20.7792 26.2498 20.7495 26.1402 20.6971C26.0527 20.6971 25.7902 20.5221 25.7902 20.3471V19.4721C26.2838 19.2749 26.7308 18.9769 27.1027 18.5971ZM25.7027 14.3096V17.5471C25.7027 17.8971 25.7027 17.8971 25.3527 17.8971H11.8777C11.5277 17.8971 11.5277 17.8971 11.5277 17.5471V14.3096C11.5277 13.9596 11.5277 13.9596 11.8777 13.9596H25.3527C25.7027 13.9596 25.7027 13.9596 25.7027 14.3096ZM13.0152 19.4721C13.1027 19.3846 13.2777 19.3846 13.6277 19.3846H23.8652C24.0402 19.3846 24.1277 19.3846 24.2152 19.4721C24.3027 19.5596 24.3027 19.6471 24.3027 19.8221V20.0846C24.3027 20.3471 24.3027 20.4346 24.2152 20.5221C24.1807 20.5553 24.1392 20.5804 24.0938 20.5955C24.0484 20.6107 24.0002 20.6155 23.9527 20.6096H13.3652C12.9277 20.6096 12.9277 20.6096 12.9277 20.1721C12.9277 19.7346 12.9277 19.5596 13.0152 19.4721ZM7.76517 28.2221C7.71735 27.68 7.78633 27.1339 7.96746 26.6207C8.14859 26.1075 8.43766 25.6391 8.81517 25.2471L8.99017 25.0721C8.98993 25.0605 8.99202 25.049 8.99633 25.0383C9.00064 25.0276 9.00708 25.0178 9.01526 25.0097C9.02343 25.0015 9.03317 24.9951 9.0439 24.9907C9.05463 24.9864 9.06612 24.9843 9.07767 24.9846L9.69017 24.1971C10.0402 23.6721 10.4777 23.1471 10.8277 22.6221C10.977 22.4115 11.1734 22.2385 11.4012 22.117C11.629 21.9955 11.8821 21.9288 12.1402 21.9221H25.0902C25.3432 21.9024 25.597 21.9485 25.827 22.0558C26.0569 22.1631 26.2552 22.328 26.4027 22.5346C26.9277 23.1471 27.3652 23.8471 27.8902 24.4596C28.2402 24.8971 28.5027 25.3346 28.8527 25.7721C29.3659 26.5441 29.5545 27.4871 29.3777 28.3971C29.3777 28.4846 29.2027 28.5721 29.1152 28.5721H8.20267C7.76517 28.5721 7.85267 28.6596 7.76517 28.2221ZM29.3777 48.5221V48.8721C29.3921 49.2244 29.3627 49.5771 29.2902 49.9221C29.1702 50.2951 28.9374 50.6217 28.624 50.8567C28.3105 51.0918 27.9318 51.2239 27.5402 51.2346H9.86517C9.41728 51.2832 8.9669 51.1683 8.59706 50.911C8.22723 50.6537 7.96285 50.2714 7.85267 49.8346C7.77665 49.4605 7.74726 49.0784 7.76517 48.6971V48.2596C7.76517 48.1721 7.94017 48.0846 7.94017 48.0846H28.8527C29.1152 48.0846 29.2027 48.0846 29.2902 48.1721C29.3777 48.2596 29.3777 48.3471 29.3777 48.5221ZM29.2902 46.2471C29.2902 46.6846 29.3777 46.6846 28.9402 46.6846H8.20267C7.76517 46.6846 7.76517 46.6846 7.76517 46.2471V30.5846C7.76517 30.1471 7.76517 30.1471 8.20267 30.1471H28.8527C29.2902 30.1471 29.2902 30.1471 29.2902 30.5846V46.2471ZM51.7777 14.0471C51.2527 15.7971 50.7277 17.6346 50.2027 19.3846C49.6777 21.2221 49.0652 23.0596 48.5402 24.8971C47.4027 28.8346 46.1777 32.6846 45.0402 36.6221C44.4277 38.6346 43.8152 40.6471 43.2902 42.6596C42.7652 44.4096 42.2402 46.1596 41.7152 47.9096L41.6277 48.0846C41.4527 48.6096 41.2777 49.2221 41.1027 49.7471C40.9866 50.1464 40.7455 50.498 40.4147 50.75C40.0839 51.002 39.681 51.1412 39.2652 51.1471C39.0571 51.1611 38.8485 51.1313 38.6527 51.0596C36.1152 50.2721 33.5777 49.5721 31.0402 48.7846C30.7777 48.6971 30.7777 48.5221 30.7777 48.3471V36.2721H30.8652C31.2881 36.2784 31.707 36.1887 32.0902 36.0096C32.6702 35.6841 33.1082 35.1542 33.3185 34.5232C33.5288 33.8922 33.4964 33.2055 33.2277 32.5971C32.8777 31.8096 32.4402 31.1096 32.0027 30.3221C31.764 29.8453 31.3595 29.472 30.8652 29.2721V28.3096V28.2221C30.9921 27.3129 30.807 26.3875 30.3402 25.5971C30.0993 25.1548 29.8054 24.7434 29.4652 24.3721C29.3777 24.2846 29.3777 24.1971 29.2902 24.1096C28.8527 23.4971 28.3277 22.7971 27.8902 22.2721C27.8027 22.0971 27.7152 22.0096 27.8027 21.8346C28.5902 19.2096 29.3777 16.5846 30.0777 14.1346C30.6902 12.2096 31.2152 10.1971 31.8277 8.27209C31.9934 7.76272 32.3345 7.32865 32.7902 7.04709C33.2804 6.81267 33.8355 6.75099 34.3652 6.87209C36.1152 7.39709 37.7777 7.92209 39.5277 8.35959C40.7527 8.70959 42.0652 9.14709 43.2902 9.49709C44.3402 9.84709 45.3902 10.1096 46.5277 10.4596C47.2277 10.6346 47.8402 10.8971 48.5402 11.0721L50.3777 11.5971C50.923 11.7365 51.3933 12.0814 51.6902 12.5596C51.8524 13.0386 51.8826 13.5524 51.7777 14.0471ZM30.7777 35.0471V31.2846L30.8652 31.4596C31.2152 32.0721 31.5652 32.7721 31.9152 33.3846C32.0027 33.4721 32.0027 33.5596 32.0027 33.7346V33.9096C32.0101 34.148 31.9362 34.3819 31.7931 34.5727C31.65 34.7635 31.4461 34.9 31.2152 34.9596C31.1277 34.9596 30.9527 35.0471 30.8652 35.0471H30.7777Z" fill="#F35431"/>
<path d="M35.4771 25.0996C35.7051 24.7347 35.8332 24.3163 35.8486 23.8863C35.864 23.4563 35.766 23.0298 35.5646 22.6496C35.2146 21.9496 34.8646 21.2496 34.4271 20.4621C34.2309 20.0532 33.9191 19.711 33.5302 19.4777C33.1414 19.2444 32.6927 19.1303 32.2396 19.1496H32.1521C31.7343 19.1454 31.3223 19.2476 30.9549 19.4466C30.5875 19.6456 30.2768 19.9348 30.0521 20.2871C29.7988 20.6032 29.6397 20.9843 29.5933 21.3868C29.5469 21.7892 29.6149 22.1966 29.7896 22.5621C30.1853 23.5011 30.6534 24.408 31.1896 25.2746C31.3862 25.5869 31.6567 25.8461 31.9771 26.0292C32.2976 26.2124 32.6582 26.3138 33.0271 26.3246C33.5057 26.3438 33.9814 26.2416 34.4098 26.0274C34.8382 25.8132 35.2054 25.494 35.4771 25.0996ZM33.6396 24.9246C33.5521 24.9246 33.3771 25.0121 33.2896 25.0121C33.0992 25.0066 32.9127 24.9562 32.7454 24.8649C32.5782 24.7737 32.4348 24.6442 32.3271 24.4871C31.8896 23.6996 31.4521 22.9121 31.1021 22.2121C30.9916 21.9429 30.9841 21.6425 31.0809 21.3682C31.1777 21.0938 31.3722 20.8647 31.6271 20.7246C31.7453 20.6418 31.8796 20.5849 32.0213 20.5577C32.163 20.5305 32.3088 20.5335 32.4492 20.5665C32.5897 20.5996 32.7215 20.6619 32.8362 20.7494C32.9509 20.837 33.0457 20.9478 33.1146 21.0746C33.4695 21.6686 33.7909 22.2821 34.0771 22.9121C34.1447 23.069 34.233 23.2161 34.3396 23.3496C34.3728 23.384 34.3979 23.4255 34.4131 23.4709C34.4282 23.5163 34.433 23.5646 34.4271 23.6121C34.4667 23.888 34.41 24.1692 34.2666 24.4082C34.1232 24.6473 33.9018 24.8296 33.6396 24.9246H33.6396Z" fill="#F35431"/>
<path d="M33.7275 16.2621C34.0748 16.8181 34.6168 17.2247 35.2477 17.4027C35.8787 17.5806 36.5533 17.5171 37.14 17.2246C37.72 16.8991 38.1579 16.3691 38.3683 15.7382C38.5786 15.1072 38.5462 14.4205 38.2775 13.8121C37.9275 13.0246 37.49 12.3246 37.0525 11.5371C36.8567 11.172 36.5669 10.8659 36.213 10.6505C35.8592 10.4351 35.4542 10.3182 35.04 10.3121C34.5614 10.2928 34.0857 10.3951 33.6573 10.6093C33.2289 10.8235 32.8617 11.1426 32.59 11.5371C32.3762 11.8714 32.2414 12.25 32.1959 12.6442C32.1504 13.0385 32.1954 13.4378 32.3275 13.8121C32.8525 14.5996 33.29 15.4746 33.7275 16.2621ZM34.34 11.7996C34.5965 11.6669 34.8944 11.6383 35.1715 11.7198C35.4486 11.8013 35.6836 11.9866 35.8275 12.2371C36.1775 12.8496 36.5275 13.5496 36.8775 14.1621L37.0525 14.5121C37.14 14.5996 37.14 14.6871 37.14 14.8621V15.0371C37.1474 15.2755 37.0735 15.5093 36.9304 15.7002C36.7872 15.891 36.5834 16.0275 36.3525 16.0871C36.1775 16.0871 36.09 16.1746 35.915 16.1746C35.7346 16.1779 35.5569 16.1304 35.4022 16.0376C35.2474 15.9447 35.1219 15.8103 35.04 15.6496C34.515 14.7746 34.165 14.0746 33.7275 13.2871C33.6341 13.0069 33.6446 12.7025 33.7571 12.4294C33.8695 12.1563 34.0764 11.9328 34.34 11.7996H34.34Z" fill="#F35431"/>
<path d="M47.0271 14.5121C46.8313 14.147 46.5415 13.8409 46.1877 13.6255C45.8338 13.4101 45.4288 13.2932 45.0146 13.2871C44.536 13.2678 44.0603 13.37 43.6319 13.5843C43.2035 13.7985 42.8363 14.1176 42.5646 14.5121C42.3508 14.8464 42.216 15.225 42.1705 15.6192C42.125 16.0134 42.17 16.4128 42.3021 16.7871C42.6868 17.6592 43.1251 18.5066 43.6146 19.3246C43.9619 19.8806 44.5039 20.2872 45.1348 20.4652C45.7658 20.6431 46.4404 20.5796 47.0271 20.2871C47.6071 19.9616 48.0451 19.4316 48.2554 18.8007C48.4657 18.1697 48.4333 17.483 48.1646 16.8746C47.8747 16.0471 47.4932 15.2547 47.0271 14.5121ZM46.3271 19.0621C46.1521 19.0621 46.0646 19.1496 45.8896 19.1496C45.7092 19.1529 45.5315 19.1054 45.3768 19.0126C45.222 18.9197 45.0965 18.7853 45.0146 18.6246C44.4896 17.7496 44.1396 17.0496 43.7021 16.2621C43.5847 15.9938 43.5736 15.6909 43.6711 15.4147C43.7685 15.1386 43.9673 14.9097 44.2271 14.7746C44.4836 14.6419 44.7815 14.6133 45.0586 14.6948C45.3357 14.7763 45.5707 14.9616 45.7146 15.2121C46.0646 15.8246 46.4146 16.5246 46.7646 17.1371L46.9396 17.4871C47.0271 17.5746 47.0271 17.6621 47.0271 17.8371V18.0121C47.0694 18.2437 47.02 18.4827 46.8894 18.6786C46.7588 18.8745 46.5572 19.012 46.3271 19.0621H46.3271Z" fill="#F35431"/>
<path d="M43.8777 24.0496C43.6819 23.6845 43.3921 23.3784 43.0382 23.163C42.6844 22.9476 42.2794 22.8307 41.8652 22.8246C41.3866 22.8053 40.9109 22.9075 40.4825 23.1217C40.0541 23.336 39.6869 23.6551 39.4152 24.0496C39.2014 24.3839 39.0666 24.7625 39.0211 25.1567C38.9756 25.5509 39.0206 25.9503 39.1527 26.3246C39.5374 27.1967 39.9757 28.0441 40.4652 28.8621C40.8125 29.4181 41.3545 29.8247 41.9854 30.0027C42.6164 30.1806 43.291 30.1171 43.8777 29.8246C44.4577 29.4991 44.8956 28.9691 45.106 28.3382C45.3163 27.7072 45.2839 27.0205 45.0152 26.4121C44.7253 25.5846 44.3438 24.7922 43.8777 24.0496ZM43.9652 27.5496C43.9726 27.788 43.8987 28.0218 43.7556 28.2127C43.6124 28.4035 43.4086 28.54 43.1777 28.5996C43.0027 28.5996 42.9152 28.6871 42.7402 28.6871C42.5598 28.6904 42.3821 28.6429 42.2273 28.5501C42.0726 28.4572 41.9471 28.3228 41.8652 28.1621C41.3402 27.2871 40.9902 26.5871 40.5527 25.7996C40.4353 25.5313 40.4242 25.2284 40.5216 24.9522C40.6191 24.6761 40.8179 24.4472 41.0777 24.3121C41.3342 24.1794 41.6321 24.1508 41.9092 24.2323C42.1863 24.3138 42.4213 24.4991 42.5652 24.7496C42.9152 25.3621 43.2652 26.0621 43.6152 26.7621L43.7902 27.1121C43.8777 27.1996 43.8777 27.2871 43.8777 27.4621C43.9651 27.4621 43.9651 27.4621 43.9651 27.5496H43.9652Z" fill="#F35431"/>
<path d="M40.8152 33.2371C40.6194 32.872 40.3296 32.5659 39.9757 32.3505C39.6219 32.1351 39.2169 32.0182 38.8027 32.0121C38.3241 31.9928 37.8484 32.095 37.42 32.3093C36.9916 32.5235 36.6244 32.8426 36.3527 33.2371C36.1389 33.5714 36.0041 33.95 35.9586 34.3442C35.9131 34.7385 35.9581 35.1378 36.0902 35.5121C36.4749 36.3842 36.9132 37.2316 37.4027 38.0496C37.75 38.6056 38.292 39.0122 38.9229 39.1902C39.5539 39.3681 40.2285 39.3046 40.8152 39.0121C41.3952 38.6866 41.8331 38.1566 42.0435 37.5257C42.2538 36.8947 42.2214 36.208 41.9527 35.5996C41.6805 34.7649 41.2979 33.9703 40.8152 33.2371ZM40.1152 37.7871C39.9402 37.7871 39.8527 37.8746 39.6777 37.8746C39.4973 37.8779 39.3196 37.8304 39.1648 37.7376C39.0101 37.6447 38.8846 37.5103 38.8027 37.3496C38.2777 36.4746 37.9277 35.7746 37.4902 34.9871C37.3728 34.7188 37.3617 34.4159 37.4591 34.1397C37.5566 33.8636 37.7554 33.6347 38.0152 33.4996C38.2717 33.3669 38.5696 33.3383 38.8467 33.4198C39.1238 33.5013 39.3588 33.6866 39.5027 33.9371C39.8527 34.5496 40.2027 35.2496 40.5527 35.9496L40.7277 36.2996C40.8152 36.3871 40.8152 36.4746 40.8152 36.6496V36.8246C40.9027 37.1746 40.5527 37.6121 40.1152 37.7871H40.1152Z" fill="#F35431"/>
<path d="M38.2771 42.2496C38.0813 41.8845 37.7915 41.5784 37.4377 41.363C37.0838 41.1476 36.6788 41.0307 36.2646 41.0246C35.786 41.0053 35.3103 41.1076 34.8819 41.3218C34.4535 41.536 34.0863 41.8551 33.8146 42.2496C33.6008 42.5839 33.466 42.9625 33.4205 43.3567C33.375 43.751 33.42 44.1503 33.5521 44.5246C33.9368 45.3967 34.3751 46.2441 34.8646 47.0621C35.2119 47.6181 35.7539 48.0247 36.3848 48.2027C37.0158 48.3806 37.6904 48.3171 38.2771 48.0246C38.8571 47.6991 39.2951 47.1691 39.5054 46.5382C39.7157 45.9072 39.6833 45.2205 39.4146 44.6121C39.0884 43.8001 38.7084 43.0108 38.2771 42.2496ZM38.2771 45.7496C38.2845 45.988 38.2106 46.2219 38.0675 46.4127C37.9244 46.6035 37.7205 46.74 37.4896 46.7996C37.3146 46.7996 37.2271 46.8871 37.0521 46.8871C36.8717 46.8904 36.694 46.8429 36.5393 46.7501C36.3845 46.6572 36.259 46.5228 36.1771 46.3621C35.6521 45.4871 35.3021 44.7871 34.8646 43.9996C34.7472 43.7313 34.7361 43.4284 34.8336 43.1522C34.931 42.8761 35.1298 42.6472 35.3896 42.5121C35.6461 42.3794 35.944 42.3508 36.2211 42.4323C36.4982 42.5138 36.7332 42.6991 36.8771 42.9496C37.2271 43.5621 37.5771 44.2621 37.9271 44.9621L38.1021 45.3121C38.1896 45.3996 38.1896 45.4871 38.1896 45.6621C38.277 45.5746 38.277 45.6621 38.277 45.7496H38.2771Z" fill="#F35431"/>
<path d="M25.8236 36.1735C25.8236 35.561 25.4148 35.3371 24.8023 35.3371H21.8273C21.3898 35.3371 21.3898 35.3371 21.3898 34.8996V31.9246C21.3898 31.3121 21.1273 31.1371 20.6023 31.1371H16.6648C16.0523 31.1371 15.7898 31.3996 15.7898 32.0121V34.9871C15.8028 35.1104 15.7719 35.2344 15.7023 35.3371C15.6148 35.4246 15.5273 35.4246 15.3523 35.4246H12.4648C11.8523 35.4246 11.5898 35.6871 11.5898 36.2996V40.2371C11.5898 40.8496 11.8523 41.1121 12.4648 41.1121H15.3523C15.5273 41.1121 15.6148 41.1121 15.7023 41.1996C15.7898 41.2871 15.7898 41.3746 15.7898 41.5496V44.5246C15.7898 45.1371 16.0523 45.3996 16.6648 45.3996H20.6898C21.3023 45.3996 21.5648 45.1371 21.5648 44.5246V41.4621C21.5648 41.2871 21.5648 41.1996 21.6523 41.1121C21.7398 41.0246 21.8273 41.0246 22.0023 41.0246H25.0648C25.1718 41.0398 25.2809 41.03 25.3834 40.9958C25.4859 40.9617 25.5791 40.9041 25.6555 40.8277C25.7319 40.7513 25.7895 40.6581 25.8236 40.5556C25.8578 40.4531 25.8676 40.344 25.8523 40.2371V37.6121C25.8236 36.1735 25.8236 37.5888 25.8236 36.1735ZM24.3508 39.1518C24.3508 39.3268 24.2773 39.4496 24.1898 39.4496C24.1554 39.4828 24.1139 39.5079 24.0685 39.523C24.0231 39.5381 23.9749 39.5429 23.9273 39.5371H20.9523C20.2523 39.5371 20.0773 39.7996 20.0773 40.4996V43.5621C20.0832 43.6096 20.0784 43.6578 20.0633 43.7032C20.0481 43.7486 20.0231 43.7901 19.9898 43.8246C19.9023 43.9121 19.9023 43.9121 19.7273 43.9121H17.5398C17.4923 43.9188 17.4438 43.9145 17.3983 43.8993C17.3527 43.8841 17.3113 43.8585 17.2773 43.8246C17.2434 43.7906 17.2178 43.7492 17.2026 43.7036C17.1874 43.6581 17.1831 43.6096 17.1898 43.5621V40.5871C17.1898 39.8871 16.9273 39.6246 16.2273 39.6246H13.3398C13.1648 39.6246 13.0773 39.6246 13.0773 39.5371C13.0441 39.5026 13.019 39.4611 13.0039 39.4157C12.9888 39.3703 12.984 39.3221 12.9898 39.2746V37.2621C12.9768 37.1387 13.0078 37.0148 13.0773 36.9121C13.1648 36.8246 13.2523 36.8246 13.4273 36.8246H16.4023C17.0148 36.8246 17.2773 36.5621 17.2773 35.9496V32.9746C17.2773 32.7996 17.2773 32.7121 17.3648 32.6246C17.4523 32.5371 17.5398 32.5371 17.7148 32.5371H19.7273C19.9023 32.5371 19.9898 32.5371 19.9898 32.6246C20.0231 32.659 20.0481 32.7005 20.0633 32.7459C20.0784 32.7913 20.0832 32.8395 20.0773 32.8871V35.9496C20.0773 36.5621 20.3398 36.8246 20.9523 36.8246H24.0148C24.1898 36.8246 24.2773 36.8246 24.2773 36.9121C24.3106 36.9465 24.3356 36.988 24.3508 37.0334C24.3659 37.0788 24.3707 37.127 24.3648 37.1746C24.3508 39.1518 24.3648 37.4566 24.3508 39.1518Z" fill="#F35431"/>
<path d="M20.34 15.3871H15.8775C15.7528 15.3816 15.6291 15.4115 15.5207 15.4735C15.4123 15.5354 15.3236 15.6268 15.265 15.7371C15.1804 15.834 15.1338 15.9584 15.1338 16.0871C15.1338 16.2158 15.1804 16.3401 15.265 16.4371C15.3525 16.6996 15.615 16.7871 15.965 16.7871H20.34C20.4386 16.7972 20.5382 16.7867 20.6325 16.7562C20.7268 16.7258 20.8137 16.6761 20.8878 16.6103C20.9618 16.5445 21.0214 16.4639 21.0627 16.3739C21.1039 16.2838 21.126 16.1861 21.1275 16.0871C21.1095 15.8923 21.0181 15.7116 20.8719 15.5817C20.7257 15.4517 20.5356 15.3821 20.34 15.3871Z" fill="#F35431"/>
<path d="M24.1017 15.4746C23.8765 15.3992 23.6385 15.3695 23.4017 15.3871H22.9642C22.6142 15.3871 22.3517 15.7371 22.2642 16.0871C22.2574 16.2599 22.317 16.4289 22.431 16.5591C22.5449 16.6893 22.7044 16.7709 22.8767 16.7871H24.0142C24.1423 16.7312 24.2561 16.6471 24.347 16.541C24.4379 16.435 24.5036 16.3097 24.5392 16.1746C24.551 16.0264 24.5149 15.8783 24.4361 15.7523C24.3573 15.6262 24.2401 15.5289 24.1017 15.4746Z" fill="#F35431"/>
</svg>
