<svg width="57" height="57" viewBox="0 0 57 57" fill="none" xmlns="http://www.w3.org/2000/svg">
<path fill-rule="evenodd" clip-rule="evenodd" d="M25 50.7371V16.1746L23.25 15.2996L23.6875 13.1121H40.3125V9.17456H43.8125V13.1121H49.0625V15.2996V16.1746H47.75V50.7371H25ZM29.375 38.0496V50.2996H43.375V38.4871L41.625 37.1746H31.125L29.375 38.0496ZM34.625 28.4246V33.6746H28.9375V28.4246H34.625ZM37.6875 33.6746V28.4246H43.375V33.6746H37.6875ZM37.6875 19.6746V24.4871H43.375V19.6746H37.6875ZM28.9375 24.4871V19.6746H34.625V24.4871H28.9375Z" fill="#FFF8F7"/>
<path d="M51.2579 49.7746H48.5454V16.6121H49.1579C49.257 16.6105 49.3546 16.5884 49.4447 16.5472C49.5348 16.5059 49.6153 16.4463 49.6811 16.3723C49.7469 16.2982 49.7966 16.2113 49.8271 16.117C49.8575 16.0227 49.868 15.9231 49.8579 15.8246V12.8496C49.8628 12.654 49.7932 12.4639 49.6633 12.3177C49.5333 12.1715 49.3527 12.0801 49.1579 12.0621H44.8704V9.17456C44.8753 8.979 44.8057 8.78889 44.6758 8.64268C44.5458 8.49647 44.3652 8.4051 44.1704 8.38706H40.2329C40.1338 8.38857 40.0361 8.41067 39.9461 8.45195C39.856 8.49323 39.7755 8.55279 39.7097 8.62684C39.6438 8.70089 39.5941 8.78783 39.5637 8.88212C39.5333 8.97641 39.5228 9.076 39.5329 9.17456V12.1496H25.7954V11.4496C25.9442 11.4009 26.0744 11.3076 26.1683 11.1824C26.2623 11.0572 26.3154 10.906 26.3204 10.7496V6.81206C26.3253 6.6165 26.2557 6.42639 26.1258 6.28018C25.9958 6.13397 25.8152 6.0426 25.6204 6.02456H5.67038C5.57132 6.02607 5.47364 6.04817 5.38357 6.08945C5.2935 6.13073 5.21299 6.19029 5.14717 6.26434C5.08134 6.33839 5.03164 6.42533 5.0012 6.51962C4.97077 6.61391 4.96027 6.7135 4.97038 6.81206V10.7496C4.96547 10.9451 5.03503 11.1352 5.16499 11.2814C5.29495 11.4276 5.4756 11.519 5.67038 11.5371H5.84538V49.8621H2.52038C2.42809 49.8607 2.33647 49.8779 2.25094 49.9126C2.16541 49.9473 2.08772 49.9989 2.02245 50.0641C1.95718 50.1294 1.90567 50.2071 1.87096 50.2926C1.83625 50.3781 1.81906 50.4698 1.82038 50.5621C1.83272 50.7436 1.91043 50.9146 2.03913 51.0433C2.16783 51.172 2.3388 51.2497 2.52038 51.2621H51.2579C51.3502 51.2634 51.4418 51.2462 51.5273 51.2115C51.6129 51.1768 51.6906 51.1253 51.7558 51.06C51.8211 50.9947 51.8726 50.917 51.9073 50.8315C51.942 50.746 51.9592 50.6544 51.9579 50.5621C51.9641 50.3662 51.895 50.1754 51.7648 50.0289C51.6345 49.8824 51.4531 49.7914 51.2579 49.7746ZM40.9329 9.96206H43.3829V12.1496H40.9329V9.96206ZM19.2329 49.6871H11.7954V43.9996C11.7954 43.0249 12.1826 42.0901 12.8718 41.4009C13.561 40.7117 14.4957 40.3246 15.4704 40.3246C16.4451 40.3246 17.3798 40.7117 18.069 41.4009C18.7582 42.0901 19.1454 43.0249 19.1454 43.9996V49.6871H19.2329ZM42.5954 49.6871H30.2579V39.1871C30.2663 38.8416 30.4073 38.5127 30.6516 38.2683C30.896 38.024 31.2249 37.883 31.5704 37.8746H41.2829C41.6283 37.883 41.9573 38.024 42.2016 38.2683C42.446 38.5127 42.5869 38.8416 42.5954 39.1871V49.6871ZM47.0579 49.6871H44.0829V39.1871C44.0877 38.818 44.0186 38.4518 43.8796 38.1099C43.7405 37.768 43.5345 37.4574 43.2735 37.1964C43.0125 36.9355 42.702 36.7294 42.3601 36.5904C42.0182 36.4514 41.6519 36.3822 41.2829 36.3871H31.5704C31.2013 36.3822 30.8351 36.4514 30.4932 36.5904C30.1513 36.7294 29.8407 36.9355 29.5798 37.1964C29.3188 37.4574 29.1127 37.768 28.9737 38.1099C28.8347 38.4518 28.7656 38.818 28.7704 39.1871V49.6871H25.7954V16.6121H47.0579V49.6871ZM48.3704 15.1246H24.0454V13.6371H48.3704V15.1246ZM24.7454 7.59956V9.96206H6.28288V7.59956H24.7454ZM24.2204 11.4496V12.0621H23.2579C23.1588 12.0636 23.0611 12.0857 22.9711 12.127C22.881 12.1682 22.8005 12.2278 22.7347 12.3018C22.6688 12.3759 22.6191 12.4628 22.5887 12.5571C22.5583 12.6514 22.5478 12.751 22.5579 12.8496V15.8246C22.553 16.0201 22.6225 16.2102 22.7525 16.3564C22.8825 16.5026 23.0631 16.594 23.2579 16.6121H24.2204V18.8871H13.2829C13.1838 18.8886 13.0861 18.9107 12.9961 18.952C12.906 18.9932 12.8255 19.0528 12.7597 19.1268C12.6938 19.2009 12.6441 19.2878 12.6137 19.3821C12.5833 19.4764 12.5728 19.576 12.5829 19.6746C12.578 19.8701 12.6475 20.0602 12.7775 20.2064C12.9074 20.3526 13.0881 20.444 13.2829 20.4621H24.2204V24.4871H13.2829C13.1838 24.4886 13.0861 24.5107 12.9961 24.552C12.906 24.5932 12.8255 24.6528 12.7597 24.7268C12.6938 24.8009 12.6441 24.8878 12.6137 24.9821C12.5833 25.0764 12.5728 25.176 12.5829 25.2746C12.578 25.4701 12.6475 25.6602 12.7775 25.8064C12.9074 25.9526 13.0881 26.044 13.2829 26.0621H24.2204V29.9996H13.2829C13.1906 29.9982 13.099 30.0154 13.0134 30.0501C12.9279 30.0848 12.8502 30.1364 12.785 30.2016C12.7197 30.2669 12.6682 30.3446 12.6335 30.4301C12.5988 30.5156 12.5816 30.6073 12.5829 30.6996C12.5952 30.8811 12.6729 31.0521 12.8016 31.1808C12.9303 31.3095 13.1013 31.3872 13.2829 31.3996H24.2204V49.7746H20.7204V44.0871C20.7179 42.7186 20.1732 41.407 19.2056 40.4394C18.238 39.4718 16.9263 38.927 15.5579 38.9246C14.1941 38.9419 12.8911 39.4914 11.9266 40.4558C10.9622 41.4202 10.4127 42.7233 10.3954 44.0871V49.7746H7.33288V11.4496H24.2204Z" fill="#F35431"/>
<path d="M30.2571 25.6246H33.3196C33.5897 25.6191 33.8561 25.5603 34.1035 25.4518C34.3509 25.3432 34.5744 25.1869 34.7614 24.9919C34.9483 24.7968 35.0949 24.5668 35.1929 24.3151C35.2908 24.0633 35.3381 23.7947 35.3321 23.5246V20.4621C35.3292 19.921 35.1188 19.4016 34.7444 19.011C34.3701 18.6203 33.8601 18.388 33.3196 18.3621H30.2571C29.987 18.3676 29.7207 18.4263 29.4733 18.5348C29.2259 18.6434 29.0024 18.7997 28.8154 18.9947C28.6285 19.1898 28.4819 19.4198 28.3839 19.6716C28.286 19.9233 28.2387 20.192 28.2446 20.4621V23.5246C28.2387 23.7947 28.286 24.0633 28.3839 24.3151C28.4819 24.5668 28.6285 24.7968 28.8154 24.9919C29.0024 25.1869 29.2259 25.3432 29.4733 25.4518C29.7207 25.5603 29.987 25.6191 30.2571 25.6246ZM29.7321 20.4621C29.7321 20.1121 29.9946 19.9371 30.3446 19.9371H33.4071C33.5571 19.9293 33.7043 19.9794 33.8183 20.0771C33.9323 20.1749 34.0044 20.3127 34.0196 20.4621V23.5246C34.0196 23.8746 33.7571 24.0496 33.4071 24.0496H30.3446C30.1947 24.0574 30.0475 24.0072 29.9335 23.9095C29.8195 23.8118 29.7474 23.6739 29.7321 23.5246V20.4621Z" fill="#F35431"/>
<path d="M39.0951 25.6246H42.1576C42.4277 25.6191 42.694 25.5603 42.9414 25.4518C43.1888 25.3432 43.4123 25.1869 43.5993 24.9919C43.7862 24.7968 43.9328 24.5668 44.0308 24.3151C44.1287 24.0633 44.176 23.7947 44.1701 23.5246V20.4621C44.1671 19.921 43.9568 19.4016 43.5824 19.0109C43.208 18.6203 42.698 18.388 42.1576 18.3621H39.0951C38.825 18.3676 38.5586 18.4263 38.3112 18.5348C38.0638 18.6434 37.8403 18.7997 37.6533 18.9947C37.4664 19.1898 37.3198 19.4198 37.2218 19.6716C37.1239 19.9233 37.0766 20.192 37.0826 20.4621V23.5246C37.069 23.7965 37.1111 24.0684 37.2063 24.3235C37.3015 24.5787 37.4478 24.8117 37.6362 25.0083C37.8247 25.2049 38.0512 25.3609 38.3021 25.4669C38.5529 25.5729 38.8228 25.6265 39.0951 25.6246ZM38.4826 20.4621C38.4826 20.1121 38.7451 19.9371 39.0951 19.9371H42.1576C42.3075 19.9293 42.4547 19.9794 42.5687 20.0771C42.6827 20.1749 42.7548 20.3127 42.7701 20.4621V23.5246C42.7701 23.8746 42.5076 24.0496 42.1576 24.0496H39.0951C38.9451 24.0574 38.7979 24.0072 38.6839 23.9095C38.5699 23.8118 38.4978 23.6739 38.4826 23.5246V20.4621Z" fill="#F35431"/>
<path d="M30.2571 34.5496H33.3196C33.8516 34.5436 34.36 34.3297 34.7361 33.9536C35.1123 33.5774 35.3262 33.069 35.3321 32.5371V29.4746C35.3292 28.9335 35.1188 28.4141 34.7444 28.0234C34.3701 27.6328 33.8601 27.4005 33.3196 27.3746H30.2571C29.987 27.3801 29.7207 27.4388 29.4733 27.5473C29.2259 27.6559 29.0024 27.8122 28.8154 28.0072C28.6285 28.2023 28.4819 28.4323 28.3839 28.6841C28.286 28.9358 28.2387 29.2045 28.2446 29.4746V32.5371C28.2403 32.8026 28.2893 33.0662 28.3889 33.3124C28.4885 33.5585 28.6366 33.7821 28.8243 33.9699C29.0121 34.1576 29.2357 34.3057 29.4818 34.4053C29.728 34.5049 29.9917 34.5539 30.2571 34.5496ZM29.7321 29.3871C29.7302 29.3061 29.7447 29.2256 29.7747 29.1503C29.8048 29.0751 29.8499 29.0068 29.9071 28.9496C29.9644 28.8923 30.0327 28.8472 30.1079 28.8172C30.1831 28.7871 30.2637 28.7726 30.3446 28.7746H33.4071C33.4881 28.7726 33.5687 28.7871 33.6439 28.8172C33.7191 28.8472 33.7874 28.8923 33.8446 28.9496C33.9019 29.0068 33.947 29.0751 33.977 29.1503C34.0071 29.2256 34.0216 29.3061 34.0196 29.3871V32.4496C34.0216 32.5305 34.0071 32.6111 33.977 32.6863C33.947 32.7615 33.9019 32.8298 33.8446 32.8871C33.7874 32.9443 33.7191 32.9894 33.6439 33.0195C33.5686 33.0495 33.4881 33.064 33.4071 33.0621H30.3446C30.2637 33.064 30.1831 33.0495 30.1079 33.0195C30.0327 32.9894 29.9644 32.9443 29.9071 32.8871C29.8499 32.8298 29.8048 32.7615 29.7747 32.6863C29.7447 32.6111 29.7302 32.5305 29.7321 32.4496V29.3871Z" fill="#F35431"/>
<path d="M39.0954 34.5496H42.1579C42.6898 34.5436 43.1983 34.3297 43.5744 33.9536C43.9506 33.5774 44.1645 33.069 44.1704 32.5371V29.4746C44.1675 28.9335 43.9571 28.4141 43.5827 28.0234C43.2084 27.6328 42.6984 27.4005 42.1579 27.3746H39.0954C38.8253 27.3801 38.559 27.4388 38.3116 27.5473C38.0642 27.6559 37.8406 27.8122 37.6537 28.0072C37.4668 28.2023 37.3202 28.4323 37.2222 28.6841C37.1243 28.9358 37.0769 29.2045 37.0829 29.4746V32.5371C37.0711 32.8045 37.1151 33.0715 37.212 33.321C37.309 33.5705 37.4568 33.7971 37.6461 33.9864C37.8354 34.1757 38.062 34.3235 38.3115 34.4204C38.561 34.5174 38.828 34.5614 39.0954 34.5496ZM38.4829 29.3871C38.481 29.3061 38.4955 29.2256 38.5255 29.1503C38.5556 29.0751 38.6007 29.0068 38.6579 28.9496C38.7152 28.8923 38.7835 28.8472 38.8587 28.8172C38.9339 28.7871 39.0145 28.7726 39.0954 28.7746H42.1579C42.2389 28.7726 42.3194 28.7871 42.3946 28.8172C42.4698 28.8472 42.5382 28.8923 42.5954 28.9496C42.6527 29.0068 42.6977 29.0751 42.7278 29.1503C42.7579 29.2256 42.7724 29.3061 42.7704 29.3871V32.4496C42.7724 32.5305 42.7579 32.6111 42.7278 32.6863C42.6978 32.7615 42.6527 32.8298 42.5954 32.8871C42.5382 32.9443 42.4699 32.9894 42.3946 33.0195C42.3194 33.0495 42.2389 33.064 42.1579 33.0621H39.0954C39.0145 33.064 38.9339 33.0495 38.8587 33.0195C38.7835 32.9894 38.7152 32.9443 38.6579 32.8871C38.6007 32.8298 38.5556 32.7615 38.5255 32.6863C38.4955 32.6111 38.481 32.5305 38.4829 32.4496V29.3871Z" fill="#F35431"/>
</svg>
