<svg width="57" height="57" viewBox="0 0 57 57" fill="none" xmlns="http://www.w3.org/2000/svg">
<g clip-path="url(#clip0_25687_3267)">
<path d="M12.5789 36.8915L17.52 54.9062L37.8338 55.4209L38.3828 54.9062L40.5789 53.8768L43.873 36.8915H48.8142V31.2297L46.6181 30.2003H9.83377L7.6377 31.2297V35.3474L8.73573 36.8915H12.5789Z" fill="#FFF8F7"/>
<path d="M20.4844 44.715C21.0335 44.8179 21.4727 44.5091 21.5825 43.9944C21.6923 43.5826 21.6923 43.3768 22.1315 43.3768C22.5707 43.3768 22.5707 43.6856 22.6805 43.9944C22.7903 44.4062 23.1197 44.715 23.559 44.715C23.6688 44.715 23.6688 44.715 23.7786 44.715C24.3276 44.6121 24.5472 44.3032 24.5472 43.7885C24.5472 43.2738 24.3276 42.7591 23.8884 42.3474C23.2295 41.9356 22.5707 41.7297 22.0217 41.7297C21.3629 41.7297 20.8139 41.9356 20.3746 42.3474C19.9354 42.7591 19.7158 43.3768 19.7158 43.9944C19.7158 44.3032 19.9354 44.6121 20.4844 44.715Z" fill="#F35431"/>
<path d="M33.3311 44.8179C33.8801 44.9209 34.2096 44.6121 34.4292 44.0974C34.539 43.7885 34.6488 43.5826 34.9782 43.5826C35.3076 43.5826 35.4174 43.7885 35.5272 44.2003C35.637 44.715 35.9664 44.9209 36.4056 44.9209C36.5154 44.9209 36.5154 44.9209 36.6252 44.9209C37.1743 44.8179 37.3939 44.5091 37.3939 43.9944C37.1743 42.6562 36.0762 41.7297 34.8684 41.7297C33.6605 41.7297 32.5625 42.6562 32.5625 43.7885C32.5625 44.4062 32.7821 44.715 33.3311 44.8179Z" fill="#F35431"/>
<path d="M28.4998 47.0826C29.3782 47.0826 30.1468 46.7738 30.6959 46.1562C31.0253 45.7444 31.0253 45.3326 30.6959 44.9209C30.2566 44.5091 29.7076 44.5091 29.3782 44.8179C28.6096 45.4356 28.39 45.4356 27.6213 44.8179C27.1821 44.5091 26.6331 44.5091 26.3037 44.9209C25.9743 45.2297 25.9743 45.7444 26.3037 46.1562C26.8527 46.7738 27.6213 46.9797 28.4998 47.0826Z" fill="#F35431"/>
<path d="M55.7314 9.2003C55.1824 8.68559 54.4137 8.47971 53.5353 8.58265C51.8882 8.68559 50.1314 8.78853 48.3745 9.09735C44.202 9.81794 40.6882 11.1562 37.8333 13.215C37.8333 13.215 37.7235 13.215 37.7235 13.3179V13.215C36.5157 9.2003 34.2098 5.39147 30.4765 1.68559C29.9275 1.17088 29.2686 0.862061 28.5 0.862061C27.7314 0.862061 27.0726 1.17088 26.5235 1.68559C23.998 4.15618 22.2412 6.52383 20.9235 9.2003C20.4843 10.1268 20.0451 11.1562 19.7157 12.0826C19.4961 12.4944 19.3863 12.9062 19.1667 13.3179C14.8843 10.2297 8.07647 8.99441 6.53922 8.99441C5.33137 8.89147 4.12353 8.68559 3.46471 8.68559C2.58627 8.68559 1.81765 8.89147 1.26863 9.40618C0.719608 9.92088 0.5 10.6415 0.5 11.465C0.609804 14.3474 1.04902 17.1268 1.92745 19.7003C3.13529 23.5091 5.11176 26.3915 7.74706 28.5532C8.07647 28.7591 8.29608 29.0679 8.62549 29.2738C8.73529 29.3768 8.8451 29.4797 8.9549 29.5826L8.8451 29.6856C7.63726 30.2003 6.97843 31.0238 6.97843 32.3621C6.97843 32.7738 6.97843 33.2885 6.97843 33.7003C6.97843 34.1121 6.97843 34.4209 6.97843 34.8326C6.97843 36.5826 8.18627 37.715 10.0529 37.715C10.4922 37.715 10.9314 37.715 11.3706 37.715H11.8098L12.3588 39.8768C12.6882 41.215 13.0176 42.5532 13.3471 43.8915C14.1157 46.9797 14.8843 50.2738 15.6529 53.465C16.0922 55.4209 17.9588 56.8621 20.0451 56.8621C23.0098 56.8621 25.7549 56.8621 28.5 56.8621C31.4647 56.8621 34.3196 56.8621 37.0647 56.8621C38.602 56.8621 39.8098 56.1415 40.798 54.9062C40.9078 54.8032 40.9078 54.7003 41.0177 54.5974C41.4569 52.5385 43.2137 46.5679 43.6529 44.6121L44.202 42.1415C44.4216 41.0091 44.751 39.8768 44.9706 38.7444L45.1902 37.9209C45.4098 37.9209 45.6294 37.9209 45.849 37.9209C46.2882 37.9209 46.8373 37.9209 47.2765 37.9209C48.8137 37.9209 50.0216 36.7885 50.0216 35.3474C50.0216 34.3179 50.0216 33.2885 50.0216 32.2591C50.0216 31.2297 49.4726 30.5091 48.4843 29.9944L47.4961 29.4797C49.4725 28.1415 51.7784 25.9797 52.9863 23.9209C55.1824 20.3179 56.2804 16.2003 56.5 11.2591C56.5 10.4356 56.2804 9.715 55.7314 9.2003ZM24.5471 6.31794C25.3157 5.28853 26.1941 4.25912 27.0726 3.33265C27.2922 3.12677 27.402 2.92088 27.6216 2.715C27.8412 2.50912 28.0608 2.30324 28.2804 2.30324C28.5 2.30324 28.7196 2.40618 28.9392 2.61206C32.3431 6.11206 34.5392 9.61206 35.7471 13.3179C35.9667 14.0385 35.9667 14.5532 35.3078 15.2738C32.8922 17.8474 31.3549 21.0385 30.4765 25.1562C30.2569 25.9797 30.1471 26.9062 30.0373 27.7297C29.9275 28.1415 29.9275 28.5532 29.8176 28.965C29.598 28.965 29.2686 28.965 29.049 28.965C28.3902 28.965 27.7314 28.965 27.0726 28.965C26.7431 28.965 26.7431 28.8621 26.7431 28.5532V28.4503C26.5235 25.465 25.7549 22.5826 24.5471 20.0091L24.4373 19.8032C24.3275 19.4944 24.1078 19.1856 23.998 18.8768C24.1078 18.9797 24.2176 19.0826 24.3275 19.1856C24.7667 19.4944 25.2059 19.3915 25.5353 19.0826C25.8647 18.7738 25.8647 18.3621 25.5353 17.9503C24.9863 17.3326 24.4373 16.8179 23.8882 16.4062C23.449 15.9944 23.0098 16.2003 22.4608 16.6121C22.351 16.4062 22.1314 16.3032 22.0216 16.0974C21.5824 15.6856 21.2529 15.1709 20.8137 14.7591C20.7039 14.5532 20.7039 14.2444 20.7039 14.0385C21.3627 11.3621 22.5706 8.89147 24.5471 6.31794ZM6.1 23.8179C3.79412 20.4209 2.69608 16.5091 2.36667 11.3621C2.36667 10.9503 2.36667 10.6415 2.58627 10.5385C2.80588 10.3326 3.02549 10.3326 3.46471 10.3326C4.34314 10.4356 5.33137 10.4356 6.2098 10.5385C6.2098 10.5385 6.42941 10.5385 6.75882 10.6415C6.86863 10.6415 6.97843 10.6415 6.97843 10.6415C9.06471 10.9503 14.5549 12.0826 18.9471 15.3768C20.0451 16.3032 21.0333 17.4356 21.802 18.6709C23.3392 21.1415 24.4373 23.9209 24.9863 27.215C25.0961 27.7297 25.0961 28.1415 25.2059 28.6562C25.2059 28.8621 25.2059 29.0679 25.3157 29.2738H25.2059C25.0961 29.2738 25.0961 29.2738 24.9863 29.2738H23.5588C20.0451 29.2738 16.4216 29.2738 12.9078 29.2738C12.6882 29.2738 12.4686 29.1709 12.249 29.0679C9.72353 27.8326 7.63726 26.0826 6.1 23.8179ZM43.2137 37.5091C43.2137 37.6121 43.2137 37.715 43.1039 37.8179C42.3353 41.215 41.4569 44.6121 40.6882 48.0091L39.3706 52.9503C39.2608 53.3621 39.0412 53.7738 38.7118 54.0826C38.1627 54.4944 37.5039 54.7003 36.6255 54.7003C33.2216 54.7003 29.7078 54.7003 26.3039 54.7003H20.3745C18.8373 54.7003 17.6294 53.7738 17.3 52.3326C16.8608 50.3768 16.4216 48.5238 15.8726 46.5679C15.4333 44.6121 14.9941 42.7591 14.5549 40.8032C14.3353 40.0826 14.2255 39.2591 14.0059 38.5385C13.8961 38.1268 13.7863 37.715 13.6765 37.3032H43.2137C43.2137 37.5091 43.2137 37.5091 43.2137 37.5091ZM48.0451 31.9503C48.0451 32.7738 48.0451 33.5974 48.0451 34.6268C48.0451 35.3474 47.7157 35.6562 46.9471 35.6562C45.6294 35.6562 44.3118 35.6562 42.9941 35.6562H28.3902C22.2412 35.6562 16.202 35.6562 10.0529 35.6562C8.9549 35.6562 8.62549 35.3474 8.62549 34.3179V33.7003C8.62549 33.0826 8.62549 32.5679 8.62549 31.9503C8.62549 31.2297 8.9549 30.9209 9.72353 30.9209C9.83333 30.9209 9.83333 30.9209 9.94314 30.9209H10.0529H10.1627H46.6176C46.7275 30.9209 46.8373 30.9209 47.0569 30.9209C47.7157 31.0238 48.0451 31.3327 48.0451 31.9503ZM51.1196 23.715C49.5824 25.8768 47.4961 27.7297 44.8608 29.0679C44.6412 29.1709 44.4216 29.2738 44.202 29.2738C40.3588 29.2738 36.4059 29.2738 32.5627 29.2738H32.1235C32.0137 29.2738 32.0137 29.2738 31.9039 29.2738H31.7941C32.0137 27.1121 32.4529 25.1562 33.1118 23.0974C35.0882 16.9209 39.7 13.0091 46.9471 11.2591C49.0333 10.7444 51.3392 10.4356 53.7549 10.4356C54.0843 10.4356 54.3039 10.5385 54.5235 10.6415C54.6333 10.7444 54.7431 10.9503 54.7431 11.2591C54.6333 16.0974 53.4255 20.215 51.1196 23.715Z" fill="#F35431"/>
<path d="M19.2767 26.5974C19.4963 26.5974 19.8257 26.4944 19.9355 26.2885C20.2649 25.8768 20.2649 25.3621 19.8257 25.0532L5.88058 13.5238C5.55117 13.1121 4.89235 13.215 4.56293 13.5238C4.23352 13.9356 4.23352 14.4503 4.67274 14.7591L18.6178 26.3915C18.8374 26.5974 19.0571 26.5974 19.2767 26.5974Z" fill="#F35431"/>
<path d="M49.9116 13.4209L36.0763 25.1562C35.7469 25.465 35.6371 26.0826 35.9665 26.3915C36.1861 26.5974 36.4057 26.7003 36.6253 26.7003C36.8449 26.7003 37.0645 26.5974 37.2841 26.4944L51.1194 14.7591C51.4488 14.4503 51.5586 13.8327 51.2292 13.5238C50.8998 13.1121 50.241 13.1121 49.9116 13.4209Z" fill="#F35431"/>
<path d="M28.3905 23.3032C28.9395 23.3032 29.3787 22.8915 29.3787 22.3768V6.83265C29.3787 6.31794 28.9395 6.00912 28.3905 6.00912C27.8415 6.00912 27.5121 6.42088 27.5121 6.93559V22.4797C27.4023 22.9944 27.8415 23.3032 28.3905 23.3032Z" fill="#F35431"/>
<path d="M31.355 16.3032C31.5746 16.3032 31.904 16.2003 32.0138 15.9944L33.9903 13.8326C34.3197 13.4209 34.3197 12.9062 33.8805 12.5974C33.4413 12.2885 32.8923 12.2885 32.5628 12.7003L30.5864 14.8621C30.257 15.2738 30.257 15.7885 30.6962 16.0974C30.9158 16.2003 31.1354 16.3032 31.355 16.3032Z" fill="#F35431"/>
<path d="M40.0294 18.7738C40.249 18.7738 40.5784 18.6709 40.6882 18.465L42.6647 16.3032C42.9941 15.8915 42.9941 15.3768 42.5549 15.0679C42.1156 14.7591 41.5666 14.7591 41.2372 15.1709L39.3706 17.3326C39.0411 17.7444 39.0411 18.2591 39.4804 18.5679C39.5902 18.6709 39.8098 18.7738 40.0294 18.7738Z" fill="#F35431"/>
<path d="M48.3746 21.3474L45.4099 21.965C44.8609 22.0679 44.6413 22.5826 44.7511 22.9944C44.7511 23.2003 44.9707 23.4062 45.0805 23.5091C45.3001 23.6121 45.5197 23.715 45.8491 23.715L48.8138 23.0974C49.3628 22.9944 49.5825 22.4797 49.4727 22.0679C49.3628 21.5532 48.8138 21.2444 48.3746 21.3474Z" fill="#F35431"/>
<path d="M16.6411 20.0091C16.8607 20.4209 17.4097 20.6268 17.8489 20.4209C18.0686 20.3179 18.1784 20.215 18.2882 20.0091C18.398 19.8032 18.398 19.4944 18.2882 19.2885L16.9705 16.715C16.7509 16.3032 16.2019 16.0974 15.7627 16.3032C15.3235 16.5091 15.1039 17.0238 15.3235 17.4356L16.6411 20.0091Z" fill="#F35431"/>
<path d="M13.2373 24.7444C13.3471 24.5385 13.3471 24.3326 13.2373 24.1268C13.1275 23.9209 12.9079 23.715 12.6883 23.6121L9.83341 22.6856C9.39419 22.4797 8.84517 22.7885 8.62557 23.2003C8.40596 23.6121 8.73537 24.1268 9.17458 24.3326L12.0295 25.2591C12.4687 25.465 13.0177 25.1562 13.2373 24.7444Z" fill="#F35431"/>
</g>
<defs>
<clipPath id="clip0_25687_3267">
<rect width="56" height="56" fill="white" transform="translate(0.5 0.862061)"/>
</clipPath>
</defs>
</svg>
