<svg width="57" height="57" viewBox="0 0 57 57" fill="none" xmlns="http://www.w3.org/2000/svg">
<path fill-rule="evenodd" clip-rule="evenodd" d="M32.875 10.4871H5.75V41.9871L24.5625 41.3309V33.6746L27.625 32.7996V24.5681L29.375 23.1746V14.4246L32.875 13.9871V10.4871ZM17.5625 17.0496L16.6875 15.7371L12.3125 16.6121L11.875 19.2371H14.9375L15.375 26.6746H22.8125L23.25 19.2371L25.875 19.6746L26.3125 17.0496L25.4375 16.1746L21.9375 15.7371C21.5 16.3204 20.5375 17.5746 20.1875 17.9246C19.8375 18.2746 18.875 18.0704 18.4375 17.9246L17.5625 17.0496Z" fill="#FFF8F7"/>
<path d="M50.8478 13.4111L33.1171 13.4107L33.118 12.0854C33.1198 11.2258 33.1206 10.3854 33.1163 9.54498C33.1392 9.01786 33.0525 8.49172 32.8617 7.99981C32.6709 7.50791 32.3801 7.06094 32.0077 6.68717C31.6353 6.31341 31.1895 6.02097 30.6983 5.82836C30.2071 5.63576 29.6812 5.54716 29.154 5.56818C22.4676 5.56305 15.6898 5.56305 9.00681 5.56818C8.48038 5.55031 7.95589 5.64079 7.46587 5.83401C6.97585 6.02723 6.53076 6.31907 6.1582 6.69143C5.78564 7.06379 5.49355 7.50872 5.30006 7.99864C5.10658 8.48855 5.01581 9.01299 5.03339 9.53943C5.02997 21.9898 5.03164 33.4567 5.03766 44.5958C5.03515 44.9863 5.08282 45.3754 5.17951 45.7537C5.4019 46.5955 5.90699 47.3352 6.61006 47.8487C7.31312 48.3623 8.17141 48.6185 9.04095 48.5744C12.3743 48.5778 15.7077 48.5784 19.0411 48.5761H23.8818V49.5775C23.8809 50.2671 23.8809 50.937 23.8827 51.6069C23.8852 52.2888 24.1082 52.5084 24.7995 52.5093C26.0069 52.5101 27.2143 52.5104 28.4217 52.5102H32.2396C34.8501 52.5102 37.4603 52.5099 40.0702 52.5093C40.682 52.5084 40.958 52.2948 40.9648 51.8163C40.9862 50.2953 40.9853 48.7461 40.9631 47.0798C40.9554 46.5518 40.5632 46.4244 40.2359 46.4108C40.0821 46.4039 39.9283 46.4073 39.7258 46.4073C39.6198 46.4082 39.5019 46.4091 39.3652 46.4091H39.2319L39.2848 46.2869C39.3472 46.1433 39.3976 46.0092 39.4455 45.8853C39.5195 45.655 39.6241 45.4357 39.7565 45.2333C40.6181 44.049 41.0528 42.6077 40.9895 41.1445C40.9613 39.5535 40.9673 37.9351 40.9733 36.3705C40.9759 35.692 40.9793 35.0127 40.9793 34.3342V33.6566H50.8632C51.8014 33.6566 51.9672 33.4943 51.9672 32.5723C51.9681 26.5609 51.9683 20.5496 51.9681 14.5382C51.9681 13.5795 51.8006 13.4111 50.8478 13.4111ZM6.88508 7.99707C7.12619 7.66196 7.44653 7.39176 7.81749 7.2106C8.18846 7.02944 8.59851 6.94295 9.01105 6.95886H9.01617C11.5993 6.96142 14.1819 6.96228 16.7639 6.96142L19.4982 6.96099C20.4125 6.96099 21.3268 6.96399 22.2412 6.96997C24.4158 6.98065 26.664 6.9909 28.8754 6.93963C29.2919 6.91679 29.7083 6.98474 30.0959 7.13878C30.4835 7.29281 30.833 7.52925 31.1202 7.83172C31.3824 8.15408 31.5689 8.53119 31.6659 8.93523C31.7629 9.33928 31.768 9.75996 31.6807 10.1662L31.6696 10.2406H6.45527L6.44843 10.1603C6.31202 9.4099 6.46828 8.63578 6.88508 7.99707ZM28.5909 22.4388C28.61 22.5859 28.5822 22.7353 28.5115 22.8656C28.4408 22.9959 28.3307 23.1006 28.197 23.1647C27.8303 23.3633 27.526 23.66 27.3182 24.0215C27.1104 24.3831 27.0073 24.7953 27.0203 25.2121C27.0169 26.7339 27.0163 28.2559 27.0186 29.7781V32.2595H26.7178C26.5512 32.2595 26.394 32.2595 26.2367 32.2604C25.9245 32.2463 25.6127 32.2973 25.3212 32.4101C25.0298 32.523 24.765 32.6954 24.5437 32.9161C24.3225 33.1369 24.1496 33.4013 24.0361 33.6925C23.9225 33.9838 23.8708 34.2954 23.8843 34.6077C23.8783 35.9339 23.8772 37.2606 23.8809 38.5879L23.8818 40.8891H6.45868V11.7073H31.6867V13.4111L30.9604 13.4107C30.4972 13.4103 30.0367 13.4094 29.5769 13.4116C28.8002 13.4137 28.5866 13.6243 28.5866 14.3904V15.811C28.5849 18.0203 28.5863 20.2296 28.5909 22.4388ZM24.3706 46.4595C24.1185 46.6176 23.9243 46.8528 23.8168 47.1302L23.7921 47.1772L18.5814 47.1781H13.8783C12.3103 47.1781 10.7426 47.1778 9.17515 47.1772C8.80333 47.2196 8.42673 47.1774 8.07351 47.0538C7.72028 46.9302 7.39956 46.7283 7.13531 46.4633C6.87105 46.1984 6.6701 45.8771 6.54747 45.5235C6.42484 45.1699 6.38369 44.7932 6.42711 44.4215C6.42624 43.9858 6.42624 43.5499 6.42624 43.1047L6.42711 42.3314H23.9228L23.9305 42.4109C24.1103 43.5472 24.5758 44.6191 25.2831 45.5264C25.3683 45.677 25.4221 45.8432 25.4412 46.0151C25.4566 46.0963 25.472 46.1801 25.4942 46.2646L25.5215 46.3672L25.4156 46.374C25.065 46.3542 24.7133 46.3829 24.3706 46.4595ZM39.5395 47.8309V51.0891H25.3011V47.8309H39.5395ZM38.9354 43.9148L38.8499 44.0413C38.3065 44.6644 38.0032 45.461 37.9946 46.2877L38.0023 46.3817H26.8315L26.8409 46.286C26.8574 45.4814 26.5696 44.7002 26.0351 44.0985C25.5236 43.3787 25.257 42.5136 25.2746 41.6307C25.2823 40.0824 25.2806 38.5093 25.2789 36.9866C25.278 36.3423 25.2777 35.6974 25.278 35.052C25.278 34.4086 25.3728 34.0642 25.6061 33.8617C25.8514 33.6498 26.2367 33.6053 26.9443 33.7087L27.0186 33.719V36.2098C27.0186 36.35 27.0178 36.491 27.0169 36.6311C27.0143 36.9746 27.0118 37.3301 27.0246 37.6779C27.0217 37.7671 27.037 37.8561 27.0694 37.9393C27.1018 38.0225 27.1508 38.0983 27.2133 38.1621C27.2758 38.2259 27.3506 38.2764 27.4332 38.3105C27.5157 38.3446 27.6043 38.3616 27.6936 38.3606H27.7167C27.8076 38.3631 27.898 38.3472 27.9825 38.3138C28.067 38.2804 28.1439 38.2303 28.2086 38.1665C28.2733 38.1026 28.3243 38.0263 28.3587 37.9422C28.3932 37.8581 28.4102 37.7679 28.4088 37.677C28.4191 37.5198 28.4174 37.3566 28.4148 37.1985C28.4139 37.1301 28.4131 37.0609 28.4131 36.9925C28.4131 33.1892 28.4134 29.386 28.4139 25.5829L28.4122 25.4633C28.4114 25.3629 28.4105 25.2629 28.4165 25.1634C28.4172 24.9277 28.5087 24.7013 28.6719 24.5312C28.8352 24.3612 29.0577 24.2606 29.2932 24.2504H29.3129C29.4317 24.2551 29.5482 24.2839 29.6555 24.3351C29.7628 24.3863 29.8586 24.4588 29.937 24.5482C30.0154 24.6375 30.0748 24.7419 30.1116 24.8549C30.1484 24.968 30.1619 25.0873 30.1511 25.2057C30.1545 26.6575 30.1554 28.1093 30.1537 29.561L30.1528 32.5389C30.1519 33.161 30.1511 33.7839 30.1554 34.406C30.1485 34.5227 30.165 34.6395 30.2039 34.7497C30.2428 34.8599 30.3033 34.9612 30.3818 35.0477C30.4489 35.1081 30.5274 35.1545 30.6126 35.1842C30.6979 35.2138 30.7882 35.2261 30.8783 35.2203C31.3072 35.2075 31.5448 34.9161 31.5473 34.4C31.5491 33.872 31.5493 33.3442 31.5482 32.8166C31.5473 32.1023 31.5473 31.3879 31.5533 30.6727C31.536 30.4581 31.601 30.2449 31.7351 30.0763C31.8692 29.9078 32.0623 29.7966 32.2754 29.7653C32.4691 29.7235 32.6713 29.7533 32.8447 29.8491C33.0181 29.945 33.151 30.1003 33.2187 30.2865C33.2741 30.4503 33.2973 30.6232 33.2871 30.7957C33.2897 31.3734 33.2897 31.9322 33.2897 32.4902C33.2888 33.1277 33.2897 33.7654 33.2922 34.4034C33.2956 34.8691 33.5144 35.1648 33.8921 35.2143C33.9889 35.233 34.0887 35.2297 34.1841 35.2048C34.2794 35.1798 34.368 35.1337 34.4432 35.07C34.5214 34.9959 34.5831 34.9062 34.6242 34.8066C34.6653 34.7071 34.6849 34.6 34.6816 34.4923C34.691 33.8865 34.6893 33.2704 34.6885 32.6748C34.6876 32.3612 34.6876 32.0476 34.6885 31.734L34.6876 31.6665C34.6824 31.5302 34.6904 31.3937 34.7115 31.2589C34.7431 31.0555 34.8457 30.8699 35.0012 30.735C35.1568 30.6001 35.3551 30.5248 35.5609 30.5223C35.5788 30.5223 35.5976 30.5223 35.6164 30.5241C35.8322 30.5366 36.0351 30.6305 36.1842 30.7869C36.3333 30.9433 36.4175 31.1505 36.4197 31.3666C36.4316 32.0007 36.4308 32.6458 36.4299 33.2696C36.4299 33.5558 36.4291 33.8421 36.4299 34.1283V34.2275C36.4257 34.3438 36.4297 34.4603 36.4419 34.5761C36.4508 34.7524 36.5281 34.9183 36.6573 35.0386C36.7865 35.1589 36.9575 35.2241 37.134 35.2204H37.1579C37.2472 35.2213 37.3357 35.2039 37.418 35.1694C37.5003 35.1349 37.5747 35.084 37.6367 35.0198C37.6987 34.9556 37.7469 34.8794 37.7785 34.7959C37.81 34.7124 37.8242 34.6234 37.8202 34.5342C37.8304 34.2813 37.8304 34.0232 37.8296 33.7737C37.8296 33.4952 37.8296 33.2072 37.8441 32.9244C37.845 32.7249 37.9181 32.5325 38.0499 32.3828C38.1817 32.2331 38.3633 32.1362 38.561 32.11C38.7392 32.0725 38.9249 32.0966 39.0877 32.1782C39.2505 32.2598 39.3808 32.3943 39.4574 32.5595C39.5353 32.7235 39.5736 32.9035 39.5693 33.085C39.5744 35.9843 39.5747 38.883 39.5702 41.7812C39.5799 42.5403 39.3585 43.2845 38.9354 43.9148ZM50.5488 32.2219L50.4693 32.2288C50.4325 32.2322 50.3949 32.2356 50.3574 32.2399C50.2649 32.251 50.1719 32.2573 50.0788 32.2587C48.9013 32.2595 47.7084 32.2604 46.5079 32.2604C44.7733 32.2604 43.025 32.2587 41.2938 32.2536C41.2019 32.2576 41.1101 32.243 41.024 32.2105C40.938 32.1781 40.8594 32.1285 40.7931 32.0647C39.8745 30.7736 39.3772 30.5668 37.8587 30.8206L37.7852 30.8326L37.7613 30.7625C37.6629 30.4405 37.4944 30.1443 37.2679 29.8952C37.0414 29.6461 36.7626 29.4503 36.4514 29.3218C36.1331 29.1904 35.7901 29.1297 35.446 29.1439C35.102 29.158 34.7651 29.2467 34.4587 29.4039L34.3946 29.4333L34.3519 29.3773C34.0572 28.9586 33.6378 28.6436 33.1536 28.4773C32.6693 28.3111 32.1449 28.302 31.6551 28.4515L31.5492 28.4754V28.366C31.5492 28.0593 31.5466 27.7551 31.544 27.4526C31.5389 26.7643 31.5338 26.1144 31.5552 25.4497C31.6109 24.9595 31.5123 24.4641 31.2732 24.0326C31.0341 23.601 30.6664 23.2548 30.2213 23.0421C30.1547 22.9999 30.099 22.9426 30.0588 22.8748C30.0185 22.807 29.9949 22.7307 29.9897 22.652C29.9803 20.4128 29.9803 18.1732 29.9812 15.9088V14.8475H50.5488V32.2219Z" fill="#F35431"/>
<path d="M26.2666 15.7836C26.0521 15.7242 25.8376 15.6712 25.6223 15.6178L25.3334 15.5461C25.1882 15.5093 25.0421 15.4713 24.8968 15.4337C23.8368 15.0956 22.7268 14.9408 21.6147 14.9757C20.9918 15.0304 20.8192 15.1868 20.7354 15.7725C20.7202 15.8978 20.6973 16.0221 20.6671 16.1447C20.5666 16.4891 20.3577 16.7919 20.0713 17.0081C19.785 17.2242 19.4365 17.3422 19.0777 17.3444H19.0768C18.7175 17.3434 18.3683 17.2257 18.0818 17.0089C17.7953 16.7921 17.587 16.488 17.4884 16.1425C17.4615 16.0278 17.4424 15.9115 17.4311 15.7943C17.4235 15.7259 17.4149 15.6571 17.4038 15.5896C17.3959 15.4379 17.3315 15.2946 17.2234 15.1879C17.1152 15.0812 16.9711 15.0187 16.8193 15.0128L16.627 15.0068C16.0097 14.9674 15.39 14.9895 14.7771 15.0726C14.0892 15.191 13.3988 15.3803 12.7314 15.5635C12.481 15.6327 12.2298 15.7015 11.9786 15.7669C11.8759 15.7751 11.776 15.8046 11.6854 15.8536C11.5947 15.9026 11.5153 15.9699 11.4522 16.0514C11.3891 16.1328 11.3436 16.2265 11.3187 16.3265C11.2939 16.4265 11.2902 16.5305 11.3078 16.6321C11.3001 17.6809 11.3001 18.5982 11.3078 19.4369C11.2945 19.5701 11.3115 19.7045 11.3576 19.8301C11.4036 19.9557 11.4774 20.0693 11.5736 20.1624C11.6924 20.2351 11.8262 20.2799 11.9649 20.2935C12.1035 20.3071 12.2435 20.2892 12.3742 20.241L14.4472 19.7334V22.1102C14.4472 23.5449 14.4475 24.9797 14.4481 26.4147C14.4498 27.1564 14.6737 27.3825 15.406 27.3828C17.8464 27.385 20.284 27.385 22.7187 27.3828C23.4869 27.3828 23.7091 27.1628 23.7099 26.401C23.7108 24.8946 23.7111 23.3881 23.7108 21.8817V19.7288L24.4713 19.9206C24.949 20.0415 25.4095 20.1582 25.8718 20.2676C25.9898 20.3044 26.1145 20.3144 26.2368 20.2966C26.3591 20.2789 26.4759 20.2339 26.5785 20.165C26.6679 20.0856 26.7381 19.9869 26.7839 19.8765C26.8296 19.766 26.8496 19.6465 26.8425 19.5271C26.8536 18.6979 26.8502 17.8536 26.8468 17.0372L26.845 16.539C26.8585 16.364 26.8069 16.1901 26.7002 16.0507C26.5934 15.9114 26.4391 15.8162 26.2666 15.7836ZM25.4326 18.7026L24.731 18.5338C24.3106 18.4334 23.8996 18.3347 23.4895 18.2335C23.0391 18.1207 22.7469 18.1335 22.5717 18.2706C22.3957 18.4086 22.3137 18.6906 22.3137 19.1593C22.3128 20.6995 22.3125 22.2397 22.3128 23.78V25.9491H15.8819L15.8776 25.8662C15.8751 25.8179 15.8716 25.7684 15.8674 25.7171C15.8597 25.6 15.8511 25.4765 15.8511 25.3531C15.8503 24.4127 15.85 23.4723 15.8503 22.532C15.8503 21.4036 15.85 20.2751 15.8494 19.1465C15.8485 18.6872 15.7674 18.4099 15.593 18.2732C15.4153 18.1361 15.1188 18.1228 14.6565 18.2373C14.2557 18.336 13.855 18.4326 13.4354 18.533L12.7202 18.7052V16.9752L13.6106 16.7927C14.2745 16.6564 14.9385 16.5202 15.6041 16.3886C15.6719 16.3702 15.7427 16.3658 15.8122 16.3758C15.8817 16.3858 15.9484 16.41 16.0082 16.4468C16.068 16.4836 16.1197 16.5322 16.1599 16.5897C16.2002 16.6473 16.2283 16.7124 16.2424 16.7812C16.4549 17.3584 16.8402 17.8561 17.3456 18.2065C17.8511 18.557 18.4523 18.7431 19.0674 18.7397H19.0759C19.6899 18.747 20.2911 18.565 20.798 18.2185C21.3048 17.872 21.6926 17.3777 21.9086 16.803C21.9243 16.7315 21.9541 16.6638 21.9963 16.6039C22.0385 16.544 22.0921 16.4931 22.1541 16.4541C22.2162 16.4151 22.2853 16.3889 22.3576 16.3769C22.4299 16.3649 22.5038 16.3674 22.5751 16.3843C22.6358 16.3914 22.6968 16.3952 22.7579 16.3958C22.8524 16.3956 22.9466 16.405 23.0391 16.424C23.6329 16.5659 24.226 16.7141 24.8241 16.8632L25.4325 17.0153L25.4326 18.7026Z" fill="#F35431"/>
<path d="M22.5494 29.9105C21.8872 29.9028 20.5413 29.9063 19.4604 29.9097C19.0007 29.9105 18.5914 29.9114 18.3085 29.9114H17.5267C17.0072 29.9122 16.4859 29.9122 15.963 29.9114C15.8151 29.9122 15.6682 29.9114 15.5212 29.9105C15.141 29.9079 14.7462 29.9054 14.3582 29.9233C14.269 29.921 14.1802 29.9367 14.0972 29.9695C14.0142 30.0024 13.9387 30.0516 13.8752 30.1143C13.8117 30.1771 13.7615 30.2519 13.7276 30.3345C13.6937 30.4171 13.6769 30.5057 13.6781 30.5949C13.6725 30.7754 13.7383 30.9507 13.8611 31.083C13.984 31.2152 14.154 31.2938 14.3343 31.3016C14.4268 31.311 14.5199 31.315 14.6129 31.3136H14.6437C16.8106 31.3136 20.3781 31.3144 22.5417 31.3127C22.7269 31.3125 22.9044 31.239 23.0356 31.1084C23.1668 30.9778 23.241 30.8005 23.242 30.6154C23.243 30.4303 23.1708 30.2522 23.041 30.1202C22.9113 29.9881 22.7345 29.9127 22.5494 29.9105L22.5494 29.9105Z" fill="#F35431"/>
<path d="M20.4939 36.1996H20.4931C19.7394 36.1962 18.9849 36.197 18.2312 36.1978L17.5519 36.1987L16.6043 36.1978C16.2881 36.1978 15.9719 36.197 15.6558 36.197C15.2764 36.197 14.8973 36.1978 14.5184 36.1995C13.975 36.2021 13.6759 36.4482 13.6768 36.8916C13.6785 37.3291 13.9946 37.5915 14.521 37.5932C16.5128 37.5958 18.5049 37.5958 20.4973 37.5932C21.0228 37.5914 21.3373 37.3283 21.3364 36.8891C21.3348 36.4474 21.0357 36.2021 20.4939 36.1996Z" fill="#F35431"/>
<path d="M14.5254 34.4539C16.6702 34.459 18.6244 34.459 20.5008 34.4539C20.6195 34.4614 20.7385 34.4455 20.851 34.4069C20.9634 34.3683 21.0672 34.3079 21.1562 34.2291C21.2174 34.1649 21.2648 34.0889 21.2957 34.0057C21.3265 33.9226 21.3401 33.834 21.3357 33.7455C21.3322 33.1824 20.8734 33.0619 20.4889 33.0593C19.7865 33.0568 19.0838 33.0562 18.3808 33.0576H16.6232C16.3301 33.0567 16.037 33.0564 15.7439 33.0567C15.3346 33.0567 14.925 33.0576 14.5151 33.0593C13.9725 33.0635 13.6751 33.3105 13.6778 33.754C13.6803 34.1907 13.9973 34.4521 14.5254 34.4539Z" fill="#F35431"/>
<path d="M10.6359 34.4564C10.6693 34.4564 10.7009 34.4573 10.7316 34.4564L10.8188 34.4521C10.906 34.4521 10.9923 34.4564 11.076 34.4564C11.1254 34.4567 11.1747 34.4544 11.2239 34.4496C11.4113 34.4461 11.5898 34.3692 11.7211 34.2354C11.8525 34.1017 11.9261 33.9218 11.9263 33.7344C11.9178 33.5476 11.8355 33.3718 11.6976 33.2456C11.5597 33.1194 11.3773 33.053 11.1906 33.061C11.0214 33.0542 10.8479 33.055 10.6804 33.0585H10.6437C10.3079 33.0627 9.74474 33.1567 9.74219 33.7463C9.74129 34.1804 10.0754 34.4453 10.6359 34.4564Z" fill="#F35431"/>
<path d="M11.1963 36.2021C11.0656 36.1979 10.9297 36.1936 10.793 36.1936C10.6563 36.1936 10.5179 36.1979 10.3803 36.2081C10.2157 36.2166 10.06 36.2856 9.94319 36.4018C9.82634 36.5181 9.75651 36.6733 9.7471 36.8379C9.72961 36.9968 9.77075 37.1567 9.8628 37.2874C9.95484 37.4182 10.0915 37.5108 10.247 37.548C10.3732 37.5792 10.5024 37.5963 10.6324 37.5992L10.7537 37.6069L10.8127 37.5915C10.9015 37.5915 10.9895 37.595 11.075 37.595C11.1237 37.595 11.1715 37.5941 11.2185 37.5898C11.4058 37.587 11.5846 37.5112 11.7169 37.3786C11.8491 37.246 11.9245 37.067 11.9269 36.8798C11.9237 36.7872 11.9022 36.6962 11.8637 36.612C11.8252 36.5278 11.7704 36.452 11.7025 36.389C11.6346 36.3261 11.555 36.2771 11.4681 36.2451C11.3812 36.213 11.2889 36.1984 11.1963 36.2021Z" fill="#F35431"/>
<path d="M11.2428 29.9225C11.0167 29.9077 10.7899 29.9049 10.5635 29.9139C10.0645 29.9293 9.74916 30.1917 9.74232 30.5975C9.73463 31.0188 10.0568 31.2931 10.584 31.3136C10.631 31.3154 10.6771 31.3154 10.7233 31.3136L10.8104 31.3042C10.86 31.3042 10.9087 31.3051 10.9583 31.3068C11.0585 31.3132 11.1591 31.3115 11.259 31.3016C11.4386 31.2907 11.6073 31.2122 11.7313 31.0818C11.8552 30.9515 11.9253 30.7791 11.9273 30.5993C11.9234 30.4196 11.8499 30.2485 11.7221 30.1222C11.5944 29.9959 11.4225 29.9243 11.2428 29.9225Z" fill="#F35431"/>
<path d="M20.6437 44.0472C20.1387 44.0387 19.6226 44.0336 19.0877 44.0336C18.5869 44.0336 18.0691 44.0378 17.5291 44.0455C17.4349 44.0425 17.341 44.0588 17.2533 44.0932C17.1656 44.1276 17.0858 44.1795 17.0187 44.2458C16.9517 44.3121 16.8989 44.3913 16.8634 44.4786C16.828 44.566 16.8107 44.6596 16.8126 44.7538C16.8146 44.8481 16.8356 44.9409 16.8746 45.0267C16.9135 45.1126 16.9696 45.1896 17.0392 45.253C17.1089 45.3165 17.1907 45.3652 17.2798 45.396C17.3689 45.4268 17.4633 45.4392 17.5573 45.4324C17.9187 45.441 18.2861 45.4375 18.6425 45.4358L19.0689 45.4341C19.2398 45.4366 19.4081 45.4349 19.5781 45.4358C19.9208 45.4376 20.2762 45.4401 20.6249 45.4307C20.7173 45.4373 20.8101 45.4245 20.8973 45.393C20.9845 45.3616 21.0641 45.3123 21.1311 45.2482C21.1981 45.1841 21.2509 45.1067 21.2861 45.021C21.3214 44.9353 21.3383 44.8432 21.3358 44.7505C21.3403 44.6579 21.3256 44.5654 21.2925 44.4788C21.2595 44.3921 21.2089 44.3133 21.1438 44.2472C21.0788 44.1812 21.0008 44.1293 20.9147 44.0948C20.8286 44.0604 20.7364 44.0442 20.6437 44.0472Z" fill="#F35431"/>
<path d="M20.5228 9.29546C20.6752 9.32104 20.8298 9.33135 20.9842 9.32622H21.0645C21.3865 9.35966 21.709 9.26871 21.966 9.07201C22.0232 9.01213 22.0675 8.94116 22.0962 8.86349C22.1248 8.78581 22.1372 8.70308 22.1326 8.62041C22.1376 8.53948 22.1258 8.4584 22.0978 8.38228C22.0699 8.30617 22.0265 8.23668 21.9703 8.17821C21.7072 7.98046 21.3771 7.89379 21.0509 7.93682C21.0013 7.93682 20.9526 7.93553 20.9039 7.93425C20.8025 7.92874 20.7008 7.93031 20.5997 7.93895C20.4273 7.94336 20.2635 8.01461 20.1428 8.13764C20.0221 8.26068 19.9539 8.42584 19.9528 8.5982C19.941 8.76518 19.9934 8.93036 20.0994 9.05997C20.2053 9.18957 20.3568 9.27381 20.5228 9.29546Z" fill="#F35431"/>
<path d="M16.6229 9.30231C16.773 9.3242 16.9249 9.33235 17.0766 9.32666L17.1561 9.32623H17.1612C18.0789 9.32623 18.1943 8.93317 18.2011 8.63708C18.2087 8.55359 18.1989 8.46942 18.1722 8.38992C18.1456 8.31042 18.1028 8.23731 18.0464 8.17523C17.7969 7.98682 17.4848 7.90092 17.174 7.93512C17.1167 7.9364 17.0578 7.93425 16.9997 7.93298C16.898 7.92822 16.7961 7.92951 16.6946 7.93683C16.5231 7.94281 16.36 8.01285 16.2375 8.13316C16.1151 8.25346 16.0422 8.41528 16.0332 8.5867C16.0242 8.75812 16.0797 8.92669 16.1889 9.05916C16.2981 9.19163 16.4529 9.27839 16.6229 9.30231H16.6229Z" fill="#F35431"/>
<path d="M35.7316 18.7393C35.8862 18.7402 36.0418 18.7411 36.1964 18.7402L36.4092 18.7398H36.4775L36.4938 18.806C36.5057 18.8508 36.516 18.8906 36.5263 18.9265C36.5466 18.9917 36.562 19.0584 36.5724 19.126C36.6331 19.6199 36.6932 20.1136 36.7527 20.6072C36.8851 21.6954 37.0176 22.7832 37.1586 23.8701L37.168 23.9509C37.1757 24.2259 37.2531 24.4944 37.3927 24.7314C37.5317 24.8618 37.7015 24.9548 37.8862 25.0018H37.901C37.7506 25.1829 37.6549 25.4031 37.6251 25.6365C37.5953 25.87 37.6326 26.1072 37.7326 26.3202C37.8326 26.5333 37.9913 26.7135 38.1899 26.8397C38.3886 26.9659 38.6191 27.0329 38.8545 27.0329C39.0899 27.0329 39.3204 26.9659 39.5191 26.8397C39.7177 26.7135 39.8764 26.5333 39.9764 26.3202C40.0764 26.1072 40.1137 25.87 40.0839 25.6365C40.0541 25.4031 39.9584 25.1829 39.808 25.0018H41.8093C41.637 25.1766 41.5205 25.3985 41.4745 25.6395C41.4285 25.8805 41.455 26.1298 41.5508 26.3557C41.6466 26.5816 41.8072 26.774 42.0124 26.9086C42.2177 27.0431 42.4582 27.1137 42.7035 27.1114C42.9489 27.1091 43.1881 27.034 43.3907 26.8957C43.5934 26.7574 43.7504 26.562 43.842 26.3344C43.9335 26.1067 43.9554 25.857 43.9049 25.6169C43.8544 25.3768 43.7338 25.157 43.5583 24.9855C43.6871 24.9616 43.8064 24.9016 43.9025 24.8127C43.9986 24.7237 44.0676 24.6093 44.1014 24.4828C44.2885 23.9154 44.4771 23.3486 44.667 22.7823C44.9866 21.8266 45.3164 20.8384 45.6309 19.8629C45.6717 19.7566 45.6868 19.6422 45.6751 19.5289C45.6633 19.4156 45.6251 19.3067 45.5634 19.211C45.489 19.1161 45.3932 19.0401 45.284 18.9891C45.1747 18.9381 45.055 18.9136 44.9345 18.9175C44.5491 18.9055 44.1535 18.9076 43.7749 18.911C43.61 18.9119 43.4459 18.9132 43.281 18.9132H37.9558L37.9456 18.8371C37.9336 18.7406 37.9225 18.6504 37.9114 18.5646C37.8917 18.4035 37.8746 18.2569 37.8499 18.1117C37.7524 17.5216 37.5499 17.3499 36.9475 17.346C36.5493 17.3426 36.1511 17.3426 35.7529 17.346C35.6234 17.338 35.4936 17.3557 35.371 17.3982C35.2484 17.4406 35.1354 17.507 35.0386 17.5934C34.9799 17.6544 34.9344 17.7267 34.9047 17.8059C34.875 17.8851 34.8618 17.9695 34.866 18.054C34.8737 18.477 35.1975 18.7329 35.7316 18.7393ZM44.0039 20.3458L43.7578 21.0853C43.5049 21.8484 43.2434 22.6371 42.9768 23.4078C42.9444 23.4669 42.8974 23.5167 42.8402 23.5524C42.7831 23.5882 42.7178 23.6087 42.6504 23.6121C41.8054 23.6176 40.9603 23.6189 40.1024 23.6189C39.858 23.6189 39.6119 23.6185 39.3658 23.6185H38.5369L38.4592 22.9972L38.1268 20.3457L44.0039 20.3458Z" fill="#F35431"/>
</svg>
