<svg width="57" height="57" viewBox="0 0 57 57" fill="none" xmlns="http://www.w3.org/2000/svg">
<path d="M16.25 22.2996V32.3621H21.9375L32.875 37.1746L34.1875 38.4871V40.6746L32.875 43.7371L34.1875 44.1746L36.8125 45.0496L41.625 43.2996V27.1121H33.3125V15.7371H24.5625V22.2996H16.25Z" fill="#FFF8F7"/>
<path d="M16.4113 12.5277C16.5783 12.4595 16.7341 12.3664 16.8733 12.2516L16.9697 12.1817C17.2701 11.9659 17.5654 11.7396 17.8606 11.5139C18.4599 11.0339 19.09 10.5937 19.7468 10.196C22.0683 8.80906 24.6717 7.96118 27.3647 7.71497C30.0577 7.46877 32.7716 7.83055 35.3061 8.77358C35.5799 8.89179 35.8893 8.89679 36.1667 8.78748C36.2497 8.74592 36.3232 8.68779 36.3828 8.6167C36.4424 8.5456 36.4868 8.46304 36.5132 8.37412C36.6773 7.89172 36.4463 7.53003 35.8255 7.2986C33.0904 6.28986 30.1653 5.90125 27.2617 6.16084C24.3581 6.42043 21.5484 7.32173 19.0356 8.79964C18.1315 9.36505 17.2621 9.98418 16.4321 10.6537C16.2072 10.8274 15.9826 11.0002 15.7582 11.1721C15.6077 11.2804 15.5038 11.4416 15.4674 11.6233C15.431 11.8051 15.4648 11.9939 15.562 12.1517C15.6406 12.3008 15.7672 12.419 15.9213 12.4872C16.0754 12.5554 16.248 12.5697 16.4113 12.5277Z" fill="#F35431"/>
<path d="M13.7129 15.4082C13.9177 15.4079 14.1142 15.327 14.2599 15.183C14.4056 15.0391 14.4889 14.8437 14.4918 14.6388C14.4945 14.538 14.4772 14.4377 14.441 14.3436C14.4047 14.2495 14.3503 14.1635 14.2807 14.0904C14.2112 14.0174 14.1279 13.9589 14.0357 13.9181C13.9434 13.8773 13.8441 13.8552 13.7433 13.8529H13.7172C13.6184 13.85 13.52 13.8668 13.4277 13.9024C13.3355 13.938 13.2513 13.9916 13.18 14.0602C13.1088 14.1287 13.0519 14.2108 13.0128 14.3016C12.9737 14.3924 12.9531 14.49 12.9522 14.5889C12.9468 14.6956 12.9632 14.8023 13.0004 14.9025C13.0376 15.0027 13.0947 15.0942 13.1684 15.1717C13.2384 15.2459 13.3227 15.3052 13.4163 15.3459C13.5099 15.3866 13.6108 15.4078 13.7129 15.4082Z" fill="#F35431"/>
<path d="M52.8803 44.7284C52.7988 44.1736 52.6039 43.6416 52.3078 43.1654C52.0117 42.6893 51.6207 42.2792 51.1591 41.9607C50.6664 41.647 50.1144 41.438 49.5374 41.3469C48.9604 41.2557 48.3708 41.2844 47.8054 41.431L42.6791 42.6086V38.8902C51.1677 33.2851 48.3148 21.5623 48.2847 21.4437C48.2603 21.3474 48.2172 21.2569 48.1579 21.1773C48.0985 21.0977 48.0241 21.0306 47.9388 20.9798C47.8535 20.929 47.759 20.8954 47.6608 20.8811C47.5625 20.8668 47.4624 20.872 47.3662 20.8964C47.2699 20.9208 47.1794 20.9639 47.0998 21.0232C47.0202 21.0826 46.9531 21.157 46.9023 21.2423C46.8514 21.3276 46.8179 21.4221 46.8036 21.5203C46.7893 21.6186 46.7945 21.7187 46.8188 21.8149C46.8453 21.9191 49.2353 31.8083 42.6791 37.0247C42.679 33.0481 42.6788 28.342 42.6783 27.2199C42.6783 26.2916 42.4672 26.078 41.5485 26.0775C40.0036 26.0758 38.4589 26.0755 36.9146 26.0767L34.1296 26.0771V22.9217C34.1305 20.5588 34.1299 18.196 34.1279 15.8334C34.127 15.166 33.8726 14.892 33.249 14.8868C30.4832 14.8651 27.7173 14.8516 24.9514 14.8464H24.947C24.307 14.8464 24.0204 15.1421 24.0187 15.8056C24.0152 16.8685 24.0146 17.9311 24.017 18.9935L24.0178 21.1445L16.5035 21.1454C15.7124 21.1458 15.4718 21.3886 15.4718 22.1845L15.4709 31.5737H12.9865V30.6541C12.9865 30.0271 12.9213 29.7188 12.7546 29.5547C12.5913 29.394 12.2839 29.3284 11.6899 29.3423H11.6612C11.5686 29.358 11.4735 29.3521 11.3835 29.325C11.2934 29.2979 11.2109 29.2504 11.1423 29.1861C11.0737 29.1218 11.0209 29.0426 10.988 28.9545C10.9551 28.8664 10.943 28.7719 10.9526 28.6784C10.9387 28.4444 10.9075 28.2117 10.8753 27.9789C10.8476 27.7692 10.8189 27.5599 10.8033 27.3493C10.5594 24.2621 11.1007 21.1634 12.3768 18.3417C12.4386 18.2245 12.4763 18.096 12.4877 17.9639C12.499 17.8319 12.4838 17.6989 12.4428 17.5728C12.4044 17.4807 12.3477 17.3973 12.276 17.3279C12.2043 17.2585 12.1193 17.2044 12.026 17.169C11.5909 16.9853 11.188 17.1855 10.9526 17.7065C9.64413 20.5716 9.04682 23.7102 9.21147 26.8556C9.23665 27.361 9.28267 27.8582 9.33134 28.3845C9.35305 28.6263 9.37563 28.8703 9.39648 29.1183L9.41211 29.3019L9.08732 29.318C8.97357 29.3245 8.86157 29.331 8.74864 29.331H7.36439C6.62363 29.3293 5.88809 29.3293 5.15081 29.3337C4.42656 29.3372 4.15475 29.605 4.14953 30.3224C4.14778 30.5342 4.14866 30.747 4.14866 30.9598L4.14955 35.1542L4.15042 46.7761C4.15042 47.6576 4.63153 47.7609 4.99365 47.7618C7.37657 47.7704 9.75861 47.7707 12.1398 47.7626C12.2502 47.7713 12.3612 47.7564 12.4654 47.7189C12.5696 47.6814 12.6646 47.6222 12.7442 47.5451C12.8238 47.4681 12.8861 47.375 12.927 47.2721C12.9678 47.1692 12.9863 47.0587 12.9813 46.9481C12.9934 46.7718 12.99 46.5946 12.9873 46.3966C12.9856 46.2985 12.9838 46.196 12.9838 46.0857V45.9077L14.078 45.905C14.3724 45.9042 14.6608 45.9024 14.9456 45.9024C15.3876 45.9024 15.8227 45.9059 16.2595 45.9163C16.6279 45.9235 16.9923 45.9934 17.3372 46.123C20.6693 47.4204 23.9996 48.723 27.3282 50.0308L31.3412 51.6035C33.2536 52.41 35.3591 52.6435 37.4018 52.2757C38.5472 52.056 39.7022 51.7624 40.8181 51.4785L43.2262 50.8723C45.4728 50.3087 47.7967 49.7269 50.0676 49.1051C50.992 48.8482 51.7896 48.2601 52.3083 47.4529C52.827 46.6458 53.0306 45.676 52.8803 44.7284ZM11.3973 46.1639H5.74826V30.9372H11.3973V46.1639ZM34.4883 41.2851C34.7944 40.6789 34.9409 40.0046 34.914 39.326C34.8871 38.6475 34.6877 37.9869 34.3346 37.4068C34.218 37.2221 34.1502 37.0109 34.1374 36.7928C34.1279 34.0791 34.1259 31.3656 34.1314 28.6524V28.1096C34.1327 28.0486 34.1388 27.9878 34.1496 27.9277L34.1809 27.6745H41.0917V42.9542L40.3309 43.14C38.9456 43.5411 37.5168 43.7726 36.0757 43.8295C35.6116 43.8311 35.1482 43.793 34.6906 43.7158C34.6083 43.7158 34.527 43.6982 34.452 43.6641C34.3771 43.63 34.3104 43.5803 34.2563 43.5183C34.2023 43.4562 34.1621 43.3833 34.1386 43.3044C34.1151 43.2255 34.1088 43.1425 34.1201 43.061C34.0974 42.448 34.2238 41.8386 34.4883 41.2851ZM25.5836 20.7485L25.5845 16.852C25.5854 16.8005 25.5897 16.7492 25.5975 16.6983L25.6236 16.4525H32.5335V35.7725L29.0485 34.3335C28.0568 33.9236 27.0639 33.5155 26.0699 33.109C25.9217 33.0729 25.791 32.9859 25.7004 32.8632C25.6098 32.7406 25.5651 32.59 25.574 32.4378C25.5836 28.5416 25.5868 24.6452 25.5836 20.7485ZM17.0767 22.745H23.9849V32.3596L23.707 32.1703C22.8354 31.6633 21.8193 31.4625 20.8203 31.5998C20.5364 31.6076 20.2524 31.6137 19.971 31.6085C19.3588 31.5928 18.7448 31.5963 18.1187 31.6007C17.8339 31.6024 17.5456 31.6042 17.2547 31.6042H17.0766L17.0767 22.745ZM49.4823 47.6514L49.1028 47.7496C45.3504 48.7178 41.4703 49.7183 37.6397 50.6509C36.9748 50.813 36.2929 50.8946 35.6085 50.8941C34.3646 50.8832 33.1338 50.6384 31.9803 50.1724L28.0846 48.6441C24.6431 47.2928 21.1999 45.9459 17.7549 44.6033C17.3277 44.447 16.8776 44.3625 16.4228 44.3532C15.6673 44.3254 14.9283 44.3289 14.1441 44.3367C13.8288 44.3385 13.5119 44.3411 13.1914 44.3411H13.0134V33.1698H15.4007C17.5013 33.1716 19.6003 33.173 21.6975 33.1742C21.9422 33.1661 22.1861 33.2056 22.4157 33.2906C25.5168 34.5645 28.6153 35.846 31.7111 37.135C32.1754 37.3046 32.5774 37.6108 32.8645 38.0131C33.1515 38.4155 33.3101 38.8952 33.3194 39.3894C33.3588 39.8972 33.2469 40.4052 32.9979 40.8496C32.749 41.2939 32.374 41.6545 31.9204 41.8861C31.5835 42.0784 31.2068 42.1908 30.8195 42.2144C30.4322 42.2381 30.0447 42.1724 29.6869 42.0224C28.2844 41.4866 26.8828 40.9488 25.482 40.4089L23.5776 39.6768C23.4746 39.6343 23.3694 39.5975 23.2624 39.5666C23.0743 39.5028 22.8689 39.5136 22.6885 39.5966C22.508 39.6796 22.3663 39.8286 22.2924 40.0129C22.2531 40.1075 22.2333 40.209 22.2341 40.3114C22.2349 40.4138 22.2564 40.515 22.2971 40.6089C22.3379 40.7028 22.3972 40.7876 22.4714 40.8581C22.5456 40.9287 22.6333 40.9835 22.7292 41.0194C23.1703 41.2079 23.6288 41.3798 24.0726 41.5474C24.2628 41.6186 24.453 41.6898 24.6423 41.7628C25.3535 42.0363 26.0659 42.3079 26.7794 42.5774C28.3834 43.1861 30.0412 43.8157 31.6599 44.4688C34.148 45.4777 36.8969 45.6493 39.4912 44.9577C41.6397 44.4305 43.8324 43.9382 45.954 43.4614C46.726 43.2877 47.4983 43.1135 48.2709 42.9386C48.5865 42.8514 48.9165 42.8289 49.241 42.8724C49.5656 42.9159 49.878 43.0245 50.1595 43.1917C50.441 43.359 50.6859 43.5814 50.8793 43.8456C51.0727 44.1098 51.2108 44.4104 51.2851 44.7293C51.3636 45.0397 51.379 45.3628 51.3304 45.6793C51.2817 45.9958 51.17 46.2993 51.0019 46.5718C50.8337 46.8443 50.6126 47.0803 50.3516 47.2657C50.0905 47.4512 49.7949 47.5824 49.4823 47.6514Z" fill="#F35431"/>
<path d="M37.4656 18.9323C37.5481 19.0148 37.6462 19.0804 37.754 19.1251C37.8619 19.1698 37.9776 19.1928 38.0943 19.1928C38.2111 19.1928 38.3267 19.1698 38.4346 19.1251C38.5425 19.0804 38.6405 19.0148 38.7231 18.9323L47.659 9.99632C47.8255 9.82952 47.919 9.60343 47.9189 9.36775C47.9188 9.13206 47.8251 8.90606 47.6585 8.7394C47.4918 8.57275 47.2658 8.47908 47.0301 8.47897C46.7944 8.47887 46.5683 8.57235 46.4015 8.73886L37.4656 17.6748C37.383 17.7574 37.3175 17.8554 37.2728 17.9632C37.2281 18.0711 37.2051 18.1868 37.2051 18.3035C37.2051 18.4203 37.2281 18.5359 37.2728 18.6438C37.3175 18.7517 37.383 18.8497 37.4656 18.9323Z" fill="#F35431"/>
<path d="M39.125 13.6719C39.5856 13.6719 40.0359 13.5353 40.4189 13.2793C40.802 13.0234 41.1005 12.6597 41.2768 12.2341C41.453 11.8085 41.4992 11.3402 41.4093 10.8884C41.3194 10.4366 41.0976 10.0216 40.7719 9.69587C40.4462 9.37015 40.0311 9.14832 39.5794 9.05846C39.1276 8.96859 38.6593 9.01471 38.2337 9.19099C37.8081 9.36728 37.4443 9.6658 37.1884 10.0488C36.9325 10.4318 36.7959 10.8821 36.7959 11.3428C36.7964 11.9603 37.0419 12.5525 37.4786 12.9892C37.9153 13.4259 38.5074 13.6714 39.125 13.6719ZM39.125 10.5256C39.2866 10.5258 39.4445 10.5739 39.5787 10.6637C39.713 10.7536 39.8176 10.8813 39.8793 11.0307C39.941 11.18 39.9571 11.3443 39.9255 11.5027C39.8938 11.6612 39.8159 11.8067 39.7016 11.9209C39.5873 12.0351 39.4417 12.1129 39.2832 12.1443C39.1247 12.1758 38.9605 12.1595 38.8112 12.0977C38.6619 12.0358 38.5343 11.931 38.4446 11.7967C38.3548 11.6623 38.3069 11.5044 38.3069 11.3428C38.3071 11.126 38.3934 10.9181 38.5468 10.7649C38.7002 10.6116 38.9082 10.5256 39.125 10.5256Z" fill="#F35431"/>
<path d="M45.6982 14.8607C45.2376 14.8607 44.7873 14.9973 44.4043 15.2532C44.0212 15.5092 43.7227 15.8729 43.5464 16.2985C43.3701 16.7241 43.324 17.1924 43.4139 17.6442C43.5038 18.096 43.7256 18.511 44.0513 18.8367C44.377 19.1624 44.792 19.3842 45.2438 19.4741C45.6956 19.564 46.1639 19.5179 46.5895 19.3416C47.0151 19.1653 47.3789 18.8668 47.6348 18.4838C47.8907 18.1007 48.0273 17.6504 48.0273 17.1898C48.0268 16.5722 47.7813 15.9801 47.3446 15.5434C46.9079 15.1067 46.3158 14.8612 45.6982 14.8607ZM45.6982 18.007C45.5366 18.0068 45.3787 17.9587 45.2445 17.8688C45.1102 17.7789 45.0056 17.6513 44.9439 17.5019C44.8821 17.3526 44.8661 17.1883 44.8977 17.0298C44.9293 16.8714 45.0072 16.7259 45.1215 16.6117C45.2359 16.4975 45.3815 16.4197 45.54 16.3883C45.6985 16.3568 45.8627 16.373 46.012 16.4349C46.1613 16.4968 46.2888 16.6015 46.3786 16.7359C46.4684 16.8702 46.5163 17.0282 46.5163 17.1898C46.516 17.4066 46.4298 17.6145 46.2764 17.7677C46.123 17.9209 45.915 18.007 45.6982 18.007Z" fill="#F35431"/>
</svg>
