<svg width="57" height="57" viewBox="0 0 57 57" fill="none" xmlns="http://www.w3.org/2000/svg">
<path fill-rule="evenodd" clip-rule="evenodd" d="M46.4375 29.7371H11.4375V27.5496L10.5625 26.6746H8.8125L7.5 27.5496L7.0625 28.8621L8.8125 29.7371L10.5625 30.1746L7.0625 34.5496V45.4871L7.5 46.3621L8.8125 46.7996H49.9375L51.25 45.4871V34.9871L47.3125 30.6121L47.75 29.7371H50.375V28.8621L51.25 27.9871L50.375 27.1121H46.4375V29.7371ZM10.125 35.8621H14.0625L17.125 38.0496L17.5625 39.3621H10.125V35.8621ZM20.625 35.8621L19.75 37.1746L22.8125 39.7996H35.0625L38.125 37.1746L37.6875 36.2996L37.25 35.8621H20.625ZM40.3125 38.4871L44.25 35.8621L47.75 36.2996V37.6121V39.7996H40.3125V38.4871Z" fill="#FFF8F7"/>
<path d="M51.8204 35.1568C51.8304 34.8072 51.7669 34.4593 51.6339 34.1358C51.5008 33.8123 51.3013 33.5203 51.0482 33.2789C50.2317 32.4759 49.4261 31.6618 48.6181 30.8502C48.544 30.7758 48.4859 30.6857 48.3813 30.5534C48.8595 30.5534 49.2613 30.5682 49.6616 30.5505C50.2239 30.5192 50.7548 30.2809 51.152 29.8815C51.5492 29.4821 51.7847 28.95 51.813 28.3874C51.8565 27.8229 51.6803 27.2634 51.3211 26.8258C50.9618 26.3882 50.4474 26.1063 49.8853 26.039C48.6584 25.974 47.339 25.6605 46.2811 26.7652C45.8306 25.4201 45.3556 24.155 44.9858 22.8599C44.7453 21.9632 44.2022 21.1773 43.4486 20.6353C42.695 20.0932 41.7772 19.8283 40.8507 19.8854C35.1249 19.9364 29.3983 19.9022 23.6721 19.9023C21.3667 19.9023 19.0612 19.8912 16.756 19.9066C15.9383 19.8836 15.1356 20.1289 14.4704 20.6051C13.8053 21.0813 13.3144 21.7621 13.0726 22.5436C12.8582 23.1606 12.6578 23.7826 12.45 24.402C12.1914 25.1726 11.9316 25.9429 11.6492 26.7822C11.3539 26.4733 10.9885 26.2402 10.584 26.1025C10.1795 25.9649 9.74778 25.9267 9.32541 25.9914C8.99916 26.0094 8.67096 25.9887 8.34398 25.9978C7.75035 26.013 7.1861 26.2593 6.77137 26.6843C6.35664 27.1093 6.12421 27.6794 6.12357 28.2732C6.12293 28.867 6.35413 29.4377 6.76794 29.8636C7.18175 30.2895 7.74547 30.537 8.33906 30.5534C8.72251 30.5649 9.10657 30.5552 9.6239 30.5552C8.63581 31.5418 7.74484 32.4353 6.84927 33.3242C6.61262 33.551 6.42558 33.8245 6.29999 34.1272C6.1744 34.43 6.11299 34.7556 6.11963 35.0833C6.12398 38.3703 6.12491 41.6573 6.12241 44.9444C6.10298 45.3788 6.21135 45.8095 6.43412 46.183C6.65689 46.5565 6.98428 46.8565 7.37578 47.0458C7.4685 47.0846 7.54548 47.1535 7.59432 47.2414C7.64317 47.3292 7.66104 47.4309 7.64508 47.5302C7.6358 48.1696 7.63955 48.8092 7.6424 49.4488C7.62184 49.7734 7.67056 50.0986 7.78533 50.403C7.90009 50.7073 8.07828 50.9837 8.30806 51.2139C8.53784 51.4441 8.81396 51.6228 9.11809 51.7382C9.42221 51.8535 9.74739 51.9028 10.072 51.8828C11.7527 51.887 13.4334 51.887 15.1141 51.8828C15.4387 51.9036 15.7639 51.855 16.0682 51.7403C16.3725 51.6256 16.6489 51.4474 16.879 51.2176C17.1091 50.9877 17.2876 50.7115 17.4026 50.4073C17.5176 50.1031 17.5665 49.7779 17.5461 49.4534C17.549 48.7582 17.5466 48.063 17.5466 47.3505H40.3915C40.3915 48.0903 40.3873 48.8016 40.3924 49.5128C40.3795 49.8263 40.4316 50.1391 40.5454 50.4315C40.6591 50.7239 40.8321 50.9896 41.0534 51.2121C41.2746 51.4345 41.5395 51.6088 41.8313 51.724C42.1231 51.8392 42.4356 51.8929 42.7492 51.8817C44.4745 51.8899 46.1998 51.8899 47.9251 51.8819C48.2387 51.8942 48.5514 51.8417 48.8437 51.7276C49.136 51.6135 49.4017 51.4404 49.6241 51.219C49.8465 50.9976 50.0208 50.7328 50.1362 50.441C50.2516 50.1492 50.3056 49.8367 50.2947 49.5231C50.3016 48.839 50.283 48.1543 50.3073 47.4709C50.3162 47.3919 50.3421 47.3157 50.3831 47.2476C50.4241 47.1794 50.4793 47.1209 50.5449 47.0759C50.9445 46.8705 51.2767 46.5548 51.5023 46.1663C51.7279 45.7778 51.8373 45.3328 51.8176 44.884C51.8145 41.6416 51.8154 38.3992 51.8204 35.1568ZM47.2709 28.162C47.2823 27.9881 47.3601 27.8253 47.4881 27.7071C47.6162 27.5889 47.7847 27.5244 47.959 27.5269C48.4921 27.5032 49.0276 27.505 49.5611 27.5248C49.7566 27.5301 49.9422 27.6116 50.0785 27.7518C50.2148 27.892 50.291 28.0799 50.2907 28.2755C50.2926 28.4639 50.2226 28.646 50.0949 28.7846C49.9672 28.9232 49.7915 29.0079 49.6035 29.0214C48.8365 29.0473 48.0681 29.029 47.2641 29.029C47.2486 28.7401 47.2509 28.4506 47.2709 28.162V28.162ZM13.786 25.2229C14.0257 24.5047 14.2591 23.7844 14.5047 23.0683C14.6366 22.5818 14.9302 22.1548 15.3372 21.8576C15.7442 21.5603 16.2403 21.4105 16.7438 21.4329C24.8936 21.4278 33.0434 21.4277 41.1932 21.4327C41.674 21.4083 42.1496 21.5429 42.5463 21.8157C42.943 22.0885 43.2389 22.4844 43.3882 22.9421C44.0647 24.9071 44.7099 26.8829 45.3662 28.8549C45.3751 28.9062 45.3782 28.9584 45.3753 29.0105H12.5209C12.9507 27.7238 13.3687 26.4735 13.786 25.2229ZM8.33916 29.0222C8.15105 29.0101 7.97467 28.9266 7.84604 28.7888C7.71741 28.651 7.64625 28.4693 7.6471 28.2808C7.64532 28.0853 7.72003 27.8968 7.85529 27.7556C7.99055 27.6144 8.17564 27.5317 8.37105 27.5251C8.9045 27.5045 9.4403 27.5012 9.97333 27.5269C10.1552 27.5241 10.3308 27.5935 10.4617 27.7198C10.5926 27.8461 10.6683 28.019 10.6721 28.2009C10.6982 28.4614 10.677 28.7266 10.677 29.0294C9.87416 29.0295 9.10595 29.0472 8.33913 29.0222H8.33916ZM16.0184 49.5733C16.024 49.6785 16.0072 49.7837 15.9692 49.8819C15.9312 49.9801 15.8727 50.0691 15.7978 50.1431C15.7228 50.2171 15.633 50.2743 15.5343 50.3111C15.4356 50.3478 15.3302 50.3632 15.2251 50.3562C13.4724 50.3669 11.7197 50.3669 9.96694 50.3562C9.86179 50.3636 9.75625 50.3486 9.65733 50.3122C9.5584 50.2758 9.46834 50.2188 9.39312 50.1449C9.31789 50.0711 9.25921 49.9821 9.22097 49.8838C9.18273 49.7856 9.1658 49.6804 9.17129 49.5751C9.15301 48.8492 9.16652 48.1225 9.16652 47.3589H16.0227C16.0227 48.1205 16.0351 48.8472 16.0184 49.5733ZM48.7664 49.5758C48.7716 49.6811 48.7544 49.7863 48.716 49.8844C48.6775 49.9826 48.6187 50.0715 48.5434 50.1452C48.4681 50.2189 48.378 50.2759 48.2791 50.3123C48.1802 50.3486 48.0747 50.3636 47.9695 50.3562C46.2168 50.3668 44.4641 50.3667 42.7113 50.3561C42.6062 50.3631 42.5008 50.3477 42.4021 50.311C42.3034 50.2742 42.2136 50.2169 42.1388 50.1428C42.0639 50.0687 42.0056 49.9796 41.9678 49.8812C41.93 49.7829 41.9135 49.6777 41.9194 49.5725C41.9032 48.8465 41.9151 48.1199 41.9151 47.3575H48.7713C48.7713 48.1231 48.7852 48.8499 48.7664 49.5758V49.5758ZM50.2939 44.7345C50.2937 45.5532 50.0508 45.7962 49.2279 45.7963C42.4758 45.797 35.7238 45.7972 28.9718 45.7967C22.2495 45.7967 15.5272 45.7967 8.80493 45.7966C7.85497 45.7966 7.64393 45.5882 7.64387 44.6514C7.64367 41.5283 7.64928 38.405 7.63729 35.2819C7.63014 35.0904 7.66469 34.8997 7.73856 34.7229C7.81243 34.546 7.92385 34.3874 8.0651 34.2579C9.21156 33.133 10.3328 31.9824 11.4849 30.8635C11.671 30.6886 11.9127 30.5848 12.1677 30.5701C23.3665 30.5559 34.5653 30.5554 45.7642 30.5686C46.0055 30.5754 46.2367 30.6671 46.4172 30.8273C47.5902 31.9675 48.7343 33.1372 49.9005 34.2845C50.0345 34.4112 50.1396 34.5654 50.2086 34.7365C50.2775 34.9076 50.3087 35.0916 50.2999 35.2758C50.2896 38.4286 50.2946 41.5816 50.2939 44.7345V44.7345Z" fill="#F35431"/>
<path d="M12.9075 16.3358C13.3405 16.7651 13.7774 17.1907 14.2004 17.6297C14.4175 17.8661 14.6816 18.0544 14.9758 18.1826C15.27 18.3109 15.5878 18.3761 15.9087 18.3742C18.2287 18.3796 20.5486 18.3843 22.8685 18.3717C23.2588 18.3859 23.6454 18.2915 23.9852 18.0992C24.3251 17.9068 24.605 17.624 24.7938 17.2821C24.8592 17.1299 24.9738 17.0041 25.1193 16.9248C25.2648 16.8456 25.4326 16.8174 25.596 16.845C25.9428 16.9076 26.2994 16.8889 26.6377 16.7904C26.9761 16.6918 27.287 16.5161 27.5459 16.2771C28.5825 15.1474 28.3769 15.3485 30.1882 15.3241C30.3812 15.3117 30.5748 15.3128 30.7677 15.3272C31.2597 15.423 31.7688 15.3747 32.234 15.1881C32.6992 15.0015 33.1006 14.6846 33.3901 14.2755C33.4555 14.2111 33.5266 14.1526 33.6024 14.1008C33.875 14.5316 34.2624 14.8777 34.7211 15.1001C35.1798 15.3226 35.6915 15.4125 36.1986 15.3598C36.7072 15.4087 37.2196 15.3191 37.6815 15.1007C38.1435 14.8822 38.5378 14.5429 38.8227 14.1187C38.8922 14.1614 38.9569 14.2115 39.0156 14.2681C39.3083 14.6843 39.7161 15.0061 40.189 15.1941C40.6619 15.382 41.1793 15.428 41.6779 15.3263C41.826 15.3329 41.9744 15.3294 42.1219 15.3158C42.4802 15.2466 42.8263 15.1252 43.1492 14.9552C43.7949 14.5332 44.4013 14.0494 45.0123 13.5761C45.2355 13.4367 45.419 13.2422 45.5451 13.0112C45.6712 12.7802 45.7356 12.5206 45.7321 12.2575C45.7287 11.9944 45.6574 11.7366 45.5252 11.509C45.393 11.2815 45.2044 11.0918 44.9775 10.9585C44.4327 10.5453 43.8723 10.1518 43.3387 9.72484C42.9065 9.38021 42.365 9.2022 41.8127 9.22322C37.5743 9.23536 33.3359 9.22672 29.0976 9.23494C28.9203 9.25357 28.7411 9.22902 28.5754 9.16338C28.4097 9.09774 28.2623 8.99297 28.1458 8.858C27.8255 8.43392 27.398 8.10275 26.9074 7.8985C26.4167 7.69425 25.8805 7.62428 25.3539 7.69578C25.2676 7.69037 25.1838 7.66527 25.1087 7.6224C25.0337 7.57953 24.9695 7.52004 24.9211 7.44848C24.7174 7.05647 24.407 6.73011 24.0257 6.50717C23.6443 6.28422 23.2077 6.17379 22.7662 6.18866C20.5057 6.18936 18.2452 6.19273 15.9848 6.18657C15.6645 6.17834 15.3459 6.23555 15.0484 6.35469C14.751 6.47383 14.481 6.6524 14.2549 6.87948C13.7992 7.32809 13.3492 7.78243 12.8981 8.23573C12.675 8.45571 12.4987 8.71869 12.3801 9.00874C12.2615 9.2988 12.203 9.6099 12.2081 9.92323C12.2038 11.4996 12.2041 13.076 12.209 14.6523C12.2046 14.9657 12.2643 15.2767 12.3844 15.5662C12.5045 15.8557 12.6826 16.1176 12.9075 16.3358ZM25.1936 9.26721C25.4896 9.17566 25.8056 9.17129 26.104 9.25463C26.4024 9.33797 26.6704 9.50548 26.8761 9.73714C27.1689 10.0936 27.5438 10.3736 27.9686 10.5531C28.3935 10.7325 28.8556 10.8061 29.3152 10.7675C33.448 10.7341 37.5812 10.7484 41.7141 10.7652C42.0017 10.7794 42.2797 10.8732 42.5171 11.0362C43.0816 11.4134 43.6113 11.8427 44.1973 12.2829C43.5251 12.7855 42.9108 13.274 42.2651 13.7167C41.9486 13.8184 41.6132 13.8479 41.2837 13.8029C40.9543 13.7578 40.6391 13.6395 40.3614 13.4565C40.1491 13.2283 39.9168 13.0194 39.6674 12.8324C39.3555 12.617 38.9711 12.5337 38.598 12.6008C38.225 12.6679 37.8936 12.8799 37.6763 13.1904C37.0455 14.0001 36.2329 13.7977 35.4503 13.7639C35.2432 13.755 35.0377 13.4577 34.851 13.273C33.9258 12.3578 33.134 12.3299 32.2509 13.2736C32.0919 13.4646 31.888 13.6132 31.6575 13.7061C31.427 13.799 31.1771 13.8333 30.9301 13.806C30.3535 13.7633 29.7705 13.8148 29.1915 13.7921C28.7822 13.7511 28.3691 13.8121 27.9892 13.9697C27.6092 14.1273 27.2743 14.3767 27.0142 14.6954C26.807 14.9672 26.521 15.1685 26.1951 15.2718C25.8693 15.3751 25.5196 15.3754 25.1936 15.2727L25.1936 9.26721ZM13.7491 10.0997C13.7877 9.77094 13.9129 9.45833 14.112 9.19383C14.4844 8.63352 15.0105 8.19256 15.6273 7.92384C16.244 7.65513 16.9252 7.57008 17.5891 7.67891C19.242 7.82 20.9162 7.71048 22.5812 7.71135C23.4037 7.71178 23.6284 7.94011 23.6292 8.77645C23.6303 9.95082 23.6304 11.1252 23.6295 12.2995C23.6294 13.5036 23.6324 14.7078 23.6282 15.9118C23.6259 16.5808 23.3803 16.8422 22.7212 16.8441C20.4914 16.8507 18.2615 16.8575 16.0319 16.8317C15.7418 16.8151 15.4661 16.6996 15.2507 16.5045C13.7244 15.0667 13.732 15.0586 13.732 12.953C13.732 12.0016 13.7022 11.0488 13.7491 10.0997Z" fill="#F35431"/>
<path d="M37.0802 35.1218C31.6696 35.1185 26.2591 35.1185 20.8486 35.122C20.4892 35.0978 20.1316 35.1902 19.829 35.3854C19.5263 35.5806 19.2947 35.8682 19.1685 36.2056C19.0459 36.5442 19.0379 36.9136 19.1456 37.2572C19.2533 37.6008 19.4708 37.8995 19.7646 38.1076C20.5031 38.7303 21.2527 39.3398 21.9879 39.9663C22.3712 40.3011 22.8667 40.4791 23.3754 40.465C25.2334 40.4533 27.0914 40.4605 28.9494 40.4605C30.8223 40.4605 32.6952 40.4538 34.5681 40.4647C35.077 40.4777 35.5722 40.2988 35.9552 39.9634C36.6905 39.3371 37.4411 38.7287 38.1783 38.1046C38.4707 37.8944 38.6863 37.5943 38.7922 37.2501C38.8982 36.906 38.8887 36.5366 38.7652 36.1983C38.6374 35.8616 38.4044 35.575 38.1009 35.3811C37.7974 35.1872 37.4394 35.0963 37.0802 35.1218ZM36.4626 37.5553C35.9803 38.0792 35.4169 38.5221 34.7939 38.8669C34.0957 39.0064 33.3793 39.0301 32.6733 38.9371C29.626 38.9395 26.5787 38.9433 23.5315 38.9277C23.2884 38.9184 23.0541 38.8345 22.8602 38.6876C22.1911 38.1688 21.5492 37.6149 20.8993 37.0717C20.7901 36.9804 20.6914 36.8764 20.5006 36.6956H37.3179L37.3653 36.7947C37.0645 37.0484 36.7655 37.3042 36.4626 37.5553V37.5553Z" fill="#F35431"/>
<path d="M47.0883 35.1214C46.0339 35.1151 44.9793 35.1239 43.9249 35.1185C43.4306 35.1076 42.95 35.2817 42.5774 35.6067C41.8308 36.2415 41.0699 36.8593 40.318 37.4877C40.0287 37.6954 39.8148 37.9914 39.7086 38.3312C39.6023 38.671 39.6095 39.0362 39.7289 39.3716C39.8483 39.707 40.0736 39.9945 40.3707 40.1906C40.6678 40.3868 41.0207 40.4811 41.3761 40.4591C42.3265 40.4644 43.2771 40.4604 44.2276 40.4603C45.2078 40.4603 46.188 40.4662 47.1682 40.4586C47.3808 40.4699 47.5934 40.4365 47.7923 40.3607C47.9912 40.2849 48.172 40.1683 48.3232 40.0184C48.4744 39.8685 48.5925 39.6887 48.67 39.4904C48.7476 39.2921 48.7827 39.0798 48.7733 38.8672C48.7839 38.1842 48.7787 37.5008 48.7748 36.8177C48.7965 36.5904 48.7678 36.3611 48.6909 36.1461C48.6139 35.9311 48.4906 35.7357 48.3296 35.5738C48.1686 35.4119 47.9739 35.2874 47.7594 35.2092C47.5448 35.131 47.3157 35.1011 47.0883 35.1214ZM47.227 38.9014H41.1233C41.1964 38.7947 41.2781 38.6942 41.3676 38.6008C42.0723 38.0093 42.7801 37.4215 43.491 36.8376C43.5838 36.7441 43.7027 36.681 43.8321 36.6565C44.9555 36.643 46.0792 36.6484 47.227 36.6484L47.227 38.9014Z" fill="#F35431"/>
<path d="M17.6576 37.518C16.8748 36.8572 16.1046 36.1776 15.2811 35.5709C14.9365 35.3214 14.5294 35.1724 14.105 35.1406C12.9942 35.0829 11.8783 35.1095 10.7647 35.1237C10.5481 35.1135 10.3317 35.1495 10.13 35.2292C9.92822 35.3088 9.74566 35.4304 9.59435 35.5858C9.44304 35.7412 9.32642 35.9269 9.25219 36.1307C9.17795 36.3345 9.1478 36.5518 9.16371 36.7681C9.15767 37.4512 9.15767 38.1343 9.16371 38.8175C9.14768 39.0374 9.17925 39.2583 9.25628 39.4649C9.33332 39.6716 9.45399 39.8593 9.61009 40.0151C9.76619 40.1709 9.95404 40.2912 10.1609 40.3679C10.3677 40.4445 10.5886 40.4757 10.8085 40.4593C11.7589 40.4645 12.7094 40.4604 13.6598 40.4603C14.64 40.4601 15.6201 40.4656 16.6002 40.4584C16.948 40.4714 17.2908 40.3734 17.5792 40.1786C17.8675 39.9838 18.0864 39.7023 18.2042 39.3748C18.3219 39.0474 18.3324 38.691 18.2342 38.3572C18.1359 38.0233 17.934 37.7294 17.6576 37.518V37.518ZM10.7122 38.911V36.6457H11.3062C12.1673 36.6457 13.0285 36.6389 13.8894 36.6517C14.0633 36.6447 14.2352 36.691 14.3822 36.7844C15.1472 37.396 15.8949 38.0293 16.6454 38.659C16.7097 38.7367 16.7654 38.8212 16.8116 38.911H10.7122Z" fill="#F35431"/>
<path d="M35.9485 42.7701C35.7862 42.75 35.6225 42.7432 35.4591 42.7496C33.3029 42.7484 31.1467 42.7482 28.9904 42.7488C26.8193 42.7488 24.6482 42.749 22.4771 42.7493C22.3285 42.7448 22.1797 42.7496 22.0317 42.7636C21.8583 42.7717 21.6942 42.8447 21.572 42.968C21.4497 43.0913 21.3782 43.2559 21.3715 43.4294C21.344 43.6084 21.3863 43.7911 21.4896 43.9398C21.593 44.0884 21.7495 44.1917 21.9269 44.2283C22.1159 44.2658 22.3087 44.2813 22.5013 44.2743C26.8138 44.2767 31.1263 44.2765 35.4388 44.2738C35.646 44.2829 35.8536 44.2625 36.055 44.2131C36.2135 44.1616 36.3502 44.0583 36.4431 43.92C36.536 43.7816 36.5798 43.616 36.5676 43.4498C36.5553 43.2836 36.4876 43.1263 36.3754 43.003C36.2632 42.8798 36.1128 42.7978 35.9485 42.7701L35.9485 42.7701Z" fill="#F35431"/>
<path d="M15.9321 42.7528C14.21 42.7451 12.4878 42.744 10.7658 42.7585C10.6647 42.7521 10.5633 42.7661 10.4677 42.7998C10.3722 42.8335 10.2844 42.8862 10.2096 42.9546C10.051 43.1892 9.97629 43.4705 9.99775 43.7529C10.0618 44.1278 10.4088 44.272 10.7824 44.2739C11.6286 44.2782 12.4748 44.2752 13.321 44.275C14.1969 44.2748 15.0731 44.2866 15.9487 44.2703C16.0569 44.2807 16.1661 44.2676 16.2687 44.2317C16.3714 44.1959 16.465 44.1382 16.5433 44.0628C16.6215 43.9873 16.6825 43.8957 16.722 43.7944C16.7615 43.6931 16.7785 43.5845 16.772 43.4759C16.7705 43.3712 16.7468 43.268 16.7025 43.173C16.6581 43.0781 16.5941 42.9937 16.5148 42.9254C16.4354 42.857 16.3424 42.8063 16.2419 42.7765C16.1415 42.7468 16.0359 42.7387 15.9321 42.7528Z" fill="#F35431"/>
<path d="M47.1139 42.7513C46.2826 42.7435 45.4511 42.7493 44.6197 42.7494C43.7586 42.7494 42.8975 42.7433 42.0364 42.7517C41.4879 42.757 41.1737 43.0342 41.1662 43.4903C41.1583 43.9634 41.4853 44.27 42.0487 44.2727C43.7412 44.2808 45.4337 44.2807 47.1262 44.2722C47.6856 44.2692 48.0095 43.9541 47.995 43.4779C47.9811 43.0215 47.6712 42.7565 47.1139 42.7513Z" fill="#F35431"/>
<path d="M16.7722 15.3177C17.2467 15.3349 17.7223 15.3294 18.1973 15.3221C18.4174 15.3393 18.6386 15.3086 18.8457 15.232C19.0527 15.1554 19.2407 15.0347 19.3965 14.8783C19.5524 14.722 19.6724 14.5336 19.7484 14.3263C19.8243 14.119 19.8543 13.8977 19.8363 13.6777C19.8452 13.2176 19.8378 12.7572 19.8378 12.2969H19.8359C19.8359 11.7921 19.8536 11.2866 19.8321 10.7827C19.8357 10.5737 19.7964 10.3661 19.7166 10.1729C19.6367 9.97966 19.518 9.8049 19.3679 9.65944C19.2177 9.51397 19.0392 9.40091 18.8435 9.32727C18.6479 9.25362 18.4392 9.22096 18.2303 9.2313C17.7702 9.22386 17.31 9.22392 16.8496 9.23151C16.648 9.2201 16.4462 9.24963 16.2563 9.3183C16.0665 9.38698 15.8925 9.49339 15.7448 9.63111C15.5972 9.76884 15.4789 9.93503 15.3972 10.1197C15.3155 10.3043 15.2721 10.5036 15.2694 10.7055C15.2304 11.7581 15.2305 12.8143 15.2697 13.8669C15.2715 14.0613 15.3119 14.2534 15.3887 14.432C15.4655 14.6105 15.5771 14.7721 15.7169 14.9071C15.8568 15.0421 16.0221 15.148 16.2033 15.2185C16.3845 15.289 16.5778 15.3227 16.7722 15.3177ZM16.8152 10.7766H18.2807V13.773H16.8152V10.7766Z" fill="#F35431"/>
</svg>
