<svg width="57" height="57" viewBox="0 0 57 57" fill="none" xmlns="http://www.w3.org/2000/svg">
<path fill-rule="evenodd" clip-rule="evenodd" d="M29.375 5.67456H26.75L24.125 7.86206L23.6875 11.7996V18.3621L25.4375 20.5496L25.875 24.0496V30.6121L27.625 31.0496L37.25 31.4871V34.9871L42.9375 31.4871H46.4375L48.625 29.2996L49.9375 27.9871V9.17456L48.625 6.98706L46.4375 5.67456H29.375ZM36.8125 14.4246C37.1625 14.0746 37.5417 11.9454 37.6875 10.9246H39L39.4375 13.1121L39 16.6121H43.8125L44.25 18.3621L43.8125 25.7996H35.9375L33.75 25.3621H29.375V17.0496H33.3125H34.625C35.2083 16.3204 36.4625 14.7746 36.8125 14.4246Z" fill="#FFF8F7"/>
<path d="M50.5721 9.93196C50.5684 8.76607 50.1688 7.63601 49.4386 6.72707C48.7084 5.81813 47.6911 5.18426 46.5534 4.92939C45.7026 4.78248 44.8395 4.72016 43.9765 4.74332C43.8864 4.72938 43.7954 4.72262 43.7042 4.72313C40.5205 4.72105 32.0767 4.72138 28.893 4.72225C28.1388 4.67748 27.3836 4.79264 26.6769 5.0602C25.9703 5.32775 25.3282 5.74165 24.7927 6.27476C24.2572 6.80786 23.8405 7.44813 23.5698 8.15358C23.2991 8.85904 23.1806 9.61374 23.222 10.3682C23.2185 12.6441 23.2219 14.9201 23.2202 17.196C23.2201 17.3612 23.2041 17.5263 23.1946 17.7082C22.9257 17.6661 22.6549 17.6376 22.3831 17.6228C17.8941 17.6184 13.405 17.5997 8.91618 17.63C7.94302 17.6442 7.00436 17.9927 6.25775 18.6171C5.51113 19.2414 5.00202 20.1036 4.81585 21.0589C4.70336 21.6597 4.70429 25.6225 4.7056 27.8276C4.70162 27.8717 4.69885 27.917 4.69875 27.9653C4.69396 30.289 4.69417 32.6127 4.69938 34.9364C4.69341 35.2385 4.71542 35.5406 4.7651 35.8387C4.95248 36.8839 5.51294 37.8256 6.34232 38.4887C7.1717 39.1518 8.21361 39.4913 9.27445 39.4441C11.1687 39.4561 13.0631 39.4466 14.9574 39.4467H15.5709C15.5709 40.301 15.577 41.0932 15.5681 41.8853C15.5401 42.0511 15.5655 42.2214 15.6407 42.3717C15.7158 42.5221 15.8368 42.6446 15.9862 42.7217C16.1411 42.7867 16.3122 42.8025 16.4764 42.7669C16.6405 42.7313 16.7897 42.646 16.9037 42.5227C17.8951 41.7498 18.8899 40.9815 19.8884 40.2177C20.0063 40.1269 20.1329 40.0475 20.3349 39.9079C20.3349 40.174 20.3349 40.3445 20.3349 40.5149C20.3351 42.9341 20.3237 45.3534 20.339 47.7725C20.3152 48.236 20.3893 48.6994 20.5566 49.1323C20.724 49.5652 20.9807 49.958 21.3101 50.285C21.6396 50.612 22.0342 50.8658 22.4684 51.03C22.9026 51.1941 23.3665 51.2648 23.8298 51.2375C25.0078 51.2409 26.1858 51.2381 27.3637 51.2381H28.0444C28.0444 51.7497 28.0514 52.194 28.0422 52.6379C28.0111 52.8113 28.0341 52.9899 28.1081 53.1498C28.182 53.3096 28.3033 53.4427 28.4556 53.5312C28.8325 53.7302 29.1216 53.555 29.411 53.3281C30.0495 52.8273 30.7206 52.3646 31.3295 51.8305C31.7993 51.4074 32.4175 51.1873 33.0491 51.2182C33.8619 51.2154 34.6437 50.9061 35.2385 50.3522C35.8334 49.7982 36.1974 49.0403 36.2579 48.2297C36.2645 48.1516 36.2681 48.0731 36.2725 47.9947C36.2816 47.9225 36.2863 47.8499 36.2867 47.7771C36.2871 47.7273 36.2874 47.6633 36.2878 47.5871C36.2907 47.4218 36.2912 47.2565 36.2893 47.0911C36.2941 45.0509 36.2922 39.8135 36.2885 38.9302C36.3279 38.4469 36.2614 37.9608 36.0937 37.5059C35.9259 37.0509 35.661 36.638 35.3173 36.296C34.9736 35.954 34.5594 35.691 34.1036 35.5255C33.6479 35.3599 33.1615 35.2958 32.6784 35.3375C30.8319 35.3319 28.9853 35.3363 27.1388 35.3363H26.6123V31.7478C29.9271 32.3257 33.2572 31.8396 36.5974 32.071C36.5974 33.158 36.6038 34.2215 36.5939 35.2849C36.5544 35.454 36.5732 35.6314 36.6473 35.7884C36.7214 35.9454 36.8464 36.0728 37.002 36.1498C37.1575 36.2268 37.3346 36.249 37.5044 36.2127C37.6741 36.1764 37.8267 36.0838 37.9371 35.9499C39.2618 34.9318 40.6223 33.9573 41.9059 32.8901C42.2433 32.5583 42.6514 32.3071 43.0996 32.1556C43.5479 32.004 44.0247 31.956 44.4942 32.015C44.7638 32.0404 45.0352 32.0411 45.305 32.0172C46.6911 32.0027 48.0168 31.448 49.0003 30.4712C49.9838 29.4944 50.5475 28.1725 50.5714 26.7865C50.6031 21.1685 50.6033 15.5503 50.5721 9.93196ZM20.7322 37.1666C20.4181 37.8695 19.908 38.467 19.2631 38.8876C18.6351 39.376 18.0046 39.8611 17.3715 40.3429C17.2779 40.4144 17.1711 40.4689 17.0067 40.5707C17.0067 40.0388 17.0073 39.5808 17.0066 39.1228C17.0051 38.1883 16.8276 38.0112 15.8855 38.0108C13.6728 38.0098 11.4601 38.0213 9.24747 38.0069C8.83194 38.0341 8.41539 37.9724 8.0256 37.8259C7.6358 37.6794 7.28173 37.4515 6.98699 37.1573C6.69226 36.8631 6.46365 36.5095 6.31641 36.12C6.16917 35.7305 6.10668 35.314 6.13312 34.8985C6.12718 33.5138 6.13191 32.1291 6.1318 30.7445C6.13175 30.0302 6.1352 29.3158 6.13274 28.6015C6.13953 26.9449 6.13084 22.5786 6.13199 22.2323C6.09707 21.8052 6.15556 21.3756 6.30342 20.9734C6.45127 20.5712 6.68493 20.206 6.98816 19.9033C7.29139 19.6005 7.65692 19.3674 8.05934 19.2201C8.46176 19.0728 8.89142 19.015 9.31846 19.0505C13.5209 19.0477 17.7234 19.0477 21.9259 19.0503C22.3571 19.0123 22.7915 19.0688 23.1985 19.2161C23.6056 19.3633 23.9756 19.5977 24.2827 19.9029C24.5897 20.208 24.8264 20.5765 24.9762 20.9827C25.126 21.3888 25.1853 21.8228 25.15 22.2542C25.1519 26.4241 25.1521 30.594 25.1506 34.7639V35.3559C24.5298 35.3559 23.9582 35.3219 23.3922 35.3629C22.8202 35.3673 22.2624 35.541 21.7891 35.862C21.3157 36.183 20.948 36.6369 20.7322 37.1666ZM32.8046 36.776C33.0807 36.7489 33.3593 36.7834 33.6204 36.8772C33.8814 36.971 34.1184 37.1216 34.3141 37.3182C34.5098 37.5148 34.6593 37.7524 34.7519 38.0139C34.8445 38.2754 34.8778 38.5542 34.8494 38.8301C34.8571 39.7286 34.8495 44.8636 34.8518 46.9878C34.8496 47.3313 34.8613 47.6755 34.8378 48.0174C34.8189 48.5004 34.6124 48.957 34.2622 49.2901C33.912 49.6232 33.4457 49.8066 32.9624 49.8014C32.6926 49.7823 32.4217 49.7866 32.1527 49.814C31.8172 49.8641 31.4941 49.9768 31.2003 50.1462C30.6352 50.5214 30.1158 50.9653 29.4799 51.4564C29.4799 51.1819 29.4805 51.0411 29.4799 50.9003C29.4757 49.973 29.302 49.8037 28.3538 49.8035C26.8575 49.8033 25.3611 49.8031 23.8648 49.8029C23.5855 49.8347 23.3027 49.8038 23.037 49.7123C22.7713 49.6207 22.5294 49.471 22.329 49.2739C22.1286 49.0769 21.9748 48.8376 21.8788 48.5734C21.7828 48.3093 21.7471 48.027 21.7742 47.7473C21.7667 44.7712 21.7669 41.7951 21.7745 38.819C21.7461 38.5429 21.7797 38.2639 21.8729 38.0025C21.9661 37.741 22.1165 37.5037 22.3132 37.3079C22.5099 37.112 22.7478 36.9626 23.0097 36.8705C23.2715 36.7785 23.5506 36.7461 23.8266 36.7757C26.8193 36.7667 29.812 36.7668 32.8047 36.776H32.8046ZM49.1321 26.8272C49.1157 27.7368 48.7717 28.6099 48.1631 29.2862C47.5546 29.9624 46.7225 30.3963 45.8197 30.5083C44.9401 30.6154 44.0394 30.537 43.1524 30.6002C42.7968 30.6206 42.4531 30.7354 42.1567 30.9329C40.9227 31.8324 39.7219 32.7775 38.5085 33.7053C38.3766 33.8062 38.2406 33.9016 38.0328 34.0535C38.0328 33.1742 38.0342 32.3977 38.0324 31.6212C38.0304 30.7928 37.8223 30.5868 36.9813 30.5865C34.2274 30.5853 31.4732 30.605 28.7197 30.5704C28.1378 30.5185 27.5625 30.4079 27.0027 30.2406C26.6794 30.169 26.5739 29.9626 26.5763 29.6149C26.5936 27.1641 26.5739 24.7129 26.5898 22.262C26.6197 21.5516 26.4819 20.8441 26.1874 20.197C25.893 19.5498 25.4502 18.9811 24.8949 18.537C24.7605 18.4152 24.679 18.2457 24.6676 18.0647C24.6558 15.3591 24.638 12.6532 24.672 9.94794C24.6875 9.05603 25.0138 8.1975 25.5947 7.5205C26.1756 6.8435 26.9746 6.39049 27.8538 6.23963C28.1827 6.18373 28.5159 6.15708 28.8495 6.16001C31.9746 6.15441 40.1163 6.15761 43.4753 6.15563C44.1207 6.15703 44.7667 6.1419 45.4111 6.16643C46.3936 6.20048 47.326 6.60854 48.0177 7.30718C48.7093 8.00582 49.108 8.94226 49.1322 9.92506C49.1596 15.559 49.1596 21.193 49.1321 26.8272L49.1321 26.8272Z" fill="#F35431"/>
<path d="M43.0585 15.9918C41.981 15.9906 40.9036 15.9916 39.7778 15.9916C39.868 15.7433 39.9401 15.5533 40.0063 15.3612C40.2847 14.6045 40.3927 13.7956 40.3226 12.9923C40.2525 12.189 40.0059 11.4111 39.6006 10.714C39.4726 10.4626 39.2694 10.2573 39.0194 10.1266C38.7694 9.99592 38.4849 9.94627 38.2054 9.98457C37.9243 10.0013 37.6548 10.1023 37.4318 10.2742C37.2088 10.4461 37.0427 10.6812 36.955 10.9488C36.8783 11.2078 36.838 11.4762 36.8353 11.7463C36.7968 12.5636 36.4993 13.3474 35.9859 13.9845C35.3117 14.8079 34.5925 15.5945 33.9249 16.3601C33.6516 16.2604 33.3686 16.1898 33.0806 16.1494C31.8873 16.1295 30.6934 16.1337 29.4999 16.1437C28.9017 16.1487 28.6677 16.389 28.6666 16.996C28.6617 19.7965 28.6619 22.597 28.6672 25.3975C28.6685 25.9908 28.9157 26.225 29.519 26.2283C30.649 26.2344 31.7795 26.2499 32.9086 26.2185C33.2529 26.176 33.5917 26.097 33.9193 25.9828C34.6257 26.234 35.3568 26.4096 36.1002 26.5068C38.5168 26.5811 40.9371 26.5765 43.355 26.5404C43.5998 26.5393 43.8417 26.4881 44.0659 26.3899C44.2902 26.2917 44.4919 26.1487 44.6587 25.9696C44.8256 25.7905 44.9539 25.5791 45.036 25.3485C45.118 25.1178 45.1519 24.8729 45.1356 24.6286C45.1428 22.4328 45.144 20.2369 45.1392 18.0411C45.1696 17.7618 45.1365 17.4792 45.0422 17.2146C44.9479 16.9499 44.795 16.71 44.5948 16.5129C44.3946 16.3157 44.1524 16.1665 43.8864 16.0762C43.6203 15.986 43.3373 15.9571 43.0585 15.9918ZM32.4844 24.7723H30.1415V17.6115H32.4844V24.7723ZM43.7023 24.4627C43.7018 25.0198 43.5991 25.1252 43.0278 25.1261C40.8953 25.1295 38.7627 25.1298 36.6301 25.1269C35.746 25.1525 34.8833 24.852 34.2065 24.2825C34.0617 24.1513 33.9723 23.9699 33.9566 23.7751C33.938 22.1205 33.9378 20.4657 33.956 18.8109C33.9696 18.5962 34.0525 18.3917 34.1921 18.2281C34.9789 17.3099 35.7744 16.3985 36.592 15.5077C37.5978 14.4908 38.1961 13.1405 38.2736 11.7122C38.2911 11.6115 38.3155 11.5121 38.3466 11.4147C38.6414 11.9211 38.8234 12.4852 38.8801 13.0685C38.9367 13.6517 38.8667 14.2404 38.6748 14.794C38.5005 15.3041 38.265 15.793 38.0661 16.295C37.8072 16.9486 38.1054 17.4087 38.8118 17.4155C40.2121 17.4289 41.6127 17.4228 43.0131 17.4265C43.6314 17.4282 43.7029 17.4983 43.7032 18.1139C43.7044 20.2302 43.7041 22.3464 43.7023 24.4627Z" fill="#F35431"/>
<path d="M20.3963 29.6118C20.0949 29.5957 19.792 29.6065 19.4897 29.6062C18.942 29.6058 18.3943 29.6061 17.8076 29.6061L18.1051 27.8538C18.3077 27.8538 18.4802 27.8543 18.6528 27.8537C19.2573 27.852 19.8623 27.8634 20.4662 27.8431C20.5546 27.8467 20.6428 27.8322 20.7255 27.8007C20.8082 27.7693 20.8837 27.7213 20.9473 27.6598C21.011 27.5984 21.0615 27.5246 21.0959 27.4431C21.1302 27.3616 21.1477 27.2739 21.1472 27.1854C21.1558 27.0938 21.1459 27.0014 21.1183 26.9136C21.0907 26.8259 21.0459 26.7445 20.9865 26.6742C20.9271 26.604 20.8542 26.5463 20.7722 26.5046C20.6903 26.4628 20.6008 26.4378 20.509 26.431C20.3507 26.416 20.1915 26.412 20.0325 26.419C19.4817 26.4179 18.9309 26.4186 18.3384 26.4186C18.4712 25.6105 18.5943 24.8753 18.7121 24.1392C18.7403 24.0434 18.7481 23.9428 18.7352 23.8438C18.7222 23.7448 18.6888 23.6496 18.6369 23.5643C18.5851 23.4789 18.516 23.4054 18.4341 23.3482C18.3522 23.2911 18.2593 23.2517 18.1613 23.2326C18.0639 23.2105 17.9629 23.2097 17.8652 23.2301C17.7674 23.2505 17.6752 23.2917 17.5947 23.3508C17.5142 23.41 17.4474 23.4857 17.3988 23.5729C17.3501 23.6601 17.3208 23.7568 17.3128 23.8563C17.2388 24.2139 17.1817 24.5754 17.1278 24.9368C16.89 26.5319 16.8914 26.5322 15.2713 26.404C15.2571 26.4029 15.2438 26.3899 15.1752 26.3528C15.2973 25.5659 15.4354 24.7836 15.5339 23.9964C15.5514 23.9093 15.5506 23.8196 15.5315 23.7328C15.5124 23.6461 15.4755 23.5642 15.4231 23.4925C15.3707 23.4208 15.3039 23.3608 15.2271 23.3162C15.1503 23.2717 15.065 23.2436 14.9767 23.2338C14.8873 23.2121 14.7945 23.2087 14.7038 23.2241C14.6131 23.2394 14.5265 23.273 14.4492 23.3228C14.372 23.3727 14.3056 23.4377 14.2543 23.514C14.2029 23.5903 14.1676 23.6762 14.1506 23.7666C14.1181 23.8894 14.0931 24.0141 14.0754 24.1399C13.9489 24.8883 13.8239 25.637 13.6928 26.4189C12.7673 26.4189 11.8788 26.422 10.9903 26.4174C10.8155 26.3905 10.6368 26.4251 10.4846 26.5152C10.3325 26.6054 10.2163 26.7455 10.156 26.9117C10.1152 27.0249 10.1041 27.1467 10.1237 27.2654C10.1434 27.3842 10.1931 27.4959 10.2682 27.5899C10.3433 27.6839 10.4413 27.7571 10.5527 27.8026C10.6641 27.848 10.7854 27.864 10.9048 27.8493C11.7288 27.8626 12.5531 27.8527 13.4494 27.8527C13.3598 28.2857 13.2929 28.7231 13.249 29.1631C13.229 29.5596 13.0393 29.6218 12.7008 29.6122C12.0655 29.5783 11.4286 29.5869 10.7945 29.638C10.6628 29.6637 10.5389 29.7198 10.4328 29.8018C10.3266 29.8839 10.2411 29.9896 10.183 30.1105C10.163 30.2431 10.172 30.3785 10.2093 30.5073C10.2466 30.6361 10.3113 30.7554 10.399 30.8568C10.5914 30.991 10.8245 31.0538 11.0582 31.0345C11.672 31.057 12.2871 31.0422 12.9352 31.0422C12.8032 31.8245 12.6812 32.528 12.5669 33.2327C12.4769 33.7873 12.6822 34.1576 13.1115 34.2359C13.5733 34.32 13.8886 34.0403 13.9861 33.4624C14.1201 32.6681 14.2545 31.8753 14.3893 31.0841H16.0656C16.0744 31.129 16.0787 31.1747 16.0787 31.2204C15.9639 31.926 15.8444 32.6309 15.7324 33.3369C15.7069 33.4334 15.7014 33.534 15.7164 33.6327C15.7315 33.7313 15.7667 33.8258 15.8198 33.9102C15.873 33.9947 15.943 34.0672 16.0254 34.1234C16.1079 34.1796 16.201 34.2182 16.2991 34.2368C16.3972 34.2565 16.4983 34.255 16.5958 34.2325C16.6933 34.2099 16.7849 34.1668 16.8644 34.1061C16.9439 34.0454 17.0096 33.9684 17.057 33.8802C17.1044 33.7921 17.1324 33.6949 17.1392 33.5951C17.266 32.9238 17.4142 32.2525 17.4736 31.5742C17.5156 31.0956 17.7272 31.0176 18.1439 31.0339C18.8904 31.0631 19.6394 31.0542 20.3866 31.0345C20.4839 31.0416 20.5816 31.0285 20.6736 30.9963C20.7657 30.9641 20.8501 30.9133 20.9218 30.8471C20.9934 30.7809 21.0507 30.7007 21.0901 30.6115C21.1295 30.5222 21.1501 30.4259 21.1508 30.3284C21.1515 30.2308 21.1321 30.1342 21.0939 30.0445C21.0557 29.9547 20.9995 29.8737 20.9288 29.8066C20.8581 29.7394 20.7743 29.6875 20.6827 29.654C20.5911 29.6205 20.4936 29.6062 20.3962 29.6119L20.3963 29.6118ZM16.3521 29.5856H14.6299L14.9222 27.876H16.6325L16.3521 29.5856Z" fill="#F35431"/>
<path d="M25.2898 45.1983C26.1488 45.8733 27.05 46.4928 27.988 47.0529C28.1016 47.1015 28.2245 47.1241 28.3479 47.1189C28.4713 47.1138 28.592 47.0812 28.7012 47.0234C29.472 46.5818 30.2185 46.099 30.9374 45.577C31.5732 45.1127 32.0422 44.4556 32.2745 43.7033C32.4728 43.1613 32.5034 42.5721 32.3624 42.0125C32.2215 41.4528 31.9154 40.9485 31.484 40.565C31.0761 40.2006 30.5597 39.9804 30.0144 39.9385C29.469 39.8966 28.925 40.0353 28.4663 40.3332C28.4073 40.3572 28.3436 40.3675 28.2801 40.3634C28.2166 40.3593 28.1548 40.3409 28.0993 40.3096C27.7181 40.0657 27.2786 39.9282 26.8264 39.9113C26.3742 39.8944 25.9256 39.9988 25.5273 40.2137C25.129 40.4285 24.7954 40.746 24.5611 41.1332C24.3268 41.5203 24.2004 41.9631 24.1948 42.4156C24.1488 42.9326 24.2238 43.4532 24.4138 43.9362C24.6039 44.4192 24.9038 44.8513 25.2898 45.1983ZM25.7137 42.1691C25.7639 41.9665 25.8732 41.7835 26.0279 41.6434C26.1825 41.5033 26.3754 41.4124 26.5819 41.3824C26.7861 41.3417 26.9979 41.3662 27.1874 41.4523C27.3769 41.5385 27.5346 41.682 27.6382 41.8626C28.028 42.4265 28.5466 42.4622 28.9168 41.9716C29.3482 41.3999 29.679 41.2635 30.1923 41.4457C30.4476 41.5424 30.6638 41.7206 30.8074 41.9527C30.9511 42.1848 31.0141 42.4578 30.9867 42.7294C30.9938 43.0016 30.9402 43.272 30.8298 43.5209C30.7194 43.7699 30.555 43.9911 30.3484 44.1686C29.7671 44.6552 29.1277 45.0734 28.5024 45.5052C28.4515 45.5347 28.3943 45.5517 28.3356 45.5548C28.2769 45.558 28.2182 45.5472 28.1645 45.5232C27.462 45.0667 26.7898 44.5651 26.1521 44.0216C25.9061 43.7894 25.7335 43.4902 25.6555 43.161C25.5776 42.8318 25.5979 42.487 25.7137 42.1691Z" fill="#F35431"/>
</svg>
