<svg width="57" height="57" viewBox="0 0 57 57" fill="none" xmlns="http://www.w3.org/2000/svg">
<path d="M5.75 6.11206H36.375V28.4246H31.5625L29.375 24.9246H24.5625L20.625 31.0496L5.75 30.6121V6.11206Z" fill="#FFF8F7"/>
<path d="M52.7998 38.8938L52.798 37.7146C52.8123 36.7342 52.5714 35.7669 52.0991 34.9076C50.4388 31.9656 48.676 28.877 46.7098 25.465C46.5112 25.103 46.2148 24.8042 45.8544 24.6026C45.494 24.401 45.0842 24.3049 44.6718 24.3251C44.0019 24.3243 43.3317 24.3241 42.6612 24.3247L41.6563 24.3251C41.2834 24.3179 40.9143 24.4016 40.5809 24.569C40.2476 24.7365 39.96 24.9825 39.7431 25.286C39.4851 25.6257 39.2296 25.967 38.9732 26.3084L38.5263 26.9048C37.9647 27.6299 37.7552 27.535 37.7552 27.535H36.7097V7.63475C36.7549 7.28026 36.7183 6.92013 36.6027 6.58197C36.4872 6.24381 36.2957 5.93659 36.0431 5.68386C35.7904 5.43113 35.4833 5.23959 35.1451 5.12393C34.807 5.00827 34.4469 4.97155 34.0924 5.01659C25.1698 5.01574 16.2479 5.01574 7.32672 5.01659C6.97596 4.97486 6.62031 5.01297 6.28637 5.12809C5.95242 5.2432 5.64883 5.43234 5.3983 5.68134C5.14777 5.93035 4.95678 6.23279 4.83963 6.56602C4.72248 6.89926 4.6822 7.25467 4.7218 7.60567L4.72092 24.716C4.72008 26.4105 4.72094 28.1053 4.72351 29.8003C4.70081 30.2507 4.81627 30.6974 5.05444 31.0804C5.2926 31.4634 5.6421 31.7645 6.05613 31.9433C6.43456 32.0992 6.84063 32.1768 7.24986 32.1715C9.27373 32.1852 11.2574 32.1852 13.3599 32.1826L15.5295 32.1817L15.4675 32.3073C15.4179 32.4082 15.3688 32.4996 15.3227 32.585C15.2378 32.7295 15.1675 32.8821 15.1129 33.0405C15.0511 33.3381 14.8787 33.6011 14.6305 33.7765C14.3823 33.9519 14.0768 34.0266 13.7756 33.9856C13.7312 33.9856 13.6859 33.9847 13.6393 33.9821C13.3131 33.9654 12.9869 34.0146 12.6801 34.1269C12.3734 34.2393 12.0925 34.4123 11.8543 34.6358C11.6292 34.8522 11.4507 35.1123 11.3297 35.4002C11.2087 35.688 11.1478 35.9975 11.1507 36.3098C11.1533 36.6256 11.2203 36.9375 11.3474 37.2267C11.4745 37.5158 11.6591 37.776 11.8901 37.9914C12.121 38.2069 12.3933 38.373 12.6906 38.4798C12.9878 38.5866 13.3036 38.6318 13.6189 38.6126C14.3071 38.6186 14.9967 38.6161 15.6842 38.6161C16.1114 38.6152 16.5379 38.6152 16.9638 38.6161C17.0761 38.6161 17.1885 38.6229 17.3132 38.6306C17.3743 38.634 17.4389 38.6383 17.5076 38.6417L17.591 38.646L17.5905 41.5333C17.5901 43.9412 17.5915 46.3495 17.5948 48.758C17.5848 49.1442 17.6142 49.5305 17.6824 49.9107C17.8564 50.761 18.303 51.5312 18.9545 52.1046C19.606 52.678 20.4267 53.0232 21.2922 53.0878C22.1576 53.1525 23.0205 52.9331 23.7499 52.4629C24.4794 51.9926 25.0355 51.2973 25.3339 50.4824C25.6185 49.7236 25.8842 48.9417 26.141 48.1855C26.2679 47.8112 26.3948 47.4378 26.5247 47.0644C26.6375 46.7406 26.7524 46.4176 26.866 46.098L27.0267 45.6451L27.0989 45.6571C29.6765 46.0852 31.4453 45.7024 32.8398 44.4223C33.2371 44.0417 33.7159 43.7565 34.2399 43.5885C34.7639 43.4205 35.3192 43.3739 35.8638 43.4525C35.8826 43.4525 35.892 43.4516 35.9057 43.4507C35.9469 43.4442 35.9891 43.4477 36.0287 43.461C36.0962 43.4883 36.1663 43.5122 36.2372 43.5354C36.4209 43.5802 36.5919 43.6664 36.7371 43.7874C37.6422 44.7135 38.7906 45.3649 40.05 45.6665C41.1162 45.9136 42.2257 45.906 43.2885 45.6442L43.3629 45.6272L43.4355 45.8186C43.4808 45.9382 43.5227 46.0476 43.5611 46.1586C43.7175 46.6132 43.8727 47.0684 44.0268 47.5241C44.3549 48.4923 44.6942 49.4929 45.0513 50.4687C45.3706 51.3513 45.9906 52.0931 46.8025 52.5639C47.6144 53.0347 48.5662 53.2044 49.4908 53.0431C50.4153 52.8819 51.2535 52.4 51.8581 51.6821C52.4626 50.9642 52.7949 50.0563 52.7965 49.1177C52.8092 45.7101 52.8041 42.2451 52.7998 38.8938ZM6.15435 7.65569C6.15435 6.74219 6.4483 6.44914 7.36389 6.44914C16.2856 6.4483 25.2074 6.4483 34.1291 6.44914C34.9725 6.44914 35.2716 6.74266 35.2725 7.57109C35.2733 14.0426 35.2733 20.5141 35.2725 26.9856C35.2725 27.0745 35.2673 27.1638 35.2605 27.2654C35.2562 27.3227 35.2519 27.3838 35.2485 27.4513L35.2443 27.5346L34.5803 27.535H34.0095C33.5079 27.535 33.0115 27.5342 32.5141 27.529C32.456 27.524 32.3996 27.507 32.3483 27.4792C32.297 27.4515 32.2519 27.4134 32.2159 27.3675C31.9493 27.021 31.6887 26.669 31.4016 26.2806L31.0154 25.7581L31.4623 25.759C31.6289 25.7603 31.769 25.7603 31.9083 25.7572C32.1182 25.7688 32.3281 25.7362 32.5246 25.6615C32.7211 25.5867 32.8996 25.4715 33.0487 25.3234C33.1978 25.1753 33.3142 24.9975 33.3902 24.8015C33.4662 24.6055 33.5002 24.3958 33.49 24.1858C33.496 19.5233 33.4968 14.6882 33.4909 9.8137C33.5026 9.59178 33.4655 9.36999 33.382 9.164C33.2986 8.95802 33.171 8.77288 33.0081 8.62168C32.8452 8.47048 32.6511 8.35691 32.4395 8.28899C32.2279 8.22108 32.004 8.20049 31.7836 8.22867C26.2208 8.22736 20.6579 8.22691 15.0949 8.22734L11.0959 8.22605C10.5781 8.22391 10.0602 8.22263 9.54327 8.22989C9.32938 8.21683 9.11515 8.24922 8.91468 8.32494C8.71421 8.40065 8.53206 8.51798 8.38021 8.66918C8.22836 8.82038 8.11027 9.00203 8.0337 9.20218C7.95713 9.40232 7.92382 9.61641 7.93597 9.83035C7.92913 14.7813 7.92956 19.6006 7.9364 24.1555C7.92553 24.3773 7.9629 24.5988 8.04595 24.8048C8.129 25.0108 8.25575 25.1963 8.41744 25.3485C8.57914 25.5007 8.77193 25.6161 8.98253 25.6866C9.19312 25.7571 9.4165 25.781 9.63726 25.7568C12.8403 25.7585 16.0426 25.7591 19.2439 25.7586L23.4963 25.7581L23.4219 25.8889C23.3382 26.0359 23.2595 26.1764 23.1831 26.3123C22.9852 26.6647 22.7981 26.9976 22.5994 27.315C22.551 27.3789 22.489 27.4312 22.418 27.4683C22.3469 27.5054 22.2685 27.5263 22.1884 27.5295C17.1298 27.5329 12.0722 27.5314 7.01563 27.5248L6.35596 27.5244C6.33178 27.5232 6.30803 27.5175 6.28589 27.5077L6.15388 27.4633L6.15435 7.65569ZM9.40913 24.2922V9.70305H32.0408V24.2922H9.40913ZM12.7596 30.7479C10.8729 30.7479 8.99129 30.7468 7.11482 30.7445C6.98913 30.755 6.86265 30.7385 6.74385 30.6962C6.62504 30.6538 6.51665 30.5866 6.42592 30.499C6.33519 30.4114 6.26422 30.3054 6.21776 30.1881C6.17129 30.0709 6.1504 29.9451 6.15649 29.8191C6.14922 29.6606 6.15094 29.5021 6.15307 29.3295C6.15395 29.247 6.15478 29.1611 6.15478 29.0705V28.983H21.6565L21.5818 29.1141C21.5044 29.2491 21.4291 29.3817 21.3558 29.5119C21.1481 29.8789 20.9516 30.2258 20.7371 30.5651C20.6823 30.6236 20.6154 30.6697 20.5412 30.7002C20.467 30.7307 20.3871 30.7449 20.3069 30.7419C17.8036 30.7462 15.2799 30.7479 12.7596 30.7479H12.7596ZM17.5794 37.1643H17.5106C17.1256 37.1643 16.7407 37.1651 16.3557 37.1668C15.9763 37.1677 15.5919 37.1686 15.2056 37.1686C14.5993 37.1686 13.9879 37.166 13.3825 37.1575C13.1852 37.1547 12.9962 37.0776 12.8533 36.9415C12.7105 36.8054 12.6242 36.6204 12.6118 36.4235C12.5802 36.2327 12.615 36.0368 12.7102 35.8684C12.8054 35.7001 12.9554 35.5694 13.1351 35.4981C13.2599 35.4376 13.3964 35.4049 13.535 35.4024C14.6424 35.3972 15.7486 35.3972 16.8739 35.3981L18.0079 35.399L17.5794 37.1643ZM18.8966 33.789C18.8546 33.8407 18.8015 33.8824 18.7413 33.9109C18.6812 33.9394 18.6154 33.9541 18.5488 33.954C18.1737 33.9599 17.7985 33.9608 17.4093 33.9608H16.9261L16.2617 33.9599L16.524 33.4284C16.6975 33.0747 16.8611 32.7406 17.035 32.4184C17.0726 32.3559 17.1241 32.3029 17.1854 32.2635C17.2468 32.2241 17.3164 32.1994 17.3888 32.1911C17.9438 32.1792 18.5039 32.1792 19.0935 32.1817L19.8211 32.1826L19.5336 32.6893C19.3161 33.0738 19.111 33.437 18.8965 33.7891L18.8966 33.789ZM51.366 49.0118C51.3846 49.6437 51.1704 50.2604 50.7641 50.7447C50.3578 51.229 49.7877 51.5471 49.1622 51.6386C49.0317 51.6599 48.8997 51.6707 48.7675 51.6711C48.2278 51.6602 47.7052 51.4805 47.273 51.1572C46.8408 50.834 46.5207 50.3834 46.3578 49.8689C46.0459 48.9836 45.7425 48.095 45.44 47.2063C45.2367 46.6115 45.0341 46.0168 44.8282 45.4229C44.7822 45.2088 44.6915 45.0068 44.562 44.8302C44.4325 44.6536 44.2671 44.5064 44.0766 44.3982C43.8862 44.29 43.6751 44.2233 43.4571 44.2024C43.2391 44.1815 43.0191 44.207 42.8116 44.2771C41.8988 44.4986 40.9431 44.469 40.0458 44.1915C39.1484 43.9139 38.3429 43.3987 37.7146 42.7005C37.5262 42.4821 37.2928 42.3071 37.0304 42.1873C36.768 42.0675 36.4828 42.0059 36.1944 42.0066C36.1688 42.0066 36.1423 42.0066 36.1158 42.0075C35.4886 42.0272 34.852 42.0186 34.2351 42.0118L34.1342 42.01C33.8716 42.0022 33.6107 42.0537 33.3707 42.1606C33.1307 42.2676 32.918 42.4273 32.7482 42.6278C32.1139 43.3531 31.292 43.8897 30.3727 44.1785C29.4534 44.4673 28.4723 44.4973 27.5371 44.265C27.3359 44.2021 27.124 44.181 26.9144 44.203C26.7047 44.225 26.5018 44.2896 26.318 44.3928C26.1342 44.496 25.9734 44.6357 25.8455 44.8033C25.7177 44.9708 25.6254 45.1628 25.5744 45.3673C25.3594 45.9902 25.1484 46.614 24.9369 47.2369C24.6404 48.1128 24.3336 49.0185 24.0213 49.9064C23.8496 50.4278 23.5145 50.88 23.0656 51.1962C22.6168 51.5123 22.0781 51.6755 21.5293 51.6616C20.9805 51.6477 20.4508 51.4574 20.0185 51.119C19.5863 50.7805 19.2745 50.3119 19.1293 49.7825C19.0605 49.501 19.0288 49.2117 19.0354 48.922C19.0328 47.1993 19.0319 45.477 19.0328 43.7549C19.0328 41.8032 19.0314 39.851 19.0285 37.8982C19.0221 36.9528 19.2708 36.0232 19.7484 35.2074C21.6185 31.9475 23.1873 29.2054 24.7656 26.4219C24.8654 26.2097 25.0269 26.0326 25.2289 25.9135C25.431 25.7945 25.6642 25.7391 25.8982 25.7546C26.8702 25.7836 27.8417 25.7712 28.5792 25.7563H28.6117C28.801 25.7469 28.9895 25.7868 29.1587 25.8721C29.328 25.9574 29.4722 26.0852 29.5773 26.2429C29.7507 26.4881 29.931 26.7291 30.1293 26.9932C30.225 27.1213 30.3258 27.2555 30.4309 27.3978L30.5343 27.5375H30.3608C30.0566 27.5375 29.7601 27.5358 29.4687 27.534C28.71 27.5311 27.9905 27.5255 27.2706 27.5515C27.0192 27.5644 26.7804 27.6656 26.5964 27.8374C26.5189 27.9192 26.4658 28.0209 26.4427 28.1312C26.4197 28.2415 26.4278 28.356 26.4661 28.462C26.5083 28.5879 26.5837 28.7 26.6843 28.7866C26.7849 28.8732 26.907 28.9311 27.0377 28.9542C27.1514 28.9712 27.2665 28.9765 27.3812 28.97L27.4919 28.9687C32.627 28.9696 37.7618 28.9697 42.8963 28.9691L42.9902 28.97C43.0697 28.9718 43.1441 28.9722 43.2201 28.967C43.3153 28.9684 43.4097 28.9509 43.498 28.9153C43.5863 28.8798 43.6666 28.827 43.7343 28.76C43.8019 28.6931 43.8555 28.6133 43.8919 28.5254C43.9283 28.4375 43.9469 28.3431 43.9464 28.248C43.9489 28.1526 43.9316 28.0577 43.8954 27.9694C43.8593 27.881 43.8052 27.8012 43.7366 27.7348C43.668 27.6685 43.5864 27.6172 43.4968 27.5841C43.4073 27.551 43.3119 27.5369 43.2167 27.5426C42.5715 27.5319 41.9153 27.5328 41.2812 27.5358L40.4857 27.537H39.8389L39.9474 27.396C40.0644 27.2439 40.1738 27.097 40.2789 26.9551C40.5078 26.6348 40.7537 26.3268 41.0155 26.0327C41.2066 25.8634 41.4531 25.7698 41.7085 25.7695C42.3186 25.7541 42.9381 25.7554 43.5388 25.7571C43.9046 25.758 44.2686 25.7589 44.6308 25.7563H44.6419C44.8288 25.7508 45.0132 25.799 45.1736 25.8951C45.3339 25.9912 45.4634 26.1311 45.5468 26.2984C46.1766 27.4033 46.8072 28.5076 47.4387 29.6113C48.5504 31.5578 49.6609 33.5055 50.7703 35.4543C51.171 36.1705 51.3766 36.9793 51.3668 37.7999L51.3676 38.6612C51.3702 42.1118 51.3697 45.562 51.366 49.0118Z" fill="#F35431"/>
<path d="M29.1553 37.1788H29.1519C28.4288 37.1874 27.738 37.4802 27.229 37.994C26.72 38.5077 26.4335 39.2011 26.4316 39.9243C26.4373 40.6462 26.7282 41.3365 27.2408 41.8447C27.7535 42.353 28.4463 42.6379 29.1682 42.6373H29.1741C29.5321 42.6367 29.8864 42.5653 30.2167 42.4273C30.547 42.2892 30.8467 42.0873 31.0987 41.833C31.3506 41.5787 31.5499 41.2772 31.6849 40.9456C31.8199 40.6141 31.8881 40.2592 31.8854 39.9012C31.8819 39.1789 31.5929 38.4873 31.0815 37.9773C30.57 37.4673 29.8776 37.1803 29.1553 37.1788ZM30.0628 40.8335C29.8227 41.0712 29.4983 41.2042 29.1604 41.2035C29.1519 41.2035 29.1425 41.2035 29.1339 41.2026C28.7957 41.1933 28.4747 41.0516 28.2399 40.8079C28.0052 40.5642 27.8756 40.2381 27.8789 39.8997C27.8823 39.5614 28.0184 39.2379 28.2579 38.9989C28.4974 38.76 28.8212 38.6246 29.1596 38.6221H29.1698C29.4252 38.624 29.6743 38.7018 29.8855 38.8455C30.0966 38.9891 30.2604 39.1922 30.356 39.4291C30.4517 39.6659 30.4748 39.9258 30.4226 40.1758C30.3704 40.4258 30.2452 40.6547 30.0628 40.8335V40.8335Z" fill="#F35431"/>
<path d="M41.2355 37.1788H41.2091C40.5028 37.1811 39.826 37.4621 39.3258 37.9607C39.0657 38.2136 38.8584 38.5155 38.7158 38.849C38.5732 39.1826 38.4982 39.5411 38.4952 39.9038C38.4927 40.2596 38.5609 40.6123 38.6959 40.9414C38.8308 41.2706 39.0298 41.5697 39.2813 41.8213C39.5337 42.0789 39.8347 42.2837 40.167 42.4238C40.4993 42.5639 40.8561 42.6365 41.2167 42.6373H41.2244C41.9464 42.636 42.6385 42.3486 43.1491 41.8381C43.6597 41.3276 43.9472 40.6356 43.9487 39.9136C43.9501 39.1916 43.6654 38.4984 43.1569 37.9859C42.6484 37.4733 41.9575 37.1831 41.2355 37.1788ZM41.239 41.2026L41.221 41.2035C40.8832 41.2007 40.5599 41.0656 40.3206 40.8271C40.0813 40.5886 39.9451 40.2657 39.9412 39.9279C39.9372 39.5901 40.066 39.2642 40.2997 39.0202C40.5334 38.7762 40.8534 38.6336 41.1911 38.623C41.3627 38.6167 41.5337 38.6457 41.6936 38.7081C41.8535 38.7706 41.9989 38.8652 42.1208 38.9861C42.2457 39.106 42.3449 39.2502 42.4124 39.4097C42.4798 39.5693 42.514 39.7409 42.513 39.9141C42.511 40.2527 42.3765 40.5771 42.1385 40.8179C41.9004 41.0587 41.5775 41.1968 41.239 41.2026Z" fill="#F35431"/>
<path d="M26.8076 34.6085C27.1426 34.6085 27.4557 34.6111 27.7693 34.606C27.9009 34.6133 28.0327 34.5945 28.157 34.5509C28.2814 34.5072 28.3959 34.4394 28.4939 34.3513C28.555 34.287 28.6023 34.2108 28.6329 34.1275C28.6634 34.0441 28.6766 33.9555 28.6717 33.8668C28.6623 33.4251 28.3465 33.179 27.7826 33.1721C27.4664 33.1687 27.1507 33.1704 26.8204 33.1704L26.256 33.1713L26.2569 32.5928C26.2582 32.2655 26.2591 31.9605 26.2552 31.6554C26.2636 31.5225 26.2458 31.3893 26.2026 31.2634C26.1595 31.1374 26.092 31.0212 26.004 30.9214C25.9434 30.8648 25.8722 30.8207 25.7946 30.7917C25.7169 30.7627 25.6343 30.7492 25.5515 30.7522H25.528C25.0935 30.7633 24.829 31.0966 24.8205 31.6443C24.8154 31.9605 24.8166 32.2775 24.8179 32.609L24.8192 33.1713L24.248 33.1704C23.9057 33.1678 23.5849 33.1678 23.2636 33.1729C22.8885 33.1789 22.4386 33.3045 22.4279 33.8651C22.4194 34.3239 22.7274 34.5939 23.2734 34.6059C23.5926 34.6128 23.9104 34.611 24.2458 34.6085C24.4031 34.6085 24.5646 34.6076 24.7316 34.6076H24.8192V34.6948C24.8192 34.8657 24.8183 35.0281 24.8175 35.1853C24.8162 35.5194 24.8149 35.8279 24.8209 36.1363C24.8316 36.6918 25.0883 36.9977 25.5433 36.9977H25.5468C26.0078 36.996 26.2462 36.7037 26.2547 36.1287C26.2594 35.8099 26.2586 35.4904 26.2573 35.1597L26.256 34.6077L26.8076 34.6085Z" fill="#F35431"/>
<path d="M36.7693 32.1775C36.8641 32.1819 36.9588 32.1675 37.048 32.1352C37.1372 32.1028 37.2192 32.0531 37.2891 31.9889C37.359 31.9247 37.4155 31.8473 37.4553 31.7612C37.4952 31.6751 37.5176 31.5819 37.5212 31.4871C37.5243 31.3949 37.509 31.3031 37.4761 31.217C37.4432 31.1308 37.3935 31.0521 37.3298 30.9855C37.256 30.9111 37.1681 30.8523 37.0713 30.8124C36.9745 30.7725 36.8706 30.7523 36.7659 30.7531C35.6798 30.7385 34.6228 30.7402 33.6222 30.7539C33.52 30.751 33.4183 30.7687 33.3232 30.806C33.2281 30.8433 33.1414 30.8994 33.0685 30.9709C33.0043 31.0406 32.9548 31.1226 32.9229 31.2118C32.891 31.3011 32.8775 31.3959 32.8831 31.4905C32.882 31.5858 32.901 31.6804 32.9388 31.768C32.9765 31.8555 33.0322 31.9343 33.1023 31.999C33.1723 32.0637 33.2552 32.1131 33.3454 32.1438C33.4357 32.1745 33.5315 32.186 33.6265 32.1775C33.9819 32.1852 34.3468 32.1843 34.6963 32.1817C34.8552 32.1809 35.015 32.18 35.1739 32.18C35.4987 32.18 35.8234 32.1834 36.1549 32.1834C36.36 32.1835 36.5648 32.1815 36.7693 32.1775Z" fill="#F35431"/>
<path d="M46.9172 33.1772H46.8941C46.7976 33.1772 46.6976 33.1738 46.5976 33.1738C46.5412 33.1738 46.4857 33.1747 46.431 33.179C46.2541 33.1831 46.085 33.253 45.9567 33.3749C45.8285 33.4968 45.7502 33.6621 45.7371 33.8386C45.7289 34.0155 45.7861 34.1891 45.8979 34.3264C46.0097 34.4637 46.1681 34.555 46.3429 34.5829C46.492 34.6043 46.6427 34.6123 46.7933 34.6068H46.8958C47.225 34.6405 47.5542 34.5435 47.8127 34.3368C47.8711 34.2736 47.9159 34.199 47.9443 34.1177C47.9727 34.0364 47.984 33.9502 47.9776 33.8643C47.9691 33.5686 47.8486 33.1772 46.9172 33.1772Z" fill="#F35431"/>
<path d="M33.5291 35.5724C33.2823 35.5571 33.0348 35.5583 32.7882 35.5759C32.6928 35.5762 32.5983 35.5953 32.5102 35.6321C32.4222 35.669 32.3422 35.7229 32.275 35.7906C32.2078 35.8584 32.1546 35.9388 32.1185 36.0272C32.0823 36.1155 32.064 36.2101 32.0645 36.3056C32.067 36.4009 32.0886 36.4946 32.1279 36.5815C32.1672 36.6683 32.2234 36.7463 32.2933 36.8111C32.3632 36.8759 32.4453 36.9261 32.5349 36.9587C32.6244 36.9914 32.7195 37.0058 32.8147 37.0012C32.8942 37.0054 32.9745 37.0037 33.054 37.0037C33.0898 37.0028 33.1249 37.0028 33.1608 37.0028H33.1873L33.2702 37.0037C33.3522 37.0037 33.4325 37.0046 33.5128 37.0028C33.6114 37.011 33.7106 36.999 33.8045 36.9677C33.8984 36.9365 33.9849 36.8865 34.0589 36.8209C34.133 36.7552 34.1929 36.6753 34.2352 36.5858C34.2775 36.4964 34.3012 36.3993 34.3049 36.3005C34.3028 36.2014 34.2808 36.1038 34.2405 36.0133C34.2001 35.9228 34.1421 35.8413 34.0699 35.7735C33.9976 35.7057 33.9126 35.653 33.8197 35.6185C33.7269 35.584 33.628 35.5683 33.5291 35.5724Z" fill="#F35431"/>
<path d="M44.8655 30.7522H44.8424C44.6465 30.7578 44.4608 30.8409 44.3262 30.9834C44.1916 31.1258 44.1191 31.3159 44.1246 31.5118C44.1195 31.5956 44.1212 31.681 44.1221 31.7665L44.1229 31.8818C44.1229 32.6278 44.3596 32.9909 44.845 32.9909C44.9281 32.9958 45.0113 32.9836 45.0894 32.9551C45.1676 32.9266 45.2391 32.8824 45.2996 32.8252C45.5014 32.5545 45.593 32.2174 45.556 31.8818L45.5568 31.7613C45.5577 31.6776 45.5586 31.593 45.5551 31.5093C45.5603 31.4141 45.5465 31.3188 45.5145 31.229C45.4826 31.1393 45.4331 31.0567 45.3689 30.9863C45.3047 30.9158 45.2271 30.8588 45.1407 30.8186C45.0543 30.7784 44.9607 30.7559 44.8655 30.7522Z" fill="#F35431"/>
<path d="M45.5534 35.5134C45.5583 35.4186 45.5436 35.3238 45.5103 35.2348C45.477 35.1459 45.4258 35.0647 45.3599 34.9964C45.294 34.9281 45.2147 34.874 45.127 34.8376C45.0393 34.8011 44.9451 34.7831 44.8501 34.7845H44.8467C44.7517 34.7822 44.6572 34.7992 44.569 34.8345C44.4807 34.8697 44.4005 34.9226 44.3333 34.9898C44.2661 35.057 44.2133 35.1372 44.178 35.2254C44.1427 35.3137 44.1257 35.4082 44.1281 35.5032C44.1081 35.7803 44.1098 36.0586 44.1332 36.3355C44.1409 36.5171 44.2198 36.6884 44.3529 36.8124C44.4859 36.9363 44.6624 37.0029 44.8442 36.9977H44.8612C44.9525 36.9984 45.0431 36.9808 45.1275 36.9461C45.2119 36.9113 45.2885 36.86 45.3529 36.7952C45.4172 36.7304 45.4679 36.6534 45.502 36.5687C45.5362 36.4841 45.5531 36.3934 45.5517 36.3021C45.5577 36.2081 45.556 36.1133 45.5542 36.0184C45.5534 35.974 45.5534 35.9296 45.5534 35.8851L45.5542 35.7758C45.5559 35.6886 45.5577 35.6006 45.5534 35.5134Z" fill="#F35431"/>
<path d="M42.3123 34.5744C42.6756 34.6239 43.0443 34.6184 43.406 34.5581C43.4897 34.5456 43.5701 34.5166 43.6425 34.4728C43.7149 34.429 43.7778 34.3712 43.8277 34.3028C43.8776 34.2344 43.9133 34.1568 43.9329 34.0745C43.9525 33.9922 43.9555 33.9068 43.9418 33.8233C43.9347 33.6542 43.8639 33.4942 43.7435 33.3753C43.6232 33.2564 43.4623 33.1875 43.2933 33.1824C43.1892 33.1751 43.0848 33.1733 42.9805 33.1773C42.9309 33.179 42.8814 33.1798 42.8318 33.1798L42.7447 33.1756C42.684 33.1756 42.625 33.1721 42.5652 33.173C42.5157 33.173 42.4653 33.1739 42.4157 33.1781C42.2384 33.1756 42.0672 33.2427 41.9388 33.3651C41.8105 33.4875 41.7354 33.6554 41.7295 33.8326C41.7189 33.9196 41.7255 34.0079 41.7491 34.0923C41.7726 34.1767 41.8126 34.2557 41.8668 34.3246C41.9209 34.3935 41.9882 34.451 42.0646 34.4939C42.1411 34.5368 42.2252 34.5641 42.3123 34.5744Z" fill="#F35431"/>
<path d="M37.5823 35.5741C37.351 35.5595 37.1191 35.5583 36.8877 35.5707C36.3869 35.5937 36.0844 35.8808 36.0981 36.3183C36.1118 36.7413 36.3946 36.9848 36.8953 37.0036C36.9552 37.0054 37.0158 37.0054 37.0791 37.0036H37.1739L37.2927 37.0045C37.3782 37.0045 37.461 37.0054 37.5465 37.0028C37.6428 37.0095 37.7395 36.9966 37.8308 36.9649C37.922 36.9331 38.0059 36.8833 38.0773 36.8183C38.1488 36.7533 38.2063 36.6745 38.2465 36.5866C38.2867 36.4988 38.3086 36.4037 38.311 36.3072C38.3135 36.2106 38.2963 36.1146 38.2606 36.0248C38.2249 35.9351 38.1714 35.8535 38.1033 35.785C38.0352 35.7165 37.9539 35.6624 37.8644 35.6262C37.7749 35.59 37.6789 35.5722 37.5823 35.5741L37.5823 35.5741Z" fill="#F35431"/>
<path d="M13.6566 11.997C13.7256 11.9279 13.7804 11.8459 13.8178 11.7557C13.8552 11.6654 13.8744 11.5687 13.8744 11.471C13.8744 11.3734 13.8552 11.2766 13.8178 11.1864C13.7804 11.0961 13.7256 11.0142 13.6566 10.9451C13.5875 10.876 13.5055 10.8212 13.4153 10.7839C13.325 10.7465 13.2283 10.7272 13.1306 10.7272C13.033 10.7272 12.9362 10.7465 12.846 10.7838C12.7558 10.8212 12.6738 10.876 12.6047 10.9451L10.6505 12.8997C10.5814 12.9688 10.5266 13.0508 10.4892 13.141C10.4519 13.2313 10.4326 13.328 10.4326 13.4257C10.4326 13.5233 10.4519 13.6201 10.4892 13.7103C10.5266 13.8005 10.5814 13.8825 10.6505 13.9516C10.7195 14.0207 10.8015 14.0755 10.8918 14.1128C10.982 14.1502 11.0787 14.1695 11.1764 14.1695C11.2741 14.1695 11.3708 14.1502 11.461 14.1128C11.5513 14.0755 11.6333 14.0207 11.7024 13.9516L13.6566 11.997Z" fill="#F35431"/>
<path d="M15.7521 11.7538L11.627 15.8793C11.558 15.9484 11.5032 16.0304 11.4658 16.1206C11.4284 16.2109 11.4092 16.3076 11.4092 16.4053C11.4092 16.5029 11.4284 16.5997 11.4658 16.6899C11.5032 16.7801 11.558 16.8621 11.627 16.9312C11.7665 17.0707 11.9557 17.1491 12.153 17.1491C12.2506 17.1491 12.3474 17.1298 12.4376 17.0924C12.5279 17.0551 12.6098 17.0003 12.6789 16.9312L16.804 12.8057C16.9435 12.6662 17.0218 12.477 17.0218 12.2798C17.0218 12.0825 16.9435 11.8933 16.804 11.7538C16.6645 11.6143 16.4753 11.536 16.278 11.536C16.0808 11.536 15.8916 11.6143 15.7521 11.7538Z" fill="#F35431"/>
</svg>
