<svg width="55" height="54" viewBox="0 0 55 54" fill="none" xmlns="http://www.w3.org/2000/svg">
<path opacity="0.4" d="M0.526367 42.9053V26.2324H22.7865V36.5928C22.7196 37.2321 22.5124 37.8486 22.1797 38.3985C20.6404 41.181 17.2807 42.8905 13.6989 42.8905L0.526367 42.9053Z" fill="#ED957C"/>
<path opacity="0.4" d="M0.526367 7.8723V26.2325H22.7865V14.8212C22.721 14.1234 22.5145 13.4462 22.1797 12.8305C21.3625 11.309 20.1425 10.0416 18.6532 9.16708C17.1639 8.29256 15.4628 7.84462 13.7359 7.8723H0.526367Z" fill="#ED957C"/>
<path opacity="0.4" d="M24.3838 19.6016V30.8722L33.3826 25.2332" fill="#ED957C"/>
<path d="M47.7852 24.3604H41.1841C40.7346 24.3604 40.3701 24.7248 40.3701 25.1744V25.5592C40.3701 26.0088 40.7346 26.3732 41.1841 26.3732H47.7852C48.2348 26.3732 48.5992 26.0088 48.5992 25.5592V25.1744C48.5992 24.7248 48.2348 24.3604 47.7852 24.3604Z" fill="#F35431"/>
<path d="M47.7852 31.1016H41.1841C40.7346 31.1016 40.3701 31.466 40.3701 31.9156V32.3004C40.3701 32.75 40.7346 33.1144 41.1841 33.1144H47.7852C48.2348 33.1144 48.5992 32.75 48.5992 32.3004V31.9156C48.5992 31.466 48.2348 31.1016 47.7852 31.1016Z" fill="#F35431"/>
<path d="M13.7871 31.1016H7.18609C6.73651 31.1016 6.37207 31.466 6.37207 31.9156V32.3004C6.37207 32.75 6.73651 33.1144 7.18609 33.1144H13.7871C14.2367 33.1144 14.6012 32.75 14.6012 32.3004V31.9156C14.6012 31.466 14.2367 31.1016 13.7871 31.1016Z" fill="#F35431"/>
<path d="M13.7871 24.3604H7.18609C6.73651 24.3604 6.37207 24.7248 6.37207 25.1744V25.5592C6.37207 26.0088 6.73651 26.3732 7.18609 26.3732H13.7871C14.2367 26.3732 14.6012 26.0088 14.6012 25.5592V25.1744C14.6012 24.7248 14.2367 24.3604 13.7871 24.3604Z" fill="#F35431"/>
<path d="M13.7871 17.6182H7.18609C6.73651 17.6182 6.37207 17.9826 6.37207 18.4322V18.817C6.37207 19.2666 6.73651 19.631 7.18609 19.631H13.7871C14.2367 19.631 14.6012 19.2666 14.6012 18.817V18.4322C14.6012 17.9826 14.2367 17.6182 13.7871 17.6182Z" fill="#F35431"/>
<path d="M47.7852 17.6182H41.1841C40.7346 17.6182 40.3701 17.9826 40.3701 18.4322V18.817C40.3701 19.2666 40.7346 19.631 41.1841 19.631H47.7852C48.2348 19.631 48.5992 19.2666 48.5992 18.817V18.4322C48.5992 17.9826 48.2348 17.6182 47.7852 17.6182Z" fill="#F35431"/>
<path d="M47.784 10.877H36.2174C35.7678 10.877 35.4033 11.2414 35.4033 11.691V12.0758C35.4033 12.5254 35.7678 12.8898 36.2174 12.8898H47.784C48.2336 12.8898 48.5981 12.5254 48.5981 12.0758V11.691C48.5981 11.2414 48.2336 10.877 47.784 10.877Z" fill="#F35431"/>
<path d="M47.784 37.8438H36.2174C35.7678 37.8438 35.4033 38.2082 35.4033 38.6578V39.0426C35.4033 39.4922 35.7678 39.8566 36.2174 39.8566H47.784C48.2336 39.8566 48.5981 39.4922 48.5981 39.0426V38.6578C48.5981 38.2082 48.2336 37.8438 47.784 37.8438Z" fill="#F35431"/>
<path d="M18.7528 37.8438H7.18609C6.73651 37.8438 6.37207 38.2082 6.37207 38.6578V39.0426C6.37207 39.4922 6.73651 39.8566 7.18609 39.8566H18.7528C19.2023 39.8566 19.5668 39.4922 19.5668 39.0426V38.6578C19.5668 38.2082 19.2023 37.8438 18.7528 37.8438Z" fill="#F35431"/>
<path d="M18.7528 10.877H7.18609C6.73651 10.877 6.37207 11.2414 6.37207 11.691V12.0758C6.37207 12.5254 6.73651 12.8898 7.18609 12.8898H18.7528C19.2023 12.8898 19.5668 12.5254 19.5668 12.0758V11.691C19.5668 11.2414 19.2023 10.877 18.7528 10.877Z" fill="#F35431"/>
<path d="M27.4847 48.0113H27.3441C26.9593 48.1297 26.7077 47.7671 26.2563 47.1159C25.7161 46.3759 24.9094 45.2066 24.1398 45.2066H0.333008V5.40039H21.8753C23.0589 5.40239 24.2139 5.76452 25.1868 6.43866C26.1596 7.1128 26.9043 8.06703 27.3219 9.17455C27.7412 8.06821 28.4864 7.11514 29.4589 6.44127C30.4313 5.76741 31.5854 5.40446 32.7685 5.40039H54.333V45.1844H30.5484C29.8084 45.1844 28.9722 46.3315 28.4394 47.0937C28.0397 47.6931 27.7955 48.0113 27.4847 48.0113ZM27.2479 47.1973H27.4403C27.5513 47.0715 27.6993 46.8495 27.8325 46.6645C28.4541 45.7838 29.394 44.4444 30.5484 44.4444H53.6152V6.14042H32.7907C31.6843 6.14294 30.6088 6.50528 29.7264 7.17275C28.844 7.84022 28.2026 8.7766 27.8991 9.84057C27.8675 9.96305 27.7956 10.0713 27.6949 10.1478C27.5941 10.2244 27.4706 10.2647 27.3441 10.2624C27.218 10.2634 27.095 10.2226 26.9946 10.1463C26.8941 10.0699 26.8219 9.96241 26.7891 9.84057C26.4856 8.7766 25.8443 7.84022 24.9619 7.17275C24.0795 6.50528 23.0039 6.14294 21.8975 6.14042H1.07304V44.4444H24.1398C25.2942 44.4444 26.2341 45.7838 26.8557 46.6645C26.9889 46.8495 27.1443 47.0715 27.2479 47.1973Z" fill="#F35431"/>
<path d="M27.989 36.437C25.7306 36.437 23.5229 35.7673 21.6451 34.5126C19.7673 33.2579 18.3038 31.4745 17.4395 29.388C16.5753 27.3015 16.3491 25.0056 16.7897 22.7906C17.2303 20.5756 18.3178 18.541 19.9148 16.9441C21.5117 15.3471 23.5463 14.2596 25.7613 13.819C27.9763 13.3784 30.2722 13.6046 32.3587 14.4688C34.4452 15.3331 36.2286 16.7966 37.4833 18.6744C38.738 20.5522 39.4077 22.7599 39.4077 25.0183C39.4037 28.0455 38.1995 30.9476 36.0589 33.0882C33.9183 35.2287 31.0162 36.433 27.989 36.437ZM27.989 15.0797C26.0233 15.0797 24.1018 15.6626 22.4674 16.7546C20.833 17.8467 19.5591 19.3989 18.8069 21.2149C18.0547 23.031 17.8579 25.0293 18.2414 26.9572C18.6248 28.8851 19.5714 30.656 20.9613 32.0459C22.3513 33.4359 24.1222 34.3824 26.0501 34.7659C27.978 35.1494 29.9763 34.9526 31.7923 34.2004C33.6084 33.4481 35.1606 32.1743 36.2526 30.5399C37.3447 28.9055 37.9276 26.984 37.9276 25.0183C37.9256 22.383 36.8779 19.8562 35.0145 17.9928C33.151 16.1294 30.6243 15.0816 27.989 15.0797Z" fill="#F35431"/>
<path d="M23.6367 32.1525V18.3213L35.6252 25.2406L23.6367 32.1525ZM25.1168 20.8818V29.5994L32.6651 25.2406L25.1168 20.8818Z" fill="#F35431"/>
<path d="M27.3436 47.8776C27.2455 47.8776 27.1514 47.8386 27.082 47.7692C27.0126 47.6998 26.9736 47.6057 26.9736 47.5076V40.9657C26.9736 40.8676 27.0126 40.7735 27.082 40.7041C27.1514 40.6347 27.2455 40.5957 27.3436 40.5957C27.4418 40.5957 27.5359 40.6347 27.6053 40.7041C27.6747 40.7735 27.7137 40.8676 27.7137 40.9657V47.5076C27.7137 47.6057 27.6747 47.6998 27.6053 47.7692C27.5359 47.8386 27.4418 47.8776 27.3436 47.8776Z" fill="#F35431"/>
</svg>
