<svg width="93" height="36" viewBox="0 0 93 36" fill="none" xmlns="http://www.w3.org/2000/svg">
<path d="M4.7207 31.2412C4.76091 31.5116 4.83647 31.7771 4.946 32.0294C4.83716 31.7819 4.76022 31.5178 4.7207 31.2412Z" fill="url(#paint0_linear_25610_80631)"/>
<path d="M4.94531 32.0298C4.98067 32.1102 5.01879 32.1899 5.06108 32.2676C5.01879 32.1899 4.97997 32.1109 4.94531 32.0298Z" fill="url(#paint1_linear_25610_80631)"/>
<path d="M30.1024 18.4799L9.67869 2.75415C9.67245 2.7493 9.66621 2.74444 9.65997 2.74028C9.63432 2.72018 9.60798 2.70146 9.58164 2.68275C9.54074 2.65363 9.49984 2.6259 9.45824 2.59887C9.42636 2.57876 9.39377 2.55866 9.36119 2.53994C9.32792 2.51984 9.29395 2.50043 9.25929 2.48241C9.24612 2.47478 9.23225 2.46716 9.21839 2.46092C9.18927 2.44497 9.16016 2.43041 9.13104 2.41655C9.1248 2.41308 9.11787 2.40962 9.11163 2.40754C9.07697 2.3909 9.04231 2.37496 9.00765 2.3604C8.97091 2.34446 8.93417 2.3299 8.89743 2.31603C8.89258 2.31326 8.88772 2.31187 8.88287 2.31049C8.8496 2.29732 8.81563 2.28553 8.78166 2.27375C8.77819 2.27236 8.77404 2.27097 8.77057 2.27028C8.73244 2.25711 8.69362 2.24532 8.65549 2.23423C8.61182 2.22106 8.56884 2.20928 8.52517 2.19957C8.49328 2.19125 8.46139 2.18432 8.4295 2.17739C8.42396 2.176 8.41772 2.17462 8.41217 2.17392C8.39762 2.17115 8.38375 2.16768 8.36919 2.1656C8.33939 2.15937 8.31027 2.15451 8.28116 2.14966C8.24857 2.14481 8.21599 2.13996 8.18272 2.1358C8.16816 2.13372 8.1543 2.13233 8.13974 2.13094C8.11548 2.12748 8.09052 2.1254 8.06556 2.12332C8.05239 2.12193 8.03922 2.12054 8.02605 2.11985C7.98862 2.11708 7.95118 2.115 7.91444 2.11361C7.87354 2.11153 7.83264 2.11084 7.79243 2.11084H7.78758C7.7342 2.11084 7.68152 2.11223 7.62814 2.115C7.62329 2.115 7.61774 2.11569 7.61358 2.11569C7.58516 2.11777 7.55743 2.11916 7.5297 2.12193C7.50059 2.12401 7.47147 2.12678 7.44305 2.13025C7.24132 2.15313 7.04168 2.19541 6.84758 2.25642C6.79212 2.27444 6.73735 2.29316 6.68259 2.31395C6.60148 2.34515 6.52176 2.37912 6.44343 2.41655C6.44273 2.41724 6.44204 2.41794 6.44135 2.41794C6.41501 2.43041 6.38866 2.44359 6.36232 2.45745C6.33667 2.47062 6.31033 2.48449 6.28468 2.49904C6.25903 2.51291 6.23338 2.52747 6.20843 2.54272C6.18971 2.55381 6.17099 2.5649 6.15227 2.57668C6.1391 2.58431 6.12663 2.59263 6.11415 2.60095C6.09404 2.61412 6.07394 2.6266 6.05453 2.64046C5.96926 2.6973 5.88746 2.759 5.80774 2.82486C5.77308 2.85397 5.73912 2.88378 5.70584 2.91359C5.61434 2.99678 5.52699 3.0862 5.4438 3.18187C5.42578 3.20336 5.40776 3.22485 5.38973 3.24634C5.36963 3.2706 5.35091 3.29486 5.3315 3.31982C5.30447 3.35517 5.27812 3.39052 5.25247 3.42657C5.22752 3.46262 5.20256 3.49867 5.17899 3.53541C5.1783 3.53679 5.17761 3.53818 5.17622 3.53957C5.15404 3.57492 5.13185 3.61097 5.11106 3.64702C5.08887 3.68445 5.06808 3.72188 5.04797 3.76001C5.02926 3.79537 5.01054 3.83072 4.99321 3.86677C4.99252 3.86954 4.99113 3.87231 4.98974 3.87439C4.97241 3.91113 4.95578 3.94857 4.93914 3.98531C4.93706 3.99155 4.93429 3.99779 4.93151 4.00403C4.91765 4.03591 4.90448 4.06849 4.89269 4.10108C4.88645 4.11563 4.8816 4.13019 4.87606 4.14475C4.86566 4.17248 4.85595 4.20021 4.84694 4.22794C4.83377 4.26745 4.8206 4.30766 4.80951 4.34786C4.80812 4.35272 4.80673 4.35757 4.80535 4.36173C4.79634 4.39431 4.78732 4.42758 4.7797 4.46016C4.76583 4.51285 4.75405 4.56553 4.74434 4.61822C4.73949 4.64179 4.73533 4.66536 4.73187 4.68893C4.7284 4.70418 4.72632 4.72012 4.72424 4.73537C4.718 4.77489 4.71246 4.81371 4.7083 4.85322C4.70483 4.88095 4.70206 4.90937 4.69928 4.93779C4.69859 4.94958 4.69721 4.96067 4.69651 4.97176C4.69374 5.0092 4.69166 5.04663 4.69027 5.08406C4.68819 5.12496 4.6875 5.16586 4.6875 5.20676V30.7901C4.6875 30.8192 4.68819 30.849 4.68889 30.8781C4.68958 30.9086 4.69097 30.9391 4.69305 30.9689C4.69443 30.9987 4.69651 31.0285 4.69928 31.0583V31.0632C4.70483 31.1228 4.71246 31.1824 4.72077 31.2414C4.76098 31.5117 4.83654 31.7772 4.94607 32.0295C4.98143 32.11 5.01955 32.1897 5.06184 32.2673L5.09858 32.3325C5.11106 32.354 5.12354 32.3755 5.13671 32.397C5.14918 32.4184 5.16236 32.4392 5.17622 32.4607C5.18939 32.4815 5.20326 32.5023 5.21712 32.5224C5.25871 32.5848 5.30308 32.6451 5.34883 32.7034C5.36408 32.7228 5.38003 32.7422 5.39528 32.7616C5.42717 32.7997 5.45975 32.8371 5.49302 32.8739C5.5263 32.9106 5.56026 32.946 5.59562 32.9813C5.61295 32.9987 5.63097 33.016 5.649 33.0333L5.75922 33.1332C5.771 33.1442 5.78279 33.1539 5.79527 33.1643C5.80774 33.1754 5.82092 33.1858 5.83409 33.1969L5.8736 33.2281C5.91658 33.2614 5.96025 33.294 6.00531 33.3259C6.03928 33.3494 6.07325 33.373 6.10791 33.3952C6.14257 33.4174 6.17723 33.4389 6.21189 33.4597C6.24447 33.4784 6.27705 33.4971 6.30964 33.5151C6.31241 33.5165 6.31518 33.5179 6.31795 33.5193C6.35331 33.5387 6.38936 33.5567 6.4254 33.5747C6.46145 33.5921 6.4975 33.6094 6.53424 33.6253C6.60703 33.6572 6.68051 33.6863 6.75468 33.7134C6.75538 33.7134 6.75607 33.7134 6.75676 33.7141C6.8247 33.7376 6.89263 33.7591 6.96126 33.7778C7.04584 33.8014 7.1311 33.8215 7.21706 33.8368C7.25242 33.8437 7.28777 33.8493 7.32312 33.8548C7.3564 33.8596 7.38967 33.8645 7.42226 33.868C7.46454 33.8735 7.50683 33.8777 7.54911 33.8804C7.56852 33.8818 7.58863 33.8832 7.60873 33.8839C7.63299 33.886 7.65726 33.8874 7.68083 33.8874C7.71479 33.8888 7.74807 33.8895 7.78204 33.8895H7.78758C7.81739 33.8895 7.84651 33.8888 7.87631 33.8881C7.90682 33.8874 7.93732 33.886 7.96713 33.8839C7.99624 33.8825 8.02466 33.8804 8.05309 33.8784C8.05725 33.8777 8.06071 33.8777 8.06487 33.877C8.0926 33.8742 8.12102 33.8714 8.14944 33.868C8.29987 33.8499 8.44961 33.8215 8.59657 33.782C8.62569 33.7737 8.65549 33.7654 8.68461 33.7571C8.77196 33.7307 8.85791 33.7002 8.94318 33.6662C8.9716 33.6551 8.99933 33.6434 9.02775 33.6309C9.05548 33.6184 9.08321 33.6059 9.11094 33.5928C9.13867 33.5803 9.1664 33.5664 9.19343 33.5526C9.24196 33.5283 9.2891 33.5026 9.33624 33.4756C9.35565 33.4638 9.37506 33.4527 9.39447 33.4409C9.41457 33.4285 9.43467 33.416 9.45478 33.4035C9.45755 33.4021 9.46032 33.4 9.4631 33.398C9.5241 33.3584 9.58372 33.3169 9.64195 33.2739C9.72097 33.2143 9.79792 33.1512 9.8714 33.0839C9.92617 33.034 9.97955 32.982 10.0308 32.928C10.0738 32.8836 10.1147 32.8378 10.1542 32.7907C10.1681 32.7748 10.1813 32.7588 10.1944 32.7429C10.2048 32.7297 10.2152 32.7165 10.2256 32.7034C10.2589 32.6604 10.2915 32.6167 10.3234 32.5716L10.3331 32.5585L16.3128 24.0492H28.2057C29.4445 24.0492 30.5134 23.322 31.0091 22.2718C31.0271 22.2336 31.0451 22.1948 31.0618 22.156C31.0715 22.1324 31.0812 22.1089 31.0902 22.086C31.5928 20.8306 31.2268 19.345 30.1024 18.4799ZM15.1836 17.8497C14.4376 17.8497 13.7527 18.1131 13.2176 18.5533C13.21 18.5596 13.2016 18.5658 13.1947 18.5727C12.9854 18.7454 12.7947 18.9464 12.6082 19.1557L10.887 20.9872V11.5088L19.1224 17.8497H15.1836Z" fill="url(#paint2_linear_25610_80631)"/>
<path d="M5.2168 32.5225C5.25839 32.5849 5.30276 32.6452 5.34851 32.7034C5.30137 32.6445 5.2577 32.5842 5.2168 32.5225Z" fill="url(#paint3_linear_25610_80631)"/>
<path d="M13.2068 18.5584C13.1991 18.5646 13.1908 18.5708 13.1839 18.5778C12.9745 18.7504 12.7901 18.9542 12.6078 19.1566L10.8761 20.9923V30.7951C10.8761 31.453 10.671 32.0623 10.3223 32.5635L14.0705 27.2396L14.1107 18.0405C13.8237 18.1175 13.3856 18.4114 13.2068 18.5584Z" fill="url(#paint4_linear_25610_80631)"/>
<path d="M9.46289 33.398C9.52389 33.3585 9.58351 33.3169 9.64174 33.2739C9.58351 33.3183 9.52389 33.3592 9.46289 33.398Z" fill="url(#paint5_linear_25610_80631)"/>
<path d="M9.64258 33.2739C9.72161 33.2143 9.79855 33.1512 9.87203 33.084C9.79855 33.1519 9.72161 33.215 9.64258 33.2739Z" fill="url(#paint6_linear_25610_80631)"/>
<path d="M10.0305 32.9277C9.97993 32.9825 9.92655 33.0345 9.87109 33.0837C9.92586 33.0338 9.97924 32.9818 10.0305 32.9277Z" fill="url(#paint7_linear_25610_80631)"/>
<path d="M24.5432 14.1997L14.6426 14.4L19.1201 17.8481H28.2373C28.8827 17.8481 29.4823 18.0457 29.978 18.384L24.5432 14.1997Z" fill="url(#paint8_linear_25610_80631)"/>
<path d="M43.6253 24.9928L39.5996 11.7628H42.4724L45.0239 21.4774L47.3864 11.7628H50.2214L52.6028 21.4774L55.0598 11.7628H57.8948L53.8691 24.9928H51.7712L48.6716 14.938L45.7799 24.9928H43.6253Z" fill="#0D1116"/>
<path d="M59.6763 24.9928V14.9947H62.2845V24.9928H59.6763ZM59.6952 13.5583V11.0068H62.2656V13.5583H59.6952Z" fill="#0D1116"/>
<path d="M65.5676 24.9928V11.7628H71.1431C71.9495 11.7628 72.6614 11.9455 73.2788 12.3109C73.9088 12.6763 74.4065 13.1803 74.7719 13.8229C75.1499 14.4529 75.3389 15.1774 75.3389 15.9964C75.3389 16.8154 75.1499 17.5525 74.7719 18.2077C74.4065 18.8629 73.9088 19.3858 73.2788 19.7764C72.6614 20.1544 71.9495 20.3434 71.1431 20.3434H68.3459V24.9928H65.5676ZM68.3081 17.8486H70.8596C71.162 17.8486 71.4392 17.773 71.6912 17.6218C71.9432 17.4706 72.1448 17.2564 72.296 16.9792C72.4472 16.6894 72.5228 16.3744 72.5228 16.0342C72.5228 15.6688 72.4472 15.3601 72.296 15.1081C72.1448 14.8435 71.9432 14.6356 71.6912 14.4844C71.4392 14.3332 71.162 14.2576 70.8596 14.2576H68.3081V17.8486Z" fill="#0D1116"/>
<path d="M77.7273 24.9928V14.9947H80.3355V24.9928H77.7273ZM77.7462 13.5583V11.0068H80.3166V13.5583H77.7462Z" fill="#0D1116"/>
<path d="M87.6254 18.0376L89.3831 14.9947H92.4638L88.9862 19.9465L92.7095 24.9928H89.5532L87.3041 21.7987L85.3385 24.9928H82.22L85.9433 19.8898L82.2956 14.9947H85.4897L87.6254 18.0376Z" fill="#0D1116"/>
<defs>
<linearGradient id="paint0_linear_25610_80631" x1="32.3797" y1="32.0963" x2="6.99901" y2="31.6716" gradientUnits="userSpaceOnUse">
<stop stop-color="#FD8943"/>
<stop offset="1" stop-color="#C53104"/>
</linearGradient>
<linearGradient id="paint1_linear_25610_80631" x1="32.3705" y1="32.6067" x2="6.98979" y2="32.1819" gradientUnits="userSpaceOnUse">
<stop stop-color="#FD8943"/>
<stop offset="1" stop-color="#C53104"/>
</linearGradient>
<linearGradient id="paint2_linear_25610_80631" x1="0.674654" y1="18.0001" x2="40.9771" y2="18.0001" gradientUnits="userSpaceOnUse">
<stop stop-color="#FC9B44"/>
<stop offset="0.7955" stop-color="#F75800"/>
</linearGradient>
<linearGradient id="paint3_linear_25610_80631" x1="32.3632" y1="33.0662" x2="6.98253" y2="32.6414" gradientUnits="userSpaceOnUse">
<stop stop-color="#FD8943"/>
<stop offset="1" stop-color="#C53104"/>
</linearGradient>
<linearGradient id="paint4_linear_25610_80631" x1="15.8219" y1="25.3019" x2="10.7401" y2="25.3019" gradientUnits="userSpaceOnUse">
<stop stop-color="#FC9B44" stop-opacity="0"/>
<stop offset="1" stop-color="#D1510A"/>
</linearGradient>
<linearGradient id="paint5_linear_25610_80631" x1="32.3525" y1="33.7176" x2="6.97174" y2="33.2928" gradientUnits="userSpaceOnUse">
<stop stop-color="#FD8943"/>
<stop offset="1" stop-color="#C53104"/>
</linearGradient>
<linearGradient id="paint6_linear_25610_80631" x1="32.356" y1="33.5572" x2="6.97527" y2="33.1324" gradientUnits="userSpaceOnUse">
<stop stop-color="#FD8943"/>
<stop offset="1" stop-color="#C53104"/>
</linearGradient>
<linearGradient id="paint7_linear_25610_80631" x1="32.358" y1="33.3807" x2="6.97727" y2="32.9559" gradientUnits="userSpaceOnUse">
<stop stop-color="#FD8943"/>
<stop offset="1" stop-color="#C53104"/>
</linearGradient>
<linearGradient id="paint8_linear_25610_80631" x1="22.3407" y1="14.1908" x2="22.2852" y2="18.1698" gradientUnits="userSpaceOnUse">
<stop stop-color="#FC9B44" stop-opacity="0"/>
<stop offset="0.8814" stop-color="#C44100"/>
</linearGradient>
</defs>
</svg>
