<svg width="55" height="54" viewBox="0 0 55 54" fill="none" xmlns="http://www.w3.org/2000/svg">
<g clip-path="url(#clip0_26142_18636)">
<path opacity="0.4" d="M11.6816 12.7654V33.0835H18.6101L18.3997 38.8563L28.3791 32.7199L41.7777 32.8411V12.5381H12.0574C11.847 12.5381 11.6816 12.629 11.6816 12.7654Z" fill="#ED957C"/>
<path d="M18.6778 39.2571C18.6139 39.2574 18.5512 39.239 18.4974 39.2041C18.4387 39.1726 18.3896 39.1257 18.3552 39.0684C18.3208 39.011 18.3024 38.9454 18.3021 38.8783V33.6662H11.6892C11.5896 33.6662 11.494 33.6263 11.4235 33.5553C11.3531 33.4842 11.3135 33.3879 11.3135 33.2874V0.711677C11.3135 0.510756 11.3926 0.318064 11.5336 0.175991C11.6745 0.0339175 11.8656 -0.0458984 12.0649 -0.0458984H42.0633C42.1629 -0.0458984 42.2585 -0.00599047 42.3289 0.065046C42.3994 0.136083 42.439 0.232429 42.439 0.332889V32.9011C42.4402 32.952 42.4308 33.0025 42.4114 33.0495C42.3919 33.0965 42.3629 33.1388 42.3263 33.1738C42.2937 33.2109 42.2529 33.2398 42.2072 33.2582C42.1616 33.2767 42.1123 33.2841 42.0633 33.2799L28.6497 33.0829L18.8807 39.189C18.821 39.231 18.7506 39.2547 18.6778 39.2571ZM12.0649 32.9086H18.6778C18.7774 32.9086 18.873 32.9486 18.9435 33.0196C19.0139 33.0906 19.0535 33.187 19.0535 33.2874V38.1965L28.3341 32.3935C28.3945 32.3541 28.465 32.3331 28.537 32.3329L41.68 32.5223V0.757132H12.0574L12.0649 32.9086Z" fill="#F35431"/>
<path d="M29.8747 28.0229H23.863C23.7634 28.0229 23.6678 27.983 23.5974 27.912C23.5269 27.8409 23.4873 27.7446 23.4873 27.6441V14.4471C23.4873 14.3467 23.5269 14.2503 23.5974 14.1793C23.6678 14.1083 23.7634 14.0684 23.863 14.0684H29.8747C29.9744 14.0684 30.0699 14.1083 30.1404 14.1793C30.2109 14.2503 30.2505 14.3467 30.2505 14.4471V27.6441C30.2505 27.7446 30.2109 27.8409 30.1404 27.912C30.0699 27.983 29.9744 28.0229 29.8747 28.0229ZM24.2538 27.2653H29.514V14.8259H24.2538V27.2653Z" fill="#F35431"/>
<path d="M28.9875 14.8259H20.8943C20.7946 14.8259 20.6991 14.786 20.6286 14.715C20.5581 14.644 20.5186 14.5476 20.5186 14.4471C20.5186 14.3467 20.5581 14.2503 20.6286 14.1793C20.6991 14.1083 20.7946 14.0684 20.8943 14.0684H28.9875C29.0872 14.0684 29.1827 14.1083 29.2532 14.1793C29.3237 14.2503 29.3633 14.3467 29.3633 14.4471C29.3633 14.5476 29.3237 14.644 29.2532 14.715C29.1827 14.786 29.0872 14.8259 28.9875 14.8259Z" fill="#F35431"/>
<path d="M32.2864 28.0232H20.8943C20.7946 28.0232 20.6991 27.9833 20.6286 27.9123C20.5581 27.8412 20.5186 27.7449 20.5186 27.6444C20.5186 27.544 20.5581 27.4476 20.6286 27.3766C20.6991 27.3055 20.7946 27.2656 20.8943 27.2656H32.2864C32.3861 27.2656 32.4817 27.3055 32.5521 27.3766C32.6226 27.4476 32.6622 27.544 32.6622 27.6444C32.6622 27.7449 32.6226 27.8412 32.5521 27.9123C32.4817 27.9833 32.3861 28.0232 32.2864 28.0232Z" fill="#F35431"/>
<path d="M49.3754 39.2576H4.40796C4.30831 39.2576 4.21274 39.2177 4.14228 39.1467C4.07181 39.0757 4.03223 38.9793 4.03223 38.8789V8.46219C4.04405 7.85397 4.29256 7.27481 4.72414 6.84964C5.15572 6.42447 5.73579 6.18736 6.33921 6.18947H22.5708C22.6231 6.19034 22.6747 6.202 22.7224 6.22375C22.7701 6.24549 22.8128 6.27684 22.848 6.31588C22.8832 6.35492 22.9101 6.40081 22.9271 6.45073C22.944 6.50065 22.9506 6.55354 22.9465 6.60613V6.76522C22.9387 6.85091 22.9387 6.93712 22.9465 7.0228C22.9465 8.08568 23.3653 9.10502 24.1108 9.85658C24.8563 10.6082 25.8674 11.0304 26.9217 11.0304C27.976 11.0304 28.9871 10.6082 29.7326 9.85658C30.4781 9.10502 30.897 8.08568 30.897 7.0228C30.897 6.93189 30.897 6.84856 30.897 6.76522V6.60613C30.8929 6.55354 30.8995 6.50065 30.9164 6.45073C30.9333 6.40081 30.9602 6.35492 30.9954 6.31588C31.0306 6.27684 31.0734 6.24549 31.1211 6.22375C31.1688 6.202 31.2204 6.19034 31.2727 6.18947H47.5043C48.1077 6.18736 48.6877 6.42447 49.1193 6.84964C49.5509 7.27481 49.7994 7.85397 49.8112 8.46219V38.8789C49.812 38.9341 49.8006 38.9889 49.7781 39.0393C49.7556 39.0897 49.7224 39.1345 49.6809 39.1706C49.6393 39.2067 49.5905 39.2332 49.5377 39.2483C49.4849 39.2633 49.4295 39.2665 49.3754 39.2576ZM4.81375 38.5001H48.9997V8.46219C48.9879 8.05491 48.8186 7.66842 48.5279 7.3853C48.2373 7.10218 47.8483 6.94489 47.4441 6.94704H31.6635V7.0228C31.6635 8.2866 31.1655 9.49863 30.279 10.3923C29.3926 11.2859 28.1904 11.788 26.9368 11.788C25.6832 11.788 24.4809 11.2859 23.5945 10.3923C22.7081 9.49863 22.2101 8.2866 22.2101 7.0228V6.94704H6.42939C6.02523 6.94489 5.63626 7.10218 5.34559 7.3853C5.05493 7.66842 4.88563 8.05491 4.87386 8.46219L4.81375 38.5001Z" fill="#F35431"/>
<path d="M31.1821 6.92419C31.0876 6.92246 30.9971 6.88483 30.9289 6.81883C30.8606 6.75283 30.8196 6.66331 30.8139 6.56813C30.7021 5.59532 30.2396 4.69786 29.5143 4.04644C28.7889 3.39502 27.8514 3.03507 26.88 3.03507C25.9086 3.03507 24.9711 3.39502 24.2457 4.04644C23.5204 4.69786 23.0579 5.59532 22.9461 6.56813C22.9352 6.66859 22.885 6.76055 22.8068 6.82377C22.7286 6.887 22.6287 6.9163 22.5291 6.90525C22.4294 6.8942 22.3382 6.8437 22.2755 6.76485C22.2128 6.686 22.1837 6.58526 22.1947 6.4848C22.3173 5.32028 22.863 4.2427 23.7267 3.45958C24.5903 2.67645 25.7109 2.24316 26.8725 2.24316C28.0341 2.24316 29.1546 2.67645 30.0183 3.45958C30.882 4.2427 31.4277 5.32028 31.5503 6.4848C31.5609 6.58418 31.5321 6.68374 31.4701 6.76179C31.4082 6.83984 31.3182 6.89004 31.2197 6.90147L31.1821 6.92419Z" fill="#F35431"/>
<path d="M26.8759 11.6965C25.6309 11.7026 24.4342 11.2108 23.5482 10.329C22.6622 9.44711 22.1591 8.24713 22.1492 6.99199C22.1378 6.86852 22.1378 6.74424 22.1492 6.62078V6.49956C22.1602 6.3991 22.2103 6.30715 22.2885 6.24392C22.3667 6.1807 22.4666 6.15139 22.5663 6.16244C22.6659 6.17349 22.7571 6.224 22.8199 6.30285C22.8826 6.3817 22.9116 6.48244 22.9007 6.5829V6.72684C22.893 6.81505 22.893 6.90377 22.9007 6.99199C22.9453 8.02571 23.3839 9.00218 24.1253 9.71775C24.8666 10.4333 25.8533 10.8328 26.8797 10.8328C27.906 10.8328 28.8927 10.4333 29.6341 9.71775C30.3754 9.00218 30.8141 8.02571 30.8587 6.99199C30.8663 6.90377 30.8663 6.81505 30.8587 6.72684V6.5829C30.8532 6.53315 30.8576 6.48282 30.8714 6.43477C30.8853 6.38672 30.9084 6.34189 30.9395 6.30285C30.9705 6.26381 31.0089 6.23131 31.0524 6.20722C31.0959 6.18313 31.1437 6.16791 31.1931 6.16244C31.2424 6.15697 31.2923 6.16135 31.34 6.17533C31.3877 6.18931 31.4321 6.21262 31.4708 6.24392C31.5096 6.27523 31.5418 6.31392 31.5657 6.35778C31.5896 6.40164 31.6047 6.44982 31.6101 6.49956V6.62078C31.6216 6.74424 31.6216 6.86852 31.6101 6.99199C31.5982 8.24782 31.0935 9.44779 30.2063 10.3294C29.3191 11.2111 28.1216 11.7026 26.8759 11.6965Z" fill="#F35431"/>
<path d="M54.1239 22.6514H52.125V31.712H54.1239V22.6514Z" fill="#F14C37"/>
<path d="M54.1239 33.9473H52.125V37.3488H54.1239V33.9473Z" fill="#F14C37"/>
<path d="M2.87486 8.01562H0.875977V17.0762H2.87486V8.01562Z" fill="#F14C37"/>
<path d="M2.87486 19.3027H0.875977V22.7042H2.87486V19.3027Z" fill="#F14C37"/>
<path d="M7.94721 43.9014H6.8125V45.0453H7.94721V43.9014Z" fill="#F14C37"/>
<path d="M7.94721 45.0459H6.8125V46.1898H7.94721V45.0459Z" fill="#F14C37"/>
<path d="M11.4941 43.9014H10.3594V45.0453H11.4941V43.9014Z" fill="#F14C37"/>
<path d="M11.4941 45.0459H10.3594V46.1898H11.4941V45.0459Z" fill="#F14C37"/>
<path d="M15.041 43.9014H13.9062V45.0453H15.041V43.9014Z" fill="#F14C37"/>
<path d="M15.041 45.0459H13.9062V46.1898H15.041V45.0459Z" fill="#F14C37"/>
<path d="M18.58 43.9014H17.4453V45.0453H18.58V43.9014Z" fill="#F14C37"/>
<path d="M18.58 45.0459H17.4453V46.1898H18.58V45.0459Z" fill="#F14C37"/>
<path d="M22.1269 43.9014H20.9922V45.0453H22.1269V43.9014Z" fill="#F14C37"/>
<path d="M22.1269 45.0459H20.9922V46.1898H22.1269V45.0459Z" fill="#F14C37"/>
<path d="M25.6738 43.9014H24.5391V45.0453H25.6738V43.9014Z" fill="#F14C37"/>
<path d="M25.6738 45.0459H24.5391V46.1898H25.6738V45.0459Z" fill="#F14C37"/>
<path d="M29.2138 43.9014H28.0791V45.0453H29.2138V43.9014Z" fill="#F14C37"/>
<path d="M29.2138 45.0459H28.0791V46.1898H29.2138V45.0459Z" fill="#F14C37"/>
<path d="M32.7607 43.9014H31.626V45.0453H32.7607V43.9014Z" fill="#F14C37"/>
<path d="M32.7607 45.0459H31.626V46.1898H32.7607V45.0459Z" fill="#F14C37"/>
<path d="M36.2997 43.9014H35.165V45.0453H36.2997V43.9014Z" fill="#F14C37"/>
<path d="M36.2997 45.0459H35.165V46.1898H36.2997V45.0459Z" fill="#F14C37"/>
<path d="M39.8466 43.9014H38.7119V45.0453H39.8466V43.9014Z" fill="#F14C37"/>
<path d="M39.8466 45.0459H38.7119V46.1898H39.8466V45.0459Z" fill="#F14C37"/>
<path d="M46.9326 43.9014H45.7979V45.0453H46.9326V43.9014Z" fill="#F14C37"/>
<path d="M46.9326 45.0459H45.7979V46.1898H46.9326V45.0459Z" fill="#F14C37"/>
<path d="M43.3935 43.9014H42.2588V45.0453H43.3935V43.9014Z" fill="#F14C37"/>
<path d="M43.3935 45.0459H42.2588V46.1898H43.3935V45.0459Z" fill="#F14C37"/>
<path d="M6.37689 40.1133H5.24219V41.2572H6.37689V40.1133Z" fill="#F14C37"/>
<path d="M6.37689 41.2578H5.24219V42.4018H6.37689V41.2578Z" fill="#F14C37"/>
<path d="M48.0673 40.1133H46.9326V41.2572H48.0673V40.1133Z" fill="#F14C37"/>
<path d="M48.0673 41.2578H46.9326V42.4018H48.0673V41.2578Z" fill="#F14C37"/>
<path d="M50.4794 43.9014H49.3447V45.0453H50.4794V43.9014Z" fill="#F14C37"/>
<path d="M50.4794 45.0459H49.3447V46.1898H50.4794V45.0459Z" fill="#F14C37"/>
<path d="M4.40717 43.9014H3.27246V45.0453H4.40717V43.9014Z" fill="#F14C37"/>
<path d="M4.40717 45.0459H3.27246V46.1898H4.40717V45.0459Z" fill="#F14C37"/>
<path d="M9.84857 40.1133H8.71387V41.2572H9.84857V40.1133Z" fill="#F14C37"/>
<path d="M9.84857 41.2578H8.71387V42.4018H9.84857V41.2578Z" fill="#F14C37"/>
<path d="M13.3271 40.1133H12.1924V41.2572H13.3271V40.1133Z" fill="#F14C37"/>
<path d="M13.3271 41.2578H12.1924V42.4018H13.3271V41.2578Z" fill="#F14C37"/>
<path d="M16.7988 40.1133H15.6641V41.2572H16.7988V40.1133Z" fill="#F14C37"/>
<path d="M16.7988 41.2578H15.6641V42.4018H16.7988V41.2578Z" fill="#F14C37"/>
<path d="M20.2714 40.1133H19.1367V41.2572H20.2714V40.1133Z" fill="#F14C37"/>
<path d="M20.2714 41.2578H19.1367V42.4018H20.2714V41.2578Z" fill="#F14C37"/>
<path d="M23.7499 40.1133H22.6152V41.2572H23.7499V40.1133Z" fill="#F14C37"/>
<path d="M23.7499 41.2578H22.6152V42.4018H23.7499V41.2578Z" fill="#F14C37"/>
<path d="M27.2216 40.1133H26.0869V41.2572H27.2216V40.1133Z" fill="#F14C37"/>
<path d="M27.2216 41.2578H26.0869V42.4018H27.2216V41.2578Z" fill="#F14C37"/>
<path d="M30.7011 40.1133H29.5664V41.2572H30.7011V40.1133Z" fill="#F14C37"/>
<path d="M30.7011 41.2578H29.5664V42.4018H30.7011V41.2578Z" fill="#F14C37"/>
<path d="M34.1728 40.1133H33.0381V41.2572H34.1728V40.1133Z" fill="#F14C37"/>
<path d="M34.1728 41.2578H33.0381V42.4018H34.1728V41.2578Z" fill="#F14C37"/>
<path d="M37.6445 40.1133H36.5098V41.2572H37.6445V40.1133Z" fill="#F14C37"/>
<path d="M37.6445 41.2578H36.5098V42.4018H37.6445V41.2578Z" fill="#F14C37"/>
<path d="M44.5956 40.1133H43.4609V41.2572H44.5956V40.1133Z" fill="#F14C37"/>
<path d="M44.5956 41.2578H43.4609V42.4018H44.5956V41.2578Z" fill="#F14C37"/>
<path d="M41.124 40.1133H39.9893V41.2572H41.124V40.1133Z" fill="#F14C37"/>
<path d="M41.124 41.2578H39.9893V42.4018H41.124V41.2578Z" fill="#F14C37"/>
<path d="M54.1246 48.1744H0.876111C0.808961 48.1804 0.741436 48.1681 0.680617 48.1388C0.619798 48.1095 0.567926 48.0642 0.530439 48.0077C0.500836 47.9517 0.485352 47.8893 0.485352 47.8259C0.485352 47.7625 0.500836 47.7 0.530439 47.6441L4.49815 38.6062C4.52826 38.539 4.5768 38.4819 4.63805 38.4416C4.6993 38.4014 4.7707 38.3796 4.84383 38.3789H49.1349C49.2016 38.3784 49.2671 38.3966 49.3241 38.4314C49.3812 38.4661 49.4275 38.5162 49.4581 38.5759L54.4553 47.6138C54.4866 47.6715 54.5025 47.7365 54.5013 47.8024C54.5002 47.8682 54.482 47.9326 54.4486 47.9892C54.4152 48.0458 54.3678 48.0926 54.311 48.1251C54.2542 48.1576 54.19 48.1745 54.1246 48.1744ZM1.45474 47.4168H53.4859L48.9095 39.1441H5.08429L1.45474 47.4168Z" fill="#F35431"/>
<path d="M53.0048 53.9923H2.0332C1.6346 53.9923 1.25232 53.8326 0.970469 53.5485C0.688617 53.2644 0.530273 52.879 0.530273 52.4771V47.7802C0.530273 47.6797 0.569859 47.5833 0.640322 47.5123C0.710786 47.4413 0.806354 47.4014 0.906004 47.4014H54.1245C54.2241 47.4014 54.3197 47.4413 54.3902 47.5123C54.4606 47.5833 54.5002 47.6797 54.5002 47.7802V52.4771C54.5002 52.8777 54.3429 53.2619 54.0627 53.5458C53.7824 53.8298 53.4021 53.9903 53.0048 53.9923ZM1.28173 48.1741V52.4923C1.28173 52.6932 1.36091 52.8859 1.50183 53.028C1.64276 53.17 1.8339 53.2499 2.0332 53.2499H53.0048C53.2041 53.2499 53.3952 53.17 53.5362 53.028C53.6771 52.8859 53.7563 52.6932 53.7563 52.4923V48.1741H1.28173Z" fill="#F35431"/>
<path d="M31.19 49.167H23.1494V51.2655H31.19V49.167Z" fill="#F35431"/>
</g>
<defs>
<clipPath id="clip0_26142_18636">
<rect width="54" height="54" fill="white" transform="translate(0.5)"/>
</clipPath>
</defs>
</svg>
