<svg width="55" height="54" viewBox="0 0 55 54" fill="none" xmlns="http://www.w3.org/2000/svg">
<path d="M35.766 40.479V41.82L35.4659 41.9675C33.0842 43.0871 30.4217 43.6766 27.7153 43.6837C25.0089 43.6907 22.3424 43.115 19.9532 42.0078C19.8223 41.934 19.6914 41.8804 19.5682 41.8066V40.4656C19.5374 38.6337 20.3418 36.866 21.8052 35.55C23.2686 34.2339 25.2715 33.4771 27.3746 33.4453H27.9673C29.01 33.4601 30.0392 33.654 30.9957 34.0157C31.9523 34.3774 32.8176 34.8998 33.542 35.5532C34.2664 36.2065 34.8356 36.9779 35.2173 37.8232C35.5989 38.6684 35.7854 39.5709 35.766 40.479Z" fill="#FDEEEA"/>
<path d="M27.6283 28.7444C30.199 28.7444 32.2829 26.3698 32.2829 23.4406C32.2829 20.5113 30.199 18.1367 27.6283 18.1367C25.0576 18.1367 22.9736 20.5113 22.9736 23.4406C22.9736 26.3698 25.0576 28.7444 27.6283 28.7444Z" fill="#FDEEEA"/>
<path d="M49.0155 53.9998C47.8959 54.0013 46.801 53.667 45.8693 53.0392C44.9377 52.4113 44.2111 51.5181 43.7816 50.4726C43.3521 49.427 43.2389 48.2762 43.4564 47.1656C43.6739 46.055 44.2123 45.0346 45.0035 44.2335C45.7946 43.4324 46.803 42.8867 47.901 42.6652C48.999 42.4438 50.1372 42.5567 51.1717 42.9896C52.2062 43.4225 53.0906 44.1559 53.7127 45.0972C54.3349 46.0384 54.667 47.1451 54.667 48.2772C54.6649 49.793 54.0691 51.2462 53.0099 52.3187C51.9507 53.3912 50.5144 53.9957 49.0155 53.9998ZM49.0155 43.3301C48.0475 43.3286 47.1009 43.6174 46.2953 44.1601C45.4898 44.7027 44.8616 45.4748 44.4901 46.3787C44.1187 47.2825 44.0207 48.2775 44.2086 49.2376C44.3965 50.1978 44.8618 51.08 45.5457 51.7727C46.2296 52.4653 47.1013 52.9372 48.0506 53.1288C48.9998 53.3203 49.9838 53.2228 50.8782 52.8486C51.7726 52.4744 52.5373 51.8403 53.0752 51.0265C53.6131 50.2128 53.9001 49.256 53.9001 48.2772C53.9001 46.9665 53.3858 45.7094 52.4699 44.7818C51.5541 43.8543 50.3117 43.3322 49.0155 43.3301Z" fill="#E14E24"/>
<path d="M39.5025 38.4843L38.9707 39.043L45.0421 44.9531L45.5739 44.3944L39.5025 38.4843Z" fill="#E14E24"/>
<path d="M49.0155 11.4451C47.8959 11.4467 46.801 11.1123 45.8693 10.4845C44.9377 9.85659 44.2111 8.96339 43.7816 7.91787C43.3521 6.87234 43.2389 5.72148 43.4564 4.6109C43.6739 3.50032 44.2123 2.47994 45.0035 1.67885C45.7946 0.877758 46.803 0.331967 47.901 0.110532C48.999 -0.110904 50.1372 0.00195712 51.1717 0.434856C52.2062 0.867754 53.0906 1.60123 53.7127 2.54247C54.3349 3.48371 54.667 4.59041 54.667 5.72255C54.6649 7.2383 54.0691 8.6915 53.0099 9.76402C51.9507 10.8365 50.5144 11.441 49.0155 11.4451ZM49.0155 0.775413C48.0475 0.773879 47.1009 1.06272 46.2953 1.60538C45.4898 2.14805 44.8616 2.92015 44.4901 3.82398C44.1187 4.72782 44.0207 5.72277 44.2086 6.68293C44.3965 7.6431 44.8618 8.52532 45.5457 9.21797C46.2296 9.91061 47.1013 10.3826 48.0506 10.5741C48.9998 10.7656 49.9838 10.6681 50.8782 10.2939C51.7726 9.91965 52.5373 9.28557 53.0752 8.47185C53.6131 7.65812 53.9001 6.70134 53.9001 5.72255C53.8981 4.41246 53.3832 3.15649 52.4678 2.22939C51.5524 1.30228 50.311 0.779512 49.0155 0.775413Z" fill="#E14E24"/>
<path d="M45.091 9.052L39.0176 14.96L39.5492 15.5188L45.6226 9.61082L45.091 9.052Z" fill="#E14E24"/>
<path d="M6.70213 11.4451C5.58285 11.4451 4.48871 11.1095 3.55807 10.4807C2.62742 9.85189 1.90206 8.95815 1.47373 7.91249C1.0454 6.86683 0.933359 5.71622 1.15172 4.60615C1.37008 3.49608 1.90899 2.47641 2.70044 1.6761C3.49189 0.875785 4.50027 0.330766 5.59804 0.109959C6.69581 -0.110847 7.83373 0.00248137 8.86781 0.435609C9.90189 0.868736 10.7857 1.60221 11.4076 2.54328C12.0294 3.48435 12.3613 4.59074 12.3613 5.72256C12.3593 7.23965 11.7623 8.69402 10.7015 9.76676C9.64061 10.8395 8.20241 11.4431 6.70213 11.4451ZM6.70213 0.77542C5.73451 0.77542 4.78861 1.06557 3.98407 1.60917C3.17953 2.15277 2.55243 2.9254 2.18214 3.82937C1.81185 4.73335 1.71498 5.72806 1.90376 6.68771C2.09253 7.64736 2.5585 8.52886 3.24271 9.22073C3.92691 9.9126 4.7986 10.3838 5.74762 10.5747C6.69664 10.7655 7.6804 10.6676 8.57436 10.2931C9.46832 9.9187 10.2324 9.2846 10.77 8.47105C11.3076 7.6575 11.5945 6.70101 11.5945 5.72256C11.5925 4.41112 11.0764 3.154 10.1593 2.22667C9.24225 1.29935 7.99904 0.777471 6.70213 0.77542Z" fill="#E14E24"/>
<path d="M10.607 8.95895L10.0752 9.51758L16.1466 15.4277L16.6784 14.8691L10.607 8.95895Z" fill="#E14E24"/>
<path d="M6.32615 53.9998C5.20687 53.9998 4.11274 53.6642 3.18209 53.0354C2.25144 52.4066 1.52608 51.5128 1.09775 50.4672C0.66942 49.4215 0.557382 48.2709 0.775743 47.1608C0.994103 46.0508 1.53302 45.0311 2.32447 44.2308C3.11592 43.4305 4.12429 42.8855 5.22206 42.6646C6.31983 42.4438 7.45776 42.5572 8.49184 42.9903C9.52592 43.4234 10.4097 44.1569 11.0316 45.098C11.6534 46.039 11.9853 47.1454 11.9853 48.2772C11.9833 49.7943 11.3864 51.2487 10.3255 52.3214C9.26464 53.3942 7.82644 53.9978 6.32615 53.9998ZM6.32615 43.3301C5.35854 43.3301 4.41264 43.6202 3.60809 44.1638C2.80355 44.7074 2.17646 45.4801 1.80617 46.3841C1.43587 47.288 1.33901 48.2827 1.52778 49.2424C1.71655 50.202 2.18252 51.0835 2.86673 51.7754C3.55094 52.4673 4.42262 52.9385 5.37165 53.1293C6.32067 53.3202 7.30442 53.2223 8.19838 52.8478C9.09234 52.4734 9.85644 51.8393 10.394 51.0257C10.9316 50.2122 11.2185 49.2557 11.2185 48.2772C11.2185 47.6276 11.0919 46.9843 10.846 46.3841C10.6002 45.7838 10.2399 45.2385 9.78558 44.7791C9.33128 44.3197 8.79195 43.9553 8.19838 43.7067C7.60481 43.4581 6.96863 43.3301 6.32615 43.3301Z" fill="#E14E24"/>
<path d="M15.839 38.551L9.76562 44.459L10.2972 45.0178L16.3706 39.1098L15.839 38.551Z" fill="#E14E24"/>
<path d="M27.6351 44.1366C24.8887 44.1382 22.1842 43.4564 19.7598 42.1515L19.5681 42.0352C19.4882 41.9944 19.4112 41.9478 19.3381 41.8956C18.0191 41.1519 16.8151 40.2167 15.7646 39.1196C13.3203 36.6138 11.7135 33.3968 11.1696 29.9203C10.6256 26.4438 11.172 22.8823 12.7319 19.7358C14.2919 16.5894 16.7871 14.0159 19.8673 12.3766C22.9475 10.7373 26.458 10.1145 29.9061 10.5957C33.3541 11.0769 36.5667 12.6379 39.0926 15.0596C41.6186 17.4812 43.3311 20.6419 43.9899 24.0981C44.6488 27.5542 44.2207 31.1321 42.7659 34.3297C41.3111 37.5273 38.9026 40.1839 35.8785 41.9266C35.7481 42.0119 35.6561 42.0585 35.5641 42.1127C33.1276 43.4407 30.403 44.1362 27.6351 44.1366ZM27.6351 11.1892C24.4971 11.1862 21.4283 12.1219 18.8151 13.8787C16.2018 15.6354 14.1609 18.1346 12.9493 21.0617C11.7377 23.9888 11.4094 27.2129 12.0059 30.3282C12.6024 33.4436 14.097 36.3108 16.3015 38.5691C17.3151 39.6225 18.4749 40.521 19.7445 41.2365C19.8096 41.2842 19.8789 41.3258 19.9516 41.3606L20.1509 41.4847C22.4727 42.7275 25.0618 43.372 27.6888 43.3612C30.3158 43.3504 32.8996 42.6845 35.2113 41.4226L35.4414 41.2908C36.7431 40.5376 37.9375 39.6089 38.9918 38.5303C41.1846 36.2687 42.6682 33.4028 43.2565 30.2919C43.8448 27.1809 43.5116 23.9636 42.2987 21.0435C41.0857 18.1234 39.0471 15.6304 36.4384 13.8773C33.8298 12.1242 30.7673 11.1891 27.6351 11.1892Z" fill="#E14E24"/>
<path d="M27.6211 29.1476C26.5005 29.1847 25.3944 28.8825 24.4447 28.2797C23.495 27.6769 22.745 26.8011 22.2909 25.7644C21.8367 24.7278 21.6992 23.5776 21.8958 22.4613C22.0923 21.3451 22.6141 20.3136 23.3942 19.4992C24.1743 18.6848 25.1772 18.1246 26.2742 17.8904C27.3713 17.6561 28.5126 17.7585 29.5517 18.1845C30.5908 18.6105 31.4804 19.3406 32.1065 20.2812C32.7326 21.2218 33.0665 22.33 33.0656 23.4638C33.0861 24.9468 32.5247 26.3775 31.5042 27.4428C30.4838 28.5081 29.0876 29.1211 27.6211 29.1476ZM27.6211 18.5477C26.6526 18.5106 25.6952 18.7671 24.8718 19.2842C24.0485 19.8014 23.3968 20.5556 23.0004 21.45C22.6041 22.3444 22.4812 23.3382 22.6474 24.3037C22.8137 25.2693 23.2617 26.1626 23.9337 26.8688C24.6057 27.5751 25.4711 28.0621 26.4189 28.2674C27.3666 28.4727 28.3534 28.3868 29.2525 28.0208C30.1516 27.6548 30.9221 27.0254 31.4649 26.2134C32.0077 25.4014 32.2981 24.4439 32.2988 23.4638C32.313 22.8288 32.2032 22.1971 31.9757 21.6049C31.7482 21.0128 31.4076 20.4719 30.9731 20.0131C30.5386 19.5543 30.0188 19.1866 29.4437 18.9312C28.8685 18.6758 28.2492 18.5375 27.6211 18.5244V18.5477Z" fill="#E14E24"/>
<path d="M36.0707 41.593H35.3039V37.4368C35.3039 35.457 34.5272 33.558 33.1442 32.1566C31.7612 30.7552 29.8849 29.9659 27.927 29.9618H27.3366C25.3754 29.9618 23.4944 30.7491 22.1068 32.1507C20.7193 33.5523 19.9388 35.4536 19.9367 37.4368V41.5542H19.1699V37.4135C19.174 35.2253 20.0359 33.128 21.5668 31.5814C23.0977 30.0348 25.1726 29.1651 27.3366 29.1631H27.927C30.0883 29.1672 32.1597 30.0382 33.6865 31.5851C35.2133 33.1319 36.0707 35.228 36.0707 37.4135V41.593Z" fill="#E14E24"/>
</svg>
